<?xml version="1.0" encoding="UTF-8" standalone="no"?>
<!-- Created with Inkscape (http://www.inkscape.org/) -->

<svg
   width="210mm"
   height="297mm"
   viewBox="0 0 210 297"
   version="1.1"
   id="svg1"
   xml:space="preserve"
   inkscape:version="1.4 (86a8ad7, 2024-10-11)"
   sodipodi:docname="implantologia.svg"
   xmlns:inkscape="http://www.inkscape.org/namespaces/inkscape"
   xmlns:sodipodi="http://sodipodi.sourceforge.net/DTD/sodipodi-0.dtd"
   xmlns="http://www.w3.org/2000/svg"
   xmlns:svg="http://www.w3.org/2000/svg"><sodipodi:namedview
     id="namedview1"
     pagecolor="#505050"
     bordercolor="#eeeeee"
     borderopacity="1"
     inkscape:showpageshadow="0"
     inkscape:pageopacity="0"
     inkscape:pagecheckerboard="0"
     inkscape:deskcolor="#505050"
     inkscape:document-units="mm"
     inkscape:zoom="1.0396254"
     inkscape:cx="397.25847"
     inkscape:cy="561.25984"
     inkscape:window-width="3440"
     inkscape:window-height="1369"
     inkscape:window-x="2552"
     inkscape:window-y="142"
     inkscape:window-maximized="1"
     inkscape:current-layer="layer1" /><defs
     id="defs1" /><g
     inkscape:label="Livello 1"
     inkscape:groupmode="layer"
     id="layer1"><path
       style="fill:#000000"
       d="m 101.46318,213.49027 c -3.682021,-0.86778 -6.616516,-3.94362 -7.375538,-7.73079 l -0.275509,-1.37466 -1.593607,0.0911 c -1.969358,0.11258 -3.503841,-0.42986 -4.81315,-1.70144 -1.339784,-1.30118 -1.811563,-2.35261 -1.94767,-4.34067 -0.103789,-1.51598 -0.02647,-1.89535 0.646529,-3.17227 1.002386,-1.90189 2.439215,-2.97181 4.820321,-3.58938 l 1.896327,-0.49185 -0.07701,-1.73212 -0.07701,-1.73211 -1.748634,-0.047 c -2.908694,-0.0782 -4.851493,-1.26691 -5.959506,-3.64635 -1.093613,-2.34852 -0.649992,-5.42839 1.043834,-7.2469 0.768477,-0.82504 2.631285,-1.74209 4.371746,-2.15219 1.247264,-0.29388 1.394,-0.39821 1.260383,-0.89612 -0.08317,-0.30993 -0.152848,-1.16372 -0.154835,-1.8973 l -0.0036,-1.33378 -1.91823,0.004 c -2.178747,0.005 -3.452502,-0.51943 -4.881382,-2.01008 -1.853891,-1.93404 -2.227215,-4.90976 -0.927976,-7.39679 0.911312,-1.74445 2.234211,-2.71114 4.654337,-3.40107 1.001848,-0.2856 1.859966,-0.5577 1.906928,-0.60467 0.04696,-0.047 -0.04799,-1.95578 -0.211001,-4.24182 l -0.296388,-4.15644 -3.19804,-0.0116 c -3.366177,-0.0122 -4.528409,-0.26579 -6.074743,-1.32536 -1.306253,-0.89505 -2.015104,-2.1076 -3.059543,-5.23359 l -0.94292,-2.82214 -1.622718,-0.17902 c -2.244813,-0.24764 -4.456532,-1.42246 -6.134658,-3.2586 -2.510158,-2.74651 -6.080201,-11.01326 -7.506645,-17.3823 -0.522147,-2.33137 -0.608951,-3.43966 -0.597036,-7.62279 0.01262,-4.43164 0.07975,-5.13778 0.709398,-7.46279 1.349524,-4.983162 3.868171,-9.338672 7.583805,-13.114702 7.542265,-7.66488 17.168139,-9.1575 29.301424,-4.54357 5.097667,1.93849 8.332477,1.93084 13.499387,-0.0319 8.47825,-3.22064 15.59489,-3.42555 21.92264,-0.63122 5.24679,2.31699 10.4741,7.7402 13.2485,13.74504 2.34743,5.080702 3.07725,11.729162 1.98749,18.105632 -1.13569,6.64528 -4.95181,15.91077 -7.83621,19.02628 -1.65963,1.7926 -3.89888,2.94435 -6.20712,3.19262 l -1.46284,0.15734 -0.61753,1.85208 c -1.24256,3.72666 -1.4589,4.20141 -2.37839,5.21918 -1.65236,1.82896 -2.59135,2.14597 -6.72752,2.27128 -2.00091,0.0606 -3.63802,0.21577 -3.63802,0.34478 0,0.129 0.21651,0.23455 0.48114,0.23455 1.15314,0 3.32745,0.88947 4.28166,1.75155 1.43772,1.29889 2.11695,2.82462 2.11378,4.74813 -0.003,1.89086 -0.84879,3.90442 -2.07215,4.93381 -0.87891,0.73956 -3.02007,1.6355 -4.6307,1.93765 -0.53533,0.10043 -1.01864,0.2584 -1.07402,0.35104 -0.0554,0.0926 -0.14337,1.05949 -0.19552,2.14855 l -0.0948,1.9801 1.29075,0.18564 c 5.14655,0.74019 7.26984,7.08426 3.62138,10.82013 -1.18729,1.21574 -1.965,1.5844 -4.97827,2.35984 l -1.12448,0.28937 v 1.7096 c 0,0.94027 -0.0184,1.79889 -0.0408,1.90803 -0.0225,0.10914 0.57843,0.28756 1.33529,0.39648 1.71694,0.24709 2.54056,0.67396 3.78742,1.96296 1.90382,1.96816 2.31941,4.78437 1.06968,7.24859 -0.95954,1.89201 -2.38498,2.93658 -4.96398,3.63763 -1.12596,0.30607 -2.11681,0.6261 -2.20188,0.71117 -0.0851,0.0851 -0.2989,1.93393 -0.47518,4.10859 -0.34184,4.21709 -0.80706,5.75515 -2.35444,7.78386 -0.98642,1.29326 -3.23735,2.7134 -5.04848,3.18514 -1.66768,0.43437 -5.68773,0.4966 -7.31441,0.11322 z m 6.78341,-3.74032 c 1.42198,-0.42228 3.38593,-2.37858 3.7924,-3.77763 0.16911,-0.58209 0.38996,-2.33129 0.49077,-3.88712 l 0.18329,-2.82879 -3.40851,0.91126 c -1.87468,0.5012 -5.28374,1.41192 -7.57569,2.02383 l -4.167191,1.11256 v 0.77427 c 0,2.23648 1.946661,5.00656 3.968751,5.64749 1.27191,0.40314 5.39007,0.41794 6.71618,0.0241 z m -2.21827,-12.51064 c 12.40449,-3.31738 13.41357,-3.63034 14.08906,-4.36964 1.54417,-1.69002 0.38328,-4.47119 -1.87261,-4.48626 -0.48424,-0.003 -6.91361,1.60736 -14.2875,3.57911 -12.346229,3.30133 -13.464641,3.64709 -14.134673,4.3698 -1.590121,1.71513 -0.459434,4.48082 1.83173,4.48046 0.556897,-8e-5 7.025196,-1.60814 14.373993,-3.57347 z m 0.66146,-9.79577 c 3.63802,-0.97207 6.71671,-1.86297 6.84153,-1.9798 0.12482,-0.11682 0.29104,-1.01083 0.36937,-1.98669 0.13252,-1.651 0.10756,-1.76391 -0.35924,-1.6249 -0.27591,0.0822 -4.1926,1.12777 -8.70374,2.32356 -4.51115,1.1958 -8.2966,2.25462 -8.412122,2.35293 -0.115521,0.0983 -0.130054,0.95945 -0.0323,1.91362 l 0.177743,1.73488 1.752088,-0.4831 c 0.963648,-0.26571 4.728651,-1.27843 8.366671,-2.2505 z m -4.89479,-6.24393 c 19.79191,-5.28866 18.58027,-4.92623 19.38073,-5.79713 1.56508,-1.70281 0.46157,-4.48745 -1.77832,-4.48745 -0.95891,0 -29.108937,7.44037 -30.044619,7.94113 -1.435648,0.76834 -1.759145,2.86884 -0.645632,4.19218 0.710872,0.84482 1.424577,1.10641 2.50451,0.91795 0.363802,-0.0635 5.126302,-1.30849 10.583331,-2.76668 z m 3.90728,-10.68168 c 4.98666,-1.33896 9.12113,-2.48895 9.18771,-2.55554 0.27274,-0.27273 0.46619,-3.92653 0.2079,-3.92653 -0.30121,0 -19.988613,5.26294 -20.053761,5.36088 -0.02308,0.0347 0.01152,0.92519 0.07689,1.97889 l 0.118845,1.91581 0.697884,-0.16952 c 0.383836,-0.0932 4.777872,-1.26503 9.764532,-2.60399 z m -1.52603,-7.41898 c 7.93088,-2.11695 15.21565,-4.08291 16.18837,-4.3688 2.14281,-0.6298 2.86163,-1.39048 2.86163,-3.02827 0,-1.27726 -0.86002,-2.37166 -2.06982,-2.6339 -0.4704,-0.10197 -6.17379,1.30922 -16.98018,4.20139 -14.430777,3.86219 -16.339229,4.43316 -16.867185,5.0463 -0.646569,0.75089 -0.808922,2.41418 -0.324077,3.32012 0.322037,0.60173 1.499366,1.28468 2.242306,1.30073 0.291042,0.006 7.018073,-1.72062 14.948956,-3.83757 z m 1.03446,-9.91101 c 5.98254,-1.60073 10.93563,-2.91041 11.00686,-2.91041 0.0712,0 0.12951,-0.35719 0.12951,-0.79375 v -0.79375 H 104.936 93.524917 l 0.182004,3.24114 c 0.168584,3.00216 0.319166,4.16719 0.538618,4.16719 0.04829,0 4.982615,-1.30969 10.965161,-2.91042 z m 21.72836,-8.60343 c 0.42688,-0.22075 0.94184,-0.72676 1.14437,-1.12448 0.33091,-0.64983 1.22822,-3.47915 1.22822,-3.8727 0,-0.0867 -10.95375,-0.15772 -24.34166,-0.15772 -13.387914,0 -24.341664,0.071 -24.341664,0.15772 0,0.39287 0.897032,3.22232 1.22707,3.87047 0.79768,1.56653 -0.12361,1.50591 23.061584,1.51747 18.48732,0.009 21.34673,-0.0415 22.02208,-0.39076 z m 7.69429,-9.12811 c 3.13897,-0.59258 4.54443,-2.17061 7.16088,-8.04014 2.67422,-5.99914 3.92159,-11.28162 3.92159,-16.60746 0,-6.4452 -1.86678,-11.571512 -6.00369,-16.486512 -2.09367,-2.48746 -4.23456,-4.16898 -7.09318,-5.57122 -5.54741,-2.72116 -11.63561,-2.60679 -19.47802,0.3659 -3.49921,1.32639 -5.36544,1.71901 -8.17094,1.71901 -2.80669,0 -4.67173,-0.39262 -8.177326,-1.72144 -4.55716,-1.72741 -6.790688,-2.17619 -10.872671,-2.18459 -4.062009,-0.008 -5.798453,0.35937 -8.87107,1.87866 -5.298386,2.61985 -10.237011,8.83694 -12.04797,15.166842 -0.817287,2.85668 -0.998275,8.54219 -0.388878,12.21609 0.78739,4.74696 3.164296,11.22138 5.740978,15.63777 1.160921,1.9898 2.408735,2.98918 4.402373,3.52588 1.598469,0.43032 57.632874,0.52503 59.877924,0.10121 z m 1.68473,-30.71827 c -0.29381,-0.14292 -0.85862,-0.879 -1.25513,-1.63574 -1.04334,-1.99122 -3.17773,-4.487172 -4.76841,-5.576162 -2.16339,-1.48106 -3.39917,-1.83536 -6.40684,-1.83682 -2.36831,-0.001 -2.96221,0.10507 -5.662,1.01267 -2.77816,0.93393 -3.07019,0.98363 -3.70068,0.62974 -0.97,-0.54444 -1.29274,-1.60401 -0.74378,-2.44183 0.85428,-1.30379 6.16838,-2.82477 9.97416,-2.85478 2.95486,-0.0233 4.52818,0.29801 6.82365,1.39354 3.87495,1.84935 9.04752,8.336772 8.27247,10.375302 -0.41291,1.08605 -1.44141,1.46525 -2.53344,0.93408 z"
       id="path1-5" /></g></svg>
