<?xml version="1.0" encoding="UTF-8" standalone="no"?>
<!-- Created with Inkscape (http://www.inkscape.org/) -->

<svg
   width="210mm"
   height="297mm"
   viewBox="0 0 210 297"
   version="1.1"
   id="svg1"
   xml:space="preserve"
   inkscape:version="1.4 (86a8ad7, 2024-10-11)"
   sodipodi:docname="protesi-dentale.svg"
   xmlns:inkscape="http://www.inkscape.org/namespaces/inkscape"
   xmlns:sodipodi="http://sodipodi.sourceforge.net/DTD/sodipodi-0.dtd"
   xmlns="http://www.w3.org/2000/svg"
   xmlns:svg="http://www.w3.org/2000/svg"><sodipodi:namedview
     id="namedview1"
     pagecolor="#505050"
     bordercolor="#eeeeee"
     borderopacity="1"
     inkscape:showpageshadow="0"
     inkscape:pageopacity="0"
     inkscape:pagecheckerboard="0"
     inkscape:deskcolor="#505050"
     inkscape:document-units="mm"
     inkscape:zoom="1.0396254"
     inkscape:cx="397.25847"
     inkscape:cy="561.25984"
     inkscape:window-width="3440"
     inkscape:window-height="1369"
     inkscape:window-x="2552"
     inkscape:window-y="142"
     inkscape:window-maximized="1"
     inkscape:current-layer="layer1" /><defs
     id="defs1" /><g
     inkscape:label="Livello 1"
     inkscape:groupmode="layer"
     id="layer1"><path
       style="fill:#000000"
       d="m 77.938826,215.75596 c -4.182705,-0.96719 -5.636856,-1.90304 -10.633621,-6.84347 l -4.019037,-3.97373 -1.669504,0.47263 c -2.428548,0.68751 -6.026992,0.81357 -8.256827,0.28925 -5.346778,-1.25723 -9.377449,-5.47053 -10.904753,-11.39887 -0.740873,-2.87575 -0.672705,-11.90589 0.111478,-14.76744 0.740569,-2.7024 1.964725,-4.95886 3.717825,-6.85299 l 1.418475,-1.53258 -1.587304,-1.69684 c -1.714793,-1.83312 -2.795963,-3.81626 -3.259887,-5.97946 -0.181883,-0.84809 -0.252297,-3.33996 -0.185582,-6.56761 0.09909,-4.79408 0.161856,-5.35282 0.802205,-7.14161 0.950647,-2.65558 2.147487,-4.55409 4.115525,-6.52831 l 1.663574,-1.66879 -1.490574,-1.40973 c -2.634919,-2.49199 -3.820949,-5.30363 -3.820949,-9.05804 0,-4.45194 1.57261,-8.13299 4.875689,-11.41264 2.690323,-2.67125 4.38209,-3.58962 8.807281,-4.78101 0.22594,-0.0608 0.129748,-0.50542 -0.323601,-1.49567 -1.495119,-3.26577 -1.249809,-7.84142 0.573681,-10.70061 0.873072,-1.36896 7.259982,-9.595434 8.112714,-10.449349 2.249333,-2.252451 5.631766,-3.537939 8.777912,-3.336032 l 1.935041,0.124184 0.159978,-0.79989 c 0.225072,-1.125358 1.602669,-3.18192 2.683794,-4.006534 1.319892,-1.006731 3.900379,-2.155966 6.333967,-2.82087 3.101211,-0.847311 9.121942,-0.844098 12.295477,0.0066 2.300327,0.616598 5.844657,2.190484 6.376787,2.83166 0.24687,0.297464 0.44598,0.247783 1.14561,-0.285849 1.1792,-0.899421 3.48936,-1.881672 6.05344,-2.573857 3.06191,-0.826573 9.11968,-0.814276 12.22868,0.02482 2.80451,0.756921 5.58907,2.113339 6.81695,3.320681 0.98959,0.973034 2.31118,3.231624 2.31118,3.949792 0,0.298152 0.34071,0.347854 1.65911,0.242025 3.12015,-0.250455 6.6397,0.970286 8.80989,3.055675 1.14314,1.098473 7.56425,9.336444 8.49351,10.896764 1.60177,2.68954 1.97373,6.72074 0.89108,9.65729 -0.3219,0.87313 -0.64063,1.76657 -0.70827,1.98542 -0.0926,0.29948 0.31877,0.51378 1.66279,0.86629 5.35885,1.40552 10.19136,6.38522 11.60105,11.9544 0.55795,2.20422 0.51377,5.54832 -0.0993,7.51814 -0.69209,2.22369 -1.58336,3.64187 -3.32247,5.28664 l -1.49058,1.40973 1.66358,1.66879 c 1.96857,1.97476 3.16544,3.87362 4.11485,6.52831 0.63782,1.78343 0.70295,2.35786 0.80413,7.0919 0.15524,7.26321 -0.41411,9.35491 -3.42141,12.56972 l -1.56198,1.66977 1.42817,1.48638 c 1.71317,1.78299 3.09879,4.32301 3.91714,7.1806 0.53614,1.87214 0.60202,2.67493 0.59614,7.26412 -0.005,3.9974 -0.11013,5.57485 -0.46623,7.00415 -1.47927,5.93734 -5.74861,10.39297 -11.18283,11.67076 -2.22821,0.52393 -5.82788,0.39838 -8.25174,-0.28782 l -1.66442,-0.4712 -4.18339,4.13232 c -3.76517,3.71922 -4.40552,4.23887 -6.40537,5.19808 -2.96188,1.42063 -5.52304,1.94967 -8.57199,1.77066 -5.96008,-0.34993 -10.51663,-3.05788 -14.12069,-8.39187 -1.72327,-2.55044 -1.85445,-3.00396 -1.2224,-4.22621 0.48207,-0.93223 1.13908,-1.31762 2.24622,-1.31762 1.25877,0 1.67844,0.33856 3.43398,2.77036 2.31345,3.20462 4.41562,4.76497 7.54623,5.60123 2.6247,0.70111 6.10026,0.30265 8.67317,-0.99436 0.61403,-0.30953 2.6861,-2.11231 4.60461,-4.00617 l 3.4882,-3.4434 -1.19474,-1.2206 c -1.59408,-1.62858 -3.09253,-4.21871 -3.84402,-6.64456 -0.55697,-1.79793 -0.61455,-2.48157 -0.61287,-7.27604 0.002,-5.07248 0.0311,-5.37205 0.70888,-7.23228 0.95308,-2.616 2.16146,-4.56579 3.98389,-6.42826 0.8358,-0.85415 1.4057,-1.553 1.26646,-1.553 -0.67067,0 -3.70727,-3.29159 -4.57606,-4.96031 -1.34846,-2.59005 -1.51731,-3.81468 -1.51731,-11.00442 0,-8.15152 0.38831,-9.85561 2.94672,-12.93144 l 1.0374,-1.24721 -1.53227,-1.55624 c -2.63889,-2.68018 -3.76324,-5.85308 -3.76818,-10.63371 -0.003,-3.37184 0.38664,-5.61031 1.33258,-7.64628 0.43267,-0.93124 0.75484,-1.70515 0.71594,-1.7198 -2.43097,-0.91543 -3.95857,-2.48942 -8.00507,-8.24813 -4.0107,-5.70777 -4.85162,-7.39497 -5.08739,-10.20726 l -0.15609,-1.86183 -0.81907,0.16382 c -0.45049,0.0901 -2.00986,0.23611 -3.46526,0.32447 -4.90966,0.29809 -10.42547,-0.87783 -13.18505,-2.81092 l -1.40869,-0.98679 -0.6408,0.5273 c -1.09895,0.90428 -4.257353,2.27019 -6.329353,2.73724 -2.285159,0.5151 -8.975009,0.62581 -10.74631,0.17785 l -1.08902,-0.27541 -0.14507,1.91817 c -0.213805,2.82699 -1.011865,4.4606 -4.90879,10.04819 -3.531982,5.06432 -5.242306,6.9732 -7.102432,7.92698 -0.556326,0.28526 -1.051795,0.54383 -1.101043,0.57461 -0.04925,0.0308 0.293167,0.85786 0.760922,1.83795 0.685665,1.43668 0.90545,2.33854 1.134234,4.65416 0.610489,6.17904 -0.542515,10.4086 -3.697524,13.56361 l -1.494087,1.49408 0.683048,0.71702 c 1.226566,1.28755 2.531109,3.77232 2.951939,5.62257 0.486357,2.13835 0.587204,13.01854 0.142406,15.36395 -0.570865,3.01016 -2.829789,6.47223 -5.164437,7.91512 l -0.860634,0.5319 1.415549,1.4499 c 1.750286,1.79275 3.328089,4.43712 4.102209,6.87523 0.802206,2.52657 1.031942,9.58918 0.408807,12.56771 -0.561243,2.68269 -2.236455,5.98997 -3.997568,7.89219 l -1.432728,1.54751 3.494744,3.44988 c 1.922109,1.89743 3.997129,3.70312 4.611154,4.01265 2.659589,1.34071 6.182924,1.71112 8.823589,0.92764 3.292695,-0.97695 5.300834,-2.53541 7.728688,-5.99803 0.730107,-1.04128 1.560307,-1.90912 1.978372,-2.06807 1.748634,-0.66483 3.503982,0.54193 3.503982,2.4089 0,0.78751 -0.333297,1.45736 -1.63726,3.29053 -2.768487,3.89207 -5.612168,6.04975 -9.607531,7.28986 -2.366965,0.73467 -6.510561,0.93443 -8.73125,0.42092 z m -17.065624,-15.7252 c 2.903982,-1.12919 5.512067,-3.73443 6.662292,-6.65503 0.797861,-2.0259 1.014366,-8.59706 0.366567,-11.12566 -0.850144,-3.31844 -3.048349,-6.04483 -6.078863,-7.53949 -4.203796,-2.07334 -8.290728,-1.68963 -11.223627,1.05376 -2.66074,2.48881 -3.642993,6.11079 -3.412762,12.58431 0.197421,5.55097 1.296534,8.50846 3.964593,10.6679 2.264979,1.8332 6.483701,2.27331 9.7218,1.01421 z m 96.367158,-0.12521 c 2.84846,-1.39362 4.92831,-4.55165 5.52025,-8.3819 0.45473,-2.94248 0.17422,-8.94194 -0.52035,-11.12902 -1.58476,-4.9901 -5.80275,-7.65254 -10.84697,-6.84672 -4.45518,0.71171 -8.28157,4.19603 -9.4141,8.57247 -0.26654,1.03 -0.40808,2.77725 -0.40808,5.03764 0,5.13446 0.67284,7.26603 3.14863,9.97494 1.36645,1.49512 3.6923,2.92575 5.48148,3.37167 0.56495,0.1408 2.04884,0.22557 3.29753,0.18837 1.84535,-0.055 2.54576,-0.20238 3.74161,-0.78745 z M 64.195207,167.34769 c 0.735696,-0.34258 1.773488,-1.13208 2.306205,-1.75444 1.683844,-1.96719 1.82494,-2.80179 1.730852,-10.23816 -0.08086,-6.39081 -0.100185,-6.59526 -0.742265,-7.85253 -1.485355,-2.90849 -3.77266,-3.9791 -8.178958,-3.82828 -2.647906,0.0906 -2.976545,0.16405 -4.826542,1.07837 -2.459524,1.21556 -4.421035,3.2106 -5.596537,5.69218 l -0.847051,1.78819 v 5.42396 c 0,6.04914 0.124761,6.56518 2.027336,8.38555 1.7707,1.6942 2.717385,1.92121 8.02683,1.9248 4.449816,0.003 4.850323,-0.0377 6.10013,-0.61964 z m 93.515483,0.0781 c 1.45748,-0.65897 2.76858,-1.88002 3.52892,-3.28651 0.53342,-0.98674 0.57213,-1.42525 0.57213,-6.48229 v -5.42396 l -0.84706,-1.78819 c -1.16766,-2.46504 -3.13918,-4.47769 -5.55641,-5.67235 -1.77229,-0.87591 -2.1911,-0.97224 -4.71519,-1.0845 -1.72045,-0.0765 -3.19659,-0.004 -3.89553,0.19219 -1.70249,0.47711 -3.39822,1.84898 -4.3004,3.47908 l -0.79375,1.43419 -0.083,6.56165 c -0.0941,7.43637 0.047,8.27097 1.73085,10.23816 0.53272,0.62236 1.57051,1.41186 2.30621,1.75444 1.24981,0.58198 1.65031,0.62266 6.10013,0.61964 4.21875,-0.003 4.89844,-0.0647 5.95312,-0.54155 z M 64.490703,137.94675 c 1.674128,-0.49716 3.548238,-2.11813 4.363985,-3.77452 0.5578,-1.13262 0.617472,-1.61176 0.617472,-4.95796 0,-3.53119 -0.03498,-3.77541 -0.749203,-5.22989 -0.82964,-1.68953 -2.509491,-3.17472 -4.145101,-3.66476 -0.569027,-0.17049 -2.240633,-0.25109 -3.99517,-0.19265 -2.706638,0.0901 -3.193577,0.18427 -4.736567,0.91549 -3.846506,1.82286 -6.378906,5.40208 -6.575413,9.29349 -0.134672,2.66689 0.306874,4.06726 1.788778,5.67312 1.792686,1.94263 3.08791,2.31381 8.11205,2.32469 2.790319,0.006 4.386727,-0.11011 5.319169,-0.38701 z m 91.359007,-0.0231 c 1.04384,-0.30998 1.76448,-0.77384 2.77465,-1.78593 1.67255,-1.67575 2.12135,-3.02351 1.94127,-5.82965 -0.24868,-3.87496 -2.78774,-7.4911 -6.48665,-9.23833 -1.65603,-0.78224 -2.03914,-0.85387 -5.04083,-0.9425 -3.07842,-0.0909 -3.32377,-0.0591 -4.6842,0.60647 -2.78033,1.36029 -3.87425,3.4018 -4.05062,7.55946 -0.14857,3.50212 0.23584,5.46073 1.36324,6.9459 0.95059,1.25225 3.01476,2.48515 4.72497,2.82215 2.06262,0.40644 7.91282,0.32135 9.45817,-0.13757 z M 70.290229,115.19891 c 0.721044,-0.21413 1.730394,-0.77967 2.243001,-1.25677 0.935868,-0.87104 6.611016,-8.79206 7.540629,-10.52474 0.726379,-1.35388 0.683954,-4.27226 -0.08324,-5.72626 -1.904241,-3.608923 -6.663861,-4.665293 -9.709359,-2.154935 -1.227626,1.011915 -7.720319,9.432865 -8.266181,10.721155 -0.655597,1.54726 -0.532157,3.78998 0.302501,5.49596 1.506748,3.07968 4.642037,4.43468 7.972653,3.44559 z m 73.235141,0.0148 c 2.43245,-0.73206 4.08133,-2.63125 4.67081,-5.37988 0.51773,-2.41412 -0.0101,-3.55601 -4.10294,-8.8753 -1.96101,-2.54867 -3.99226,-4.98574 -4.51389,-5.415717 -2.31982,-1.912189 -5.75658,-1.842887 -8.10041,0.163347 -2.13581,1.82817 -2.91629,4.96833 -1.82971,7.36155 0.77164,1.69957 7.06161,10.49669 8.00259,11.19238 1.68386,1.24493 3.7766,1.58471 5.87355,0.95362 z M 96.734799,94.545802 c 2.111422,-0.542176 4.222181,-1.59162 4.877901,-2.425235 0.69353,-0.881677 0.70109,-2.444208 0.016,-3.3151 -0.5585,-0.710024 -2.507312,-1.647692 -4.639921,-2.232497 -4.823182,-1.322617 -12.324319,-0.186132 -14.40383,2.1823 -1.980437,2.255593 -0.184075,4.352875 4.861713,5.67613 2.391561,0.627185 7.066876,0.684772 9.288091,0.114402 z m 26.168781,-0.2708 c 3.28416,-0.889621 5.17016,-2.370483 5.17279,-4.061589 0.002,-1.588302 -3.14599,-3.332956 -7.25914,-4.022505 -5.08235,-0.85203 -11.745,0.832014 -12.93613,3.269722 -0.47003,0.961929 -0.47003,1.022374 0,1.982045 0.72041,1.470896 2.99627,2.583753 6.65776,3.255537 1.75081,0.321225 6.5044,0.08072 8.36472,-0.42321 z M 103.83016,200.25712 c -1.474,-0.59483 -1.9228,-2.96044 -0.7787,-4.10453 0.83423,-0.83424 1.82538,-1.06427 2.81658,-0.6537 1.07233,0.44417 1.57183,1.22401 1.57183,2.45398 0,1.8788 -1.80646,3.03195 -3.60971,2.30425 z m -19.164812,-22.47145 -0.773397,-0.7734 v -16.94014 c 0,-17.96622 0.09795,-19.81956 1.357686,-25.68803 1.150395,-5.35912 4.194966,-13.19649 6.340636,-16.32213 2.008836,-2.92632 4.957448,-5.1009 8.576097,-6.32483 1.69843,-0.57446 2.63436,-0.72065 4.75996,-0.74351 3.15868,-0.034 4.84396,0.33836 7.67291,1.69523 4.68567,2.24743 7.23967,5.68316 10.31755,13.87958 1.26722,3.37461 2.62169,8.72558 3.22457,12.739 0.41447,2.75909 0.47167,5.2135 0.47594,20.42145 l 0.005,17.28546 -0.89742,0.80216 c -0.77278,0.69074 -1.04461,0.78242 -1.95706,0.66003 -0.58279,-0.0782 -1.31005,-0.3924 -1.61611,-0.69828 -0.55126,-0.55094 -0.55794,-0.72196 -0.71116,-18.21008 -0.14456,-16.50063 -0.19177,-17.86132 -0.72262,-20.82891 -1.50291,-8.40159 -4.66746,-16.47586 -7.56367,-19.29849 -4.50074,-4.38641 -11.71341,-4.29408 -15.967893,0.2044 -2.815224,2.97669 -5.775788,10.44617 -7.377959,18.61454 -0.395961,2.01874 -0.477437,4.77565 -0.607133,20.54368 l -0.149799,18.21204 -0.86407,0.77181 c -1.180857,1.05477 -2.466128,1.05419 -3.521908,-0.002 z"
       id="path1" /></g></svg>
