<?xml version="1.0" encoding="UTF-8" standalone="no"?>
<!-- Created with Inkscape (http://www.inkscape.org/) -->

<svg
   version="1.1"
   id="svg1"
   width="187"
   height="180"
   viewBox="0 0 187 180"
   sodipodi:docname="logo-bianco.svg"
   inkscape:version="1.4 (86a8ad7, 2024-10-11)"
   xmlns:inkscape="http://www.inkscape.org/namespaces/inkscape"
   xmlns:sodipodi="http://sodipodi.sourceforge.net/DTD/sodipodi-0.dtd"
   xmlns="http://www.w3.org/2000/svg"
   xmlns:svg="http://www.w3.org/2000/svg">
  <defs
     id="defs1" />
  <sodipodi:namedview
     id="namedview1"
     pagecolor="#505050"
     bordercolor="#eeeeee"
     borderopacity="1"
     inkscape:showpageshadow="0"
     inkscape:pageopacity="0"
     inkscape:pagecheckerboard="0"
     inkscape:deskcolor="#505050"
     inkscape:zoom="6.4833333"
     inkscape:cx="93.470437"
     inkscape:cy="90"
     inkscape:window-width="3440"
     inkscape:window-height="1369"
     inkscape:window-x="2552"
     inkscape:window-y="142"
     inkscape:window-maximized="1"
     inkscape:current-layer="g1" />
  <g
     inkscape:groupmode="layer"
     inkscape:label="Image"
     id="g1">
    <path
       style="fill:#000000"
       d="m 59.51284,151.20758 c -7.646653,-5.32839 -13.365984,-15.32716 -18.081381,-31.61062 -2.20432,-7.61207 -4.387788,-12.5199 -8.230555,-18.5 C 23.908479,86.636127 23.530281,85.720531 22.250915,74.58767 19.472981,50.414489 26.673863,40.001844 47.298201,38.368701 58.745115,37.462275 64.805119,35.56209 72.917549,30.335455 c 15.783138,-10.168678 29.324161,-6.853043 40.383621,9.888274 1.49703,2.266146 1.49703,2.266146 9.49703,-1.206154 34.36132,-14.914098 60.36695,2.447595 53.38541,35.640788 -4.27409,20.320864 -24.12701,36.648527 -33.34859,27.426947 -8.72251,-8.722507 -4.00407,-40.598487 6.01318,-40.622759 4.80648,-0.01165 5.43435,3.272651 2.44728,12.801404 -7.35835,23.473208 -0.67655,34.337685 10.70873,17.412182 16.13085,-23.980333 7.7038,-54.218553 -15.1101,-54.218553 -8.84146,0 -29.59591,6.256105 -29.59591,8.921222 0,0.356453 0.93903,3.319811 2.08674,6.58524 1.44277,4.104958 2.34541,10.111909 2.92497,19.465341 0.71403,11.523646 1.31147,14.787691 4.03203,22.028197 5.54074,14.746186 5.45614,33.653966 -0.17578,39.285886 -5.62215,5.62214 -8.4096,4.16408 -27.670669,-14.47403 -13.826609,-13.37942 -17.923946,-13.70286 -18.384531,-1.45126 -1.820405,48.42295 78.67885,32.5994 92.81468,-18.244364 2.4228,-8.714355 9.37256,-11.771288 9.37256,-4.122634 0,44.464228 -77.81159,73.116818 -101.03561,37.204378 -3.227632,-4.99105 -3.292098,-4.93528 -4.972908,4.30202 -2.224424,12.22486 -4.930461,16.5 -10.444015,16.5 -1.707148,0 -4.55692,-1.0125 -6.332827,-2.25 z m 10.254924,-5 c 0.790464,-1.7875 2.838423,-10.675 4.55102,-19.75 1.712598,-9.075 3.748623,-17.48148 4.524501,-18.68106 1.985976,-3.07053 -20.696981,-18.318936 -27.250549,-18.318936 -0.711994,0 -1.294535,-0.45 -1.294535,-1 0,-1.323126 -0.306849,-1.376364 9.198378,1.595891 17.121561,5.353858 26.452615,11.290875 43.462041,27.653355 8.43368,8.11292 15.71548,14.75075 16.18179,14.75075 3.51769,0 6.85518,-12.30419 5.69621,-21 -1.71159,-12.842194 -5.43157,-22.638712 -8.19396,-21.578682 -5.51371,2.115807 -6.95008,1.801382 -3.84446,-0.84156 1.65,-1.40418 3.03734,-3.571562 3.08298,-4.816404 0.0456,-1.244843 0.4151,-5.41335 0.82102,-9.26335 3.2835,-31.143051 -20.042689,-55.091679 -40.608754,-41.69236 -8.531587,5.558548 -16.295104,8.078475 -27.91588,9.061096 -6.598026,0.557912 -10.719058,1.437568 -13.014061,2.777922 -20.396986,11.912481 -6.521854,63.221878 17.134696,63.363078 4.861746,0.029 2.024612,1.75086 -4.299711,2.60948 -4.75804,0.64597 -4.793876,0.67867 -4.127671,3.76621 4.880829,22.62025 21.085106,42.24574 25.896945,31.36457 z"
       id="path1" />
    <path
       style="fill:#ffffff;stroke-width:0.154242"
       d="m 64.782011,149.12387 c -1.480575,-0.31045 -3.769345,-1.81367 -5.710789,-3.75075 -6.056532,-6.0429 -11.762283,-17.13978 -14.592761,-28.38083 -1.048255,-4.16308 -1.048855,-4.73034 -0.0055,-5.16629 0.269115,-0.11245 1.699862,-0.38988 3.179437,-0.61651 4.488736,-0.68758 6.969091,-1.45175 7.072882,-2.1791 0.06206,-0.43494 -0.20086,-0.49816 -2.789443,-0.67071 -3.375758,-0.22503 -5.941196,-1.01893 -8.675454,-2.6847 -9.010176,-5.48923 -16.151594,-19.086967 -17.669614,-33.644132 -0.232836,-2.232802 -0.2316,-7.294827 0.0023,-9.331619 0.751536,-6.544944 2.947596,-11.630482 6.544487,-15.155431 3.238169,-3.173401 6.317575,-4.16945 15.83158,-5.120802 4.587354,-0.458713 5.525208,-0.583048 8.329049,-1.104216 7.163063,-1.331446 12.739118,-3.53229 19.188798,-7.573735 3.396136,-2.128058 5.843925,-3.18524 8.883181,-3.83658 1.80827,-0.387529 5.714156,-0.394289 7.61017,-0.01317 11.172946,2.245876 20.459756,13.201422 23.754096,28.022444 1.18401,5.326766 1.46333,10.845436 0.86707,17.130802 -0.1725,1.818418 -0.44002,4.768282 -0.59448,6.555253 -0.252,2.915358 -0.32398,3.335136 -0.70086,4.087403 -0.60329,1.204208 -1.4658,2.292852 -2.63466,3.32543 -0.56085,0.495458 -1.16591,1.137373 -1.34459,1.426476 -0.31915,0.516397 -0.31966,0.529504 -0.029,0.745054 0.4181,0.310039 1.28545,0.154257 3.74503,-0.672633 1.8305,-0.615399 2.11138,-0.672003 2.51172,-0.506176 1.62232,0.671986 3.6604,4.995574 5.19417,11.018932 1.42635,5.60152 2.18532,10.563 2.18623,14.29176 0.002,7.68223 -2.47994,15.71441 -5.21905,16.89093 -0.50449,0.2167 -0.53242,0.20816 -1.3291,-0.40648 -1.6329,-1.25977 -7.33887,-6.50141 -14.19341,-13.03842 C 90.287787,105.50451 83.592228,100.36094 74.190231,95.717346 69.44387,93.373144 65.427683,91.841389 57.538339,89.366388 c -4.686247,-1.470142 -6.186423,-1.871271 -6.7541,-1.805956 -0.377617,0.04345 -0.42947,0.119076 -0.470915,0.686851 -0.06371,0.87279 0.375595,1.211293 1.736994,1.338422 4.772002,0.445617 17.916914,8.104927 24.095936,14.040285 1.643888,1.57906 2.671227,2.92312 2.671227,3.49476 0,0.18328 -0.199971,0.90031 -0.444381,1.59339 -0.963725,2.73288 -2.449026,9.12308 -4.182734,17.99537 -1.736757,8.88788 -3.209055,15.43119 -4.129902,18.35444 -0.811496,2.57613 -2.187415,3.98542 -3.992127,4.08896 -0.495684,0.0284 -1.074529,0.0154 -1.286326,-0.029 z"
       id="path2" />
  </g>
</svg>
