<?xml version="1.0" encoding="UTF-8" standalone="no"?>
<!-- Created with Inkscape (http://www.inkscape.org/) -->

<svg
   version="1.1"
   id="svg1"
   width="167.67999"
   height="43.84"
   viewBox="0 0 167.67999 43.84"
   sodipodi:docname="intestazione-fanelli-negativo.svg"
   inkscape:version="1.4 (86a8ad7, 2024-10-11)"
   xmlns:inkscape="http://www.inkscape.org/namespaces/inkscape"
   xmlns:sodipodi="http://sodipodi.sourceforge.net/DTD/sodipodi-0.dtd"
   xmlns="http://www.w3.org/2000/svg"
   xmlns:svg="http://www.w3.org/2000/svg">
  <defs
     id="defs1" />
  <sodipodi:namedview
     id="namedview1"
     pagecolor="#505050"
     bordercolor="#eeeeee"
     borderopacity="1"
     inkscape:showpageshadow="0"
     inkscape:pageopacity="0"
     inkscape:pagecheckerboard="0"
     inkscape:deskcolor="#505050"
     inkscape:zoom="19.656489"
     inkscape:cx="83.839996"
     inkscape:cy="21.901164"
     inkscape:window-width="3440"
     inkscape:window-height="1369"
     inkscape:window-x="2552"
     inkscape:window-y="142"
     inkscape:window-maximized="1"
     inkscape:current-layer="g1" />
  <g
     inkscape:groupmode="layer"
     inkscape:label="Image"
     id="g1">
    <path
       style="fill:#ffffff;fill-opacity:1"
       d="m 20.455384,42.584616 c -2.706745,-2.706746 0.926377,-8.695853 5.335304,-8.795109 1.494438,-0.03364 2.369311,0.534441 2.369311,1.538473 0,1.597397 -2.02237,3.077592 -5.109429,3.739648 -1.339924,0.287362 -1.610571,0.463419 -1.610571,1.047687 0,2.123959 2.403399,2.821823 4.595345,1.334329 1.292472,-0.877095 1.564248,-0.646582 0.444655,0.377144 -2.097209,1.917633 -4.555575,2.226867 -6.024615,0.757828 z m 3.154893,-4.361591 c 1.4512,-0.606201 2.949722,-1.989905 2.949722,-2.723712 0,-0.993407 -0.836235,-1.388223 -1.957022,-0.923978 -1.105039,0.457722 -2.842978,2.629507 -2.842978,3.552677 0,0.721236 0.312706,0.737294 1.850278,0.09501 z m 6.277627,5.052075 c -1.891769,-1.263168 -1.191414,-5.091591 1.406725,-7.68973 1.651737,-1.651737 3.236483,-2.206292 4.501495,-1.575221 l 0.919453,0.458683 0.590933,-2.373058 c 0.50456,-2.026203 0.524656,-2.414019 0.137489,-2.653301 C 37.194605,29.288339 36.87568,29.233226 36.735277,29.32 c -0.140403,0.08677 -0.255279,0.01626 -0.255279,-0.156707 0,-0.274577 3.177069,-1.01168 3.471319,-0.805371 0.06123,0.04293 -0.775631,3.127099 -1.859682,6.853714 -1.084051,3.726616 -1.889577,6.85709 -1.790057,6.95661 0.09952,0.09952 0.539808,-0.156191 0.97842,-0.568246 1.283905,-1.206165 1.276906,-0.498239 -0.0078,0.786442 -0.767796,0.767796 -1.408116,1.136577 -1.861333,1.072 C 34.815404,43.373594 34.723496,43.16115 34.745328,41.92 l 0.02533,-1.44 -1.499615,1.52 c -1.448374,1.468062 -2.500354,1.864552 -3.383139,1.2751 z m 3.594503,-2.223712 c 1.268838,-1.385247 2.677591,-4.063951 2.677591,-5.091361 0,-0.795335 -0.773236,-1.720027 -1.438305,-1.720027 -1.426387,0 -4.001694,3.912057 -4.001694,6.07883 0,2.194194 1.145385,2.497936 2.762408,0.732558 z m 6.852989,2.007165 c -0.302928,-0.365006 -0.177359,-1.187325 0.600817,-3.934583 0.541082,-1.910225 0.983785,-3.651214 0.983785,-3.868865 0,-0.217651 -0.324,-0.517051 -0.72,-0.665334 -0.601972,-0.22541 -0.431488,-0.318808 1.04,-0.569752 0.968,-0.165081 1.793281,-0.281836 1.833958,-0.259458 0.04068,0.02238 -0.448604,1.870127 -1.087291,4.106106 -0.638688,2.235979 -1.067401,4.159265 -0.952697,4.27397 0.114705,0.114704 0.567418,-0.128582 1.00603,-0.540637 0.438612,-0.412054 0.892172,-0.654495 1.007911,-0.538756 0.314962,0.314962 -2.084088,2.458756 -2.751513,2.458756 -0.317918,0 -0.750368,-0.207651 -0.961,-0.461447 z m 6.821108,0.08718 c -1.535825,-0.743659 -1.838607,-3.433972 -0.642711,-5.71068 1.304004,-2.48252 4.73515,-4.287256 6.717781,-3.533462 C 54.757871,34.481887 54.637297,36.8 53.080815,36.8 c -0.669555,0 -0.820783,-0.932035 -0.2447,-1.508118 0.496076,-0.496075 0.0693,-1.051882 -0.80768,-1.051882 -2.960376,0 -5.815209,6.038386 -3.674406,7.771903 0.970591,0.785937 2.444652,0.566767 3.959585,-0.588729 1.241548,-0.946975 1.549238,-0.641382 0.406384,0.403614 -1.691924,1.547051 -3.974727,2.088237 -5.563494,1.318943 z m 8.736827,0.160936 c -0.387847,-0.387847 -0.224193,-1.413884 0.769714,-4.825786 0.789866,-2.711462 0.899913,-3.427635 0.56,-3.64439 -0.232676,-0.148372 -0.603047,-0.2038 -0.823047,-0.123173 -0.22,0.08063 -0.4,0.0181 -0.4,-0.138953 0,-0.352805 3.320567,-0.926071 3.462267,-0.597729 0.08668,0.200851 -1.635866,6.658615 -2.097477,7.863364 -0.261288,0.681931 0.811342,0.439371 1.329704,-0.300694 0.269932,-0.385381 0.601609,-0.589869 0.737061,-0.454417 0.135452,0.135452 -0.291122,0.738764 -0.947941,1.340693 -1.124631,1.030649 -2.106675,1.364691 -2.590281,0.881085 z m 13.642201,-0.413712 c -4.011442,-2.445919 -2.133106,-10.073321 3.239557,-13.154944 1.34673,-0.772449 1.990488,-0.932519 3.760356,-0.935008 1.812627,-0.0025 2.27896,0.117755 3.084777,0.795805 1.342254,1.129433 2.083119,3.142632 1.822339,4.951955 -0.295816,2.052398 -1.594591,4.758458 -2.979288,6.207487 -2.449053,2.562834 -6.598407,3.554983 -8.927741,2.134705 z m 5.619723,-0.941096 c 1.937725,-1.379782 4.204742,-6.078991 4.204742,-8.715844 0,-1.302388 -0.780363,-3.037358 -1.551873,-3.450258 -0.996869,-0.533508 -2.660944,-0.408717 -3.79845,0.28485 -2.755071,1.679841 -5.176875,7.599956 -4.253518,10.397754 0.789499,2.392207 3.194791,3.053104 5.399099,1.483498 z m 7.427967,0.724986 c -0.864861,-1.099492 -0.834421,-2.455763 0.100161,-4.462846 1.492721,-3.205726 4.687548,-5.309457 6.379555,-4.200811 l 0.77195,0.505801 0.636124,-2.299495 c 0.646753,-2.337913 0.499398,-3.325457 -0.442284,-2.9641 -0.235803,0.09049 -0.428732,0.03855 -0.428732,-0.115409 0,-0.303063 3.139085,-0.827566 3.39876,-0.567892 0.08678,0.08678 -0.714661,3.14934 -1.780982,6.805685 -1.066322,3.656345 -1.865977,6.72069 -1.777011,6.809656 0.08897,0.08897 0.520621,-0.175379 0.959233,-0.587434 1.276582,-1.199287 1.323276,-0.459276 0.05128,0.812719 -0.786599,0.786599 -1.386044,1.121133 -1.882666,1.050666 -0.638814,-0.09064 -0.724685,-0.278115 -0.696733,-1.52108 l 0.03188,-1.417696 -0.705654,0.884974 c -0.925639,1.160862 -2.384274,2.105674 -3.254884,2.108309 -0.383226,0.0012 -0.995226,-0.377312 -1.36,-0.841047 z m 4.068676,-1.632312 c 1.317165,-1.396603 2.620504,-4.02386 2.624972,-5.291393 0.0047,-1.333513 -1.310286,-1.850762 -2.486119,-0.977913 C 84.082126,36.785903 82.803968,42.24 85.041394,42.24 c 0.265668,0 0.990395,-0.53796 1.610504,-1.195467 z m 7.45265,1.647021 c -0.888821,-0.747894 -0.984552,-1.007032 -0.984552,-2.665138 0,-1.49926 0.173771,-2.099038 0.945862,-3.264683 1.80571,-2.726125 5.465469,-3.844522 7.211842,-2.203888 2.19873,2.065594 0.70997,6.573485 -2.754658,8.341008 -1.711034,0.872904 -3.218815,0.802165 -4.418494,-0.207299 z m 4.302722,-0.917291 c 1.96275,-2.081123 2.73536,-6.073843 1.361524,-7.036118 -0.997244,-0.698496 -1.352619,-0.633279 -2.621894,0.481159 -1.951209,1.713185 -3.04813,5.803855 -1.897308,7.075499 0.827011,0.913837 1.984909,0.722958 3.157678,-0.52054 z m 10.89244,1.167838 c -0.10088,-0.317845 0.24941,-2.119361 0.77843,-4.003368 0.52902,-1.884008 0.96186,-3.495953 0.96186,-3.582101 0,-0.08615 -0.27092,-0.156632 -0.60203,-0.156632 -1.27502,0 -3.99805,3.721611 -4.85836,6.64 -0.32388,1.098681 -0.5449,1.36 -1.15027,1.36 -0.94438,0 -0.93769,-0.127112 0.21066,-4 1.22699,-4.138122 1.21919,-4.56303 -0.08,-4.357895 -0.132,0.02084 -0.24,-0.08203 -0.24,-0.228599 0,-0.146571 0.792,-0.410049 1.76,-0.585505 1.84582,-0.334567 1.92766,-0.284412 1.48685,0.911167 -0.15023,0.407458 -0.37603,1.172832 -0.50178,1.700832 -0.20928,0.878686 -0.0919,0.807232 1.38628,-0.843588 1.67099,-1.866199 2.95505,-2.501837 3.73925,-1.851009 0.64267,0.533366 0.56308,1.496574 -0.40764,4.933111 -0.89122,3.155109 -0.8079,4.064262 0.25258,2.756154 0.34125,-0.420933 0.70806,-0.677733 0.81512,-0.570667 0.32858,0.328574 -2.02502,2.455999 -2.7171,2.455999 -0.35774,0 -0.73297,-0.260055 -0.83385,-0.577899 z m 5.79362,0.364566 c -0.42803,-0.428027 -0.18177,-2.255889 0.71305,-5.292537 0.50336,-1.708229 0.83685,-3.184229 0.74108,-3.28 -0.0958,-0.09577 -0.47413,-0.179895 -0.8408,-0.186942 -0.5549,-0.01066 -0.50572,-0.095 0.29333,-0.503046 0.528,-0.269629 1.51491,-1.091863 2.19312,-1.827188 l 1.23311,-1.336954 -0.20831,0.96 c -0.11457,0.528 -0.28317,1.212 -0.37468,1.52 -0.12807,0.43112 0.0227,0.56 0.6552,0.56 0.45186,0 0.82156,0.144 0.82156,0.32 0,0.176 -0.3515,0.32 -0.78111,0.32 -0.98458,0 -0.97652,-0.01455 -2.13337,3.852338 -1.16646,3.899009 -1.1352,4.72377 0.12805,3.377506 0.48003,-0.511585 0.97887,-0.824073 1.10853,-0.694417 0.12965,0.129656 -0.30166,0.728226 -0.95848,1.330155 -1.12463,1.030649 -2.10668,1.364691 -2.59028,0.881085 z m 6.44996,-0.704116 c -0.91084,-0.81383 -1.02403,-1.101664 -1.0022,-2.548494 0.0497,-3.292222 2.91308,-6.240724 6.06063,-6.240724 4.6213,0 4.0724,6.763983 -0.74583,9.190842 -1.60015,0.805966 -3.11943,0.664479 -4.3126,-0.401624 z m 3.8314,-0.224827 c 1.00134,-0.701362 2.30651,-3.413331 2.52319,-5.242815 0.15228,-1.285741 0.0713,-1.645675 -0.49803,-2.215056 -0.88796,-0.887961 -1.37962,-0.857504 -2.58934,0.1604 -2.0619,1.734982 -3.26388,5.86319 -2.08607,7.164655 0.69172,0.764342 1.67805,0.813772 2.65025,0.132816 z m 6.24874,0.630251 c -0.10807,-0.281614 0.2636,-2.155795 0.82593,-4.164848 0.56233,-2.009052 0.92701,-3.807186 0.81041,-3.995852 -0.1166,-0.188667 -0.48375,-0.271967 -0.81589,-0.185111 -0.33214,0.08686 -0.60389,0.0454 -0.60389,-0.09212 0,-0.277478 1.58186,-0.650042 2.76,-0.650042 0.95602,0 0.94993,0.121783 -0.2,4 -1.30519,4.401875 -1.26792,5.021461 0.21812,3.625405 0.40665,-0.382027 0.81573,-0.618222 0.90908,-0.524876 0.0933,0.09334 -0.4105,0.693913 -1.11966,1.334595 -1.3705,1.238162 -2.46134,1.493957 -2.7841,0.652851 z m 6.42447,0.267125 c -2.50219,-1.670758 0.20612,-8.145221 3.91991,-9.370881 0.91153,-0.300832 1.23622,-0.270348 1.9246,0.180702 0.47867,0.313633 0.91238,0.415226 1.02784,0.240763 0.29112,-0.439897 1.63974,-0.722392 1.63974,-0.343477 0,0.260274 -0.81662,3.225552 -2.11993,7.697793 -0.23196,0.795977 0.73047,0.722466 1.16473,-0.08896 0.19102,-0.35693 0.50726,-0.55011 0.70275,-0.429289 0.22337,0.138045 -0.0862,0.624445 -0.83319,1.308973 -1.53155,1.403562 -2.52801,1.335739 -2.75436,-0.187473 l -0.16,-1.076751 -0.63924,0.709512 c -1.17793,1.307411 -2.99517,1.945132 -3.87285,1.35909 z m 3.55981,-2.044802 c 2.04793,-1.798104 3.15502,-4.935798 2.21504,-6.277809 -0.64389,-0.919283 -1.15251,-0.89857 -2.33332,0.09502 -1.9357,1.628781 -3.28305,5.750874 -2.22544,6.80849 0.59878,0.598778 1.10218,0.464385 2.34372,-0.625701 z m 6.85767,1.792099 c -0.34262,-0.412842 -0.23943,-1.135084 0.60584,-4.24 0.56035,-2.058318 1.01656,-3.840382 1.0138,-3.960141 -0.003,-0.119759 -0.32903,-0.274051 -0.72503,-0.342872 -0.70652,-0.122787 -0.70441,-0.131705 0.11299,-0.476461 0.45814,-0.193233 1.35725,-0.963825 1.99803,-1.712428 1.25933,-1.471241 1.70068,-1.528958 1.17794,-0.154043 -0.48925,1.286809 -0.40262,1.783548 0.31104,1.783548 0.352,0 0.64,0.144 0.64,0.32 0,0.176 -0.35128,0.32 -0.78063,0.32 -0.7044,0 -0.86221,0.273446 -1.61588,2.8 -0.45939,1.54 -0.9721,3.217488 -1.13937,3.727752 -0.38089,1.161945 -0.38152,1.152248 0.0753,1.152248 0.20866,0 0.71209,-0.312568 1.11874,-0.694595 1.22191,-1.147931 1.23704,-0.376565 0.0166,0.843928 -1.21642,1.216421 -2.15045,1.426902 -2.80928,0.633064 z m 14.41017,0.01225 c -0.32943,-0.396941 -0.21327,-1.149425 0.63767,-4.130928 0.57226,-2.005066 0.9434,-3.802658 0.82474,-3.994648 -0.11866,-0.19199 -0.53124,-0.36611 -0.91685,-0.386934 -0.96098,-0.05189 0.84493,-0.512188 2.21388,-0.564278 l 0.99499,-0.03786 -1.13416,3.994166 c -0.62379,2.196792 -1.03497,4.09336 -0.91373,4.214596 0.12123,0.121235 0.57929,-0.116707 1.0179,-0.528762 1.27288,-1.195808 1.28249,-0.503823 0.0107,0.768 -1.23545,1.235449 -2.09015,1.443773 -2.73511,0.666649 z M 1.2797433,42.639503 C 2.3732759,42.093097 2.4382641,41.948916 4.0560881,36.48 4.9672189,33.4 5.7233343,30.64 5.7363446,30.346667 5.7496866,30.045856 5.3763382,29.669003 4.8799998,29.482285 4.130309,29.200257 4.2842051,29.160769 5.9192859,29.215618 l 1.919286,0.06438 0.5426837,4.8 c 0.2984761,2.64 0.5507973,5.052 0.5607139,5.36 0.00992,0.308 0.1260301,0.554458 0.2580301,0.547684 0.132,-0.0068 1.9680004,-2.450739 4.0799994,-5.431033 l 3.84,-5.418716 1.92,0.03461 c 1.056,0.01904 1.611038,0.09504 1.233418,0.16891 -1.209385,0.236561 -1.632438,1.106592 -3.315527,6.818544 -1.734409,5.886121 -1.754161,6.350456 -0.287606,6.760825 0.423343,0.118459 -0.670285,0.22951 -2.430285,0.24678 l -3.199999,0.0314 1.119999,-0.559503 c 1.080355,-0.539698 1.167918,-0.723748 2.473688,-5.199503 0.744529,-2.552 1.320529,-4.738501 1.28,-4.858892 -0.04053,-0.12039 -1.801688,2.216505 -3.913688,5.1931 C 9.8879996,40.750804 8.0474802,43.189305 7.9099565,43.1931 7.5311306,43.203554 7.4592213,42.801255 6.865359,37.349066 6.5627726,34.571052 6.2588092,32.354524 6.1898846,32.423449 c -0.2577522,0.257752 -2.6610361,8.724328 -2.66537,9.389884 -0.00304,0.467296 0.2823788,0.798116 0.8754852,1.014737 0.7229599,0.264048 0.423156,0.325823 -1.6799999,0.34617 L 0.15999999,43.19901 Z M 154.75957,39.641246 c 1.27692,-4.205993 1.31183,-4.695219 0.36042,-5.051475 -0.60197,-0.22541 -0.43149,-0.318808 1.04,-0.569752 0.968,-0.165081 1.79865,-0.276466 1.8459,-0.247524 0.0472,0.02894 -0.20291,0.973971 -0.55588,2.100064 -0.35297,1.126093 -0.64362,2.0979 -0.64589,2.159573 -0.002,0.06167 0.56685,-0.647764 1.2647,-1.576524 1.34592,-1.791248 2.97362,-3.040194 3.52115,-2.701802 0.18151,0.112181 0.33002,0.6224 0.33002,1.133821 0,1.1585 -1.0756,1.900786 -1.5433,1.065051 -0.16453,-0.293996 -0.50975,-0.450093 -0.77247,-0.349279 -0.76494,0.293536 -3.05851,3.971871 -3.65347,5.859288 C 155.46608,43.000267 155.30402,43.2 154.54113,43.2 h -0.86199 z M 43.263998,31.296 c -0.560437,-0.560437 -0.470432,-1.147225 0.233777,-1.524107 0.466324,-0.249569 0.740902,-0.2075 1.12,0.171599 0.276223,0.276222 0.502223,0.607137 0.502223,0.735365 0,0.35486 -0.723011,1.001143 -1.12,1.001143 -0.1936,0 -0.5248,-0.1728 -0.736,-0.384 z m 15.509333,0.170667 c -0.412676,-0.412676 -0.207444,-1.640454 0.307226,-1.837951 0.646889,-0.248235 1.39944,0.341264 1.39944,1.09623 0,0.733394 -1.195449,1.252938 -1.706666,0.741721 z m 76.026659,0.0051 c -0.59678,-0.246304 -0.48287,-1.324883 0.17725,-1.678166 0.79253,-0.42415 1.42089,0.04287 1.29075,0.959333 -0.1068,0.752094 -0.6925,1.038893 -1.468,0.718833 z m 31.024,-0.175753 c -0.56043,-0.560437 -0.47043,-1.147225 0.23378,-1.524107 0.87838,-0.470095 1.76042,0.411949 1.29033,1.29033 -0.37688,0.704209 -0.96367,0.794214 -1.52411,0.233777 z M 5.1432254,18.996845 C 3.7266175,17.19592 4.5655345,13.036358 6.9040555,10.266207 9.0271001,7.7513031 12.382459,6.5933433 13.808131,7.8835582 14.469126,8.4817511 14.345806,8.6937709 15.342545,5.2454999 16.264028,2.0575775 16.226053,1.6 15.039999,1.6 c -1.7658,0 -0.985613,-0.5778547 1.300897,-0.96352461 1.243492,-0.20974224 2.319785,-0.32245988 2.391762,-0.25048364 0.07198,0.0719762 -1.017427,4.06902565 -2.420897,8.88233205 -1.403469,4.8133062 -2.551762,8.8010132 -2.551762,8.8615712 0,0.38482 0.90177,-0.02095 1.659152,-0.746566 0.491795,-0.471169 1.002469,-0.748375 1.134832,-0.616012 0.132362,0.132362 -0.443716,0.887277 -1.280173,1.677587 -1.170509,1.105933 -1.722731,1.413683 -2.397321,1.336012 -0.841885,-0.09693 -0.875214,-0.170666 -0.84418,-1.867626 l 0.03231,-1.766709 -1.84671,1.846709 C 8.5833932,19.627806 8.2238502,19.84 7.0888253,19.84 6.0845981,19.84 5.6625974,19.65712 5.1432254,18.996845 Z M 10.390736,16.792446 C 13.091691,14.013368 14.488728,9.97563 13.230403,8.585197 12.340361,7.6017114 11.223612,7.8608603 9.7573435,9.3911428 8.1093249,11.11111 6.98261,13.379538 6.7922326,15.360834 c -0.3053029,3.177347 1.286406,3.810585 3.5985034,1.431612 z m 10.051335,2.566566 c -0.46086,-0.25045 -1.07286,-0.950448 -1.36,-1.555549 C 17.07067,13.56475 21.481554,7.36 26.506206,7.36 c 1.7561,0 2.945991,0.71656 3.740186,2.2523636 1.466411,2.8357254 -0.857811,7.8310704 -4.453505,9.5717154 -1.583105,0.766368 -4.110457,0.848994 -5.350816,0.174933 z m 4.791611,-1.275237 C 27.894907,15.679518 29.289591,10.01261 27.564548,8.6129538 27.14905,8.2758292 26.465465,8 26.04547,8 c -1.951171,0 -4.790275,4.291412 -5.143756,7.77498 -0.140652,1.386134 -0.05223,1.812417 0.527893,2.54502 0.990111,1.25035 2.24486,1.172433 3.804075,-0.236225 z m 7.93965,1.542892 C 32.723095,19.17643 33.000174,17.279263 34.054996,13.58989 35.551369,8.3561384 35.539627,8.5357026 34.399998,8.3139467 L 33.439999,8.127144 34.765706,7.4345634 c 0.729138,-0.3809194 1.910239,-1.3764257 2.624668,-2.2122363 0.71443,-0.8358106 1.372581,-1.4460375 1.462558,-1.3560597 0.08998,0.089978 -0.04712,0.8637627 -0.304669,1.7195221 C 37.925913,7.6537027 37.932088,7.68 39.039998,7.68 c 0.528,0 0.96,0.144 0.96,0.32 0,0.176 -0.497902,0.32 -1.106449,0.32 -1.233721,0 -0.95117,-0.6276152 -3.169387,7.04 -0.921595,3.185638 -0.694475,3.800776 0.850448,2.303377 1.925973,-1.866726 2.127322,-1.10141 0.225744,0.858037 -0.995028,1.025308 -1.51697,1.318586 -2.346667,1.318586 -0.586862,0 -1.163022,-0.096 -1.280355,-0.213333 z m 7.68,0 c -0.443493,-0.443493 -0.174003,-2.077465 1.066666,-6.467416 0.704,-2.491014 1.28,-4.5897734 1.28,-4.6639092 0,-0.074136 -0.468,-0.1831858 -1.04,-0.2423334 l -1.04,-0.107541 1.129766,-0.5070594 C 43.326036,7.1553573 44.324593,6.2451736 45.714832,4.48 46.601609,3.3540684 46.801899,3.7882714 46.244034,5.6272393 45.615422,7.6994233 45.610918,7.68 46.719998,7.68 c 0.528,0 0.96,0.144 0.96,0.32 0,0.176 -0.484332,0.32 -1.076294,0.32 H 45.52741 l -1.193412,4.05908 c -1.865555,6.345202 -1.858561,7.34772 0.03643,5.22092 0.47045,-0.528 0.975561,-0.96 1.122468,-0.96 0.557139,0 0.225011,0.657301 -0.963347,1.906526 C 43.55076,19.575446 43.070797,19.84 42.182882,19.84 c -0.613918,0 -1.212214,-0.096 -1.329547,-0.213333 z m 8.988478,-0.3482 C 46.382099,17.133342 48.156493,10.513042 52.825247,8.1472052 54.673701,7.2105225 56.919593,7.1109205 58.265453,7.90594 c 3.578267,2.113734 1.669709,9.187507 -3.058354,11.335315 -1.629034,0.740019 -4.202993,0.757871 -5.365289,0.03721 z m 4.831871,-1.194692 C 57.334906,15.679518 58.72959,10.01261 57.004547,8.6129538 55.895217,7.7128719 54.878709,7.8582799 53.486314,9.1162247 50.79805,11.54491 49.412541,17.174899 51.155449,18.587652 c 1.109621,0.899429 2.126074,0.753854 3.518232,-0.503877 z m 18.819649,1.542892 c -0.434449,-0.434449 -0.181549,-1.876817 1.075784,-6.13554 1.151463,-3.9001318 1.2353,-4.4057317 0.785127,-4.734906 -0.277194,-0.2026893 -0.785296,-0.2949625 -1.129117,-0.2050515 -0.34382,0.089911 -0.625127,0.01569 -0.625127,-0.164935 0,-0.3358217 4.396456,-1.2164444 4.676237,-0.9366635 0.08495,0.084945 -0.500458,2.4359569 -1.300896,5.224471 -0.800438,2.788515 -1.455341,5.181611 -1.455341,5.317992 0,0.51091 0.794936,0.219266 1.659152,-0.608705 0.491794,-0.471169 1.002468,-0.748375 1.134831,-0.616012 0.132362,0.132362 -0.433753,0.877864 -1.258035,1.656671 C 75.994722,19.426664 75.287156,19.84 74.631957,19.84 c -0.508911,0 -1.021294,-0.096 -1.138627,-0.213333 z m 32.03926,-0.125249 c -1.35609,-0.790561 -1.31573,-4.31024 0.0808,-7.047678 0.89087,-1.746239 2.952,-3.9494902 4.28767,-4.5833065 1.53288,-0.7273974 3.27538,-0.6675621 3.7732,0.1295665 0.46395,0.742903 0.88573,0.835398 0.88573,0.1942364 0,-0.2451699 0.22778,-0.5331699 0.50618,-0.64 0.71225,-0.2733156 1.73382,-0.2416581 1.73382,0.053729 0,0.1363811 -0.65205,2.5195656 -1.44901,5.2959656 -0.79696,2.776399 -1.35673,5.197329 -1.24393,5.379844 0.12106,0.195873 0.63444,-0.0843 1.25294,-0.683775 1.44244,-1.398061 1.68433,-0.712887 0.26443,0.748979 -1.16758,1.202077 -2.15275,1.641875 -3.19911,1.428136 -0.48246,-0.09855 -0.57511,-0.398757 -0.52726,-1.708338 l 0.0581,-1.588777 -0.85806,0.994653 c -1.81554,2.104558 -4.04151,2.915186 -5.56546,2.026765 z m 4.85487,-2.408165 C 113.71215,14.089598 114.77735,8 111.97806,8 c -0.91394,0 -3.11767,2.142092 -4.00482,3.892808 -0.42738,0.84338 -0.93327,2.261841 -1.1242,3.152134 -0.29092,1.356518 -0.2635,1.746381 0.16928,2.406886 0.7373,1.125269 1.85883,1.005906 3.36914,-0.358575 z m 15.58587,2.533414 c -0.43171,-0.431707 -0.18661,-1.979732 0.92456,-5.839359 0.62584,-2.17386 1.06236,-4.1493105 0.97004,-4.3898903 -0.77503,-2.0197 -5.18722,3.2965503 -6.87717,8.2863193 -0.50894,1.502681 -0.67247,1.686647 -1.57925,1.776538 -0.55633,0.05515 -1.01152,0.0122 -1.01152,-0.09545 0,-0.10765 0.64435,-2.440444 1.43187,-5.183986 0.78753,-2.743542 1.35503,-5.1125882 1.26112,-5.2645467 C 120.99906,8.7643297 120.57072,8.64 120.14111,8.64 c -0.42961,0 -0.78112,-0.1292177 -0.78112,-0.2871504 0,-0.3015883 4.12897,-1.1305538 4.38013,-0.879391 0.0799,0.079879 -0.16318,1.1808223 -0.54013,2.4465414 -0.37694,1.265719 -0.62454,2.362122 -0.55021,2.43645 0.0743,0.07433 0.53556,-0.442669 1.02497,-1.148883 C 125.22149,8.9756261 127.20937,7.36 128.40884,7.36 c 2.19895,0 2.27949,0.80028 0.6489,6.447584 -0.65024,2.252013 -1.08074,4.196087 -0.95666,4.320164 0.12407,0.124077 0.65459,-0.18541 1.17891,-0.687748 0.52433,-0.502338 1.06163,-0.805046 1.19399,-0.672683 0.39695,0.396947 -2.67008,3.072683 -3.52203,3.072683 -0.42091,0 -0.86129,-0.096 -0.97862,-0.213333 z m 8.1992,-0.353782 c -1.09524,-0.855929 -1.77337,-2.804019 -1.51545,-4.353502 0.4568,-2.744363 2.64897,-5.7314484 5.06429,-6.9006851 1.64029,-0.7940512 4.22986,-0.8732828 5.24742,-0.1605526 0.90848,0.6363249 0.93736,2.1254451 0.065,3.3505877 -0.86135,1.209643 -4.06723,2.77442 -6.2405,3.045951 -1.7294,0.216075 -1.75329,0.233571 -1.75329,1.284343 0,0.664764 0.29037,1.402852 0.7723,1.963129 1.14187,1.32751 3.13379,1.265575 5.15675,-0.160338 0.82569,-0.582 1.58056,-0.978883 1.67748,-0.881962 0.30431,0.304315 -0.98228,1.497438 -2.64653,2.454257 -1.92588,1.107238 -4.65475,1.275244 -5.82746,0.358772 z m 4.70746,-6.594435 c 2.35298,-1.170591 3.56141,-3.6059596 2.20953,-4.4528906 -0.74979,-0.4697339 -2.03937,-0.035408 -3.37389,1.1363195 -1.10528,0.9704471 -2.33292,3.0735881 -2.34861,4.0235471 -0.009,0.567814 1.60265,0.243397 3.51297,-0.706976 z m 6.61334,6.948217 c -0.47887,-0.478869 -0.1091,-2.222289 2.05483,-9.6883601 2.08299,-7.1867781 2.22414,-7.8578913 1.7289,-8.2200232 -0.2966,-0.2168794 -0.74128,-0.3168102 -0.98817,-0.2220685 -0.24689,0.094742 -0.4489,0.028462 -0.4489,-0.1472882 0,-0.35198707 0.67137,-0.55210429 2.96,-0.8822968 0.836,-0.12061402 1.52,-0.12668995 1.52,-0.0135021 0,0.11318788 -1.08,3.9793473 -2.4,8.5914654 -1.32,4.6121185 -2.4,8.5678605 -2.4,8.7905375 0,0.717742 0.88067,0.431539 1.71192,-0.556346 0.47663,-0.566439 0.89399,-0.823397 1.0162,-0.62565 0.11407,0.184562 -0.43415,0.977109 -1.21826,1.761216 -1.04641,1.046412 -1.67803,1.425649 -2.37442,1.425649 -0.52182,0 -1.04477,-0.096 -1.1621,-0.213333 z m 7.60024,-0.578027 c -0.12957,-0.516248 0.59141,-3.522556 2.0739,-8.647635 1.24989,-4.3209518 2.27252,-8.0688397 2.27252,-8.3286403 0,-0.4385636 -0.55894,-0.6210494 -1.52,-0.4962514 -0.70737,0.091856 -0.42567,-0.5406087 0.32,-0.71845853 2.04231,-0.4871084 3.76,-0.59424882 3.76,-0.23452856 0,0.20668682 -1.08,4.13072079 -2.4,8.72007549 -1.32,4.5893543 -2.4,8.4685973 -2.4,8.6205403 0,0.537073 0.77615,0.265556 1.65916,-0.580413 0.49179,-0.471169 1.00246,-0.748375 1.13483,-0.616012 0.13236,0.132362 -0.43376,0.877864 -1.25804,1.656671 -1.79743,1.698264 -3.3079,1.957304 -3.64237,0.624652 z m 8.07976,0.578027 c -0.45342,-0.453418 -0.16348,-2.329504 0.90666,-5.866667 1.49352,-4.9365308 1.47601,-5.3112892 -0.24,-5.1367348 -0.308,0.03133 -0.56,-0.083077 -0.56,-0.2542381 0,-0.2975511 4.39413,-1.2015709 4.64091,-0.9547908 0.0655,0.065511 -0.5199,2.3441617 -1.3009,5.0636687 -0.781,2.719507 -1.42001,5.128504 -1.42001,5.353327 0,0.66065 0.69905,0.471936 1.65915,-0.447903 1.52269,-1.458823 1.40273,-0.520992 -0.12932,1.011057 -1.06406,1.064053 -1.69604,1.445614 -2.39439,1.445614 -0.52182,0 -1.04477,-0.096 -1.1621,-0.213333 z m -99.259,-0.72881 C 62.959442,15.605 64.631898,9.644569 64.635482,9.2 c 0.0042,-0.5157306 -0.51122,-0.7142959 -1.515485,-0.5838866 -0.707372,0.091856 -0.425674,-0.5406088 0.32,-0.7184586 1.867892,-0.4455086 3.76,-0.5902831 3.76,-0.287696 0,0.2649154 -0.928777,3.5438542 -1.447447,5.1100412 -0.242063,0.730941 0.04941,0.415825 1.064773,-1.15115 C 68.204579,9.4279488 70.511647,7.36 71.512847,7.36 c 0.721261,0 0.80715,0.1293943 0.80715,1.216 0,0.6688 -0.1728,1.3888 -0.384,1.6 -0.532618,0.532617 -1.430524,0.48043 -1.651721,-0.096 -0.357275,-0.9310457 -1.181666,-0.4583715 -2.651031,1.52 -1.561796,2.102823 -3.083201,5.127793 -3.460285,6.88 -0.200523,0.931774 -0.339963,1.04 -1.339952,1.04 -0.959836,0 -1.088487,-0.08712 -0.918678,-0.622143 z m 25.073932,0.215077 c 0.587546,-0.187951 1.261226,-0.641251 1.497066,-1.007332 C 89.144404,17.082554 93.060526,3.2017068 92.882326,2.5202692 92.795829,2.1895056 92.27392,1.7881197 91.722528,1.6283006 91.04378,1.4315681 93.071191,1.3283996 97.999996,1.3088603 102.004,1.2929871 105.28,1.3643646 105.28,1.467477 105.28,2.1259663 104.1397,5.76 103.93308,5.76 103.79388,5.76 103.68,5.2664516 103.68,4.6632257 c 0,-0.8037208 -0.22529,-1.2739855 -0.84316,-1.76 C 102.11568,2.3359643 101.54532,2.24 98.894921,2.24 H 95.796157 L 94.95941,5.2 c -0.460211,1.628 -0.933753,3.212 -1.052317,3.52 -0.192233,0.4993751 0.01868,0.56 1.948214,0.56 2.117447,0 2.19055,-0.028137 3.413668,-1.3139014 1.388735,-1.4598651 1.681875,-1.4832229 1.229745,-0.097989 C 100.33143,8.3806493 99.892686,9.844 99.523728,11.12 c -0.368958,1.276 -0.818439,2.32 -0.998847,2.32 -0.185002,0 -0.237283,-0.285866 -0.119912,-0.655668 0.123221,-0.388235 -0.0053,-0.981389 -0.315144,-1.45424 C 97.606864,10.593 97.40387,10.538775 95.453095,10.62576 l -2.113486,0.09424 -0.916012,3.2 c -1.033402,3.610094 -1.057225,4.738763 -0.103601,4.908325 0.352,0.06259 0.7768,0.243819 0.944,0.402736 0.181671,0.172671 -1.234766,0.275794 -3.52,0.256271 -3.195431,-0.0273 -3.648404,-0.08884 -2.755734,-0.374398 z M 77.197749,4.1097524 C 76.281336,3.1933395 77.098317,1.7779478 78.429702,1.9754356 79.401285,2.119553 79.941657,3.0324119 79.486084,3.76 79.0556,4.4475184 77.737045,4.6490483 77.197749,4.1097524 Z M 164.86399,4.096 c -0.86074,-0.8607384 -0.19057,-2.176 1.10874,-2.176 0.94826,0 1.5324,1.0508789 1.06726,1.92 -0.37978,0.7096357 -1.58104,0.8509598 -2.176,0.256 z"
       id="path1"
       inkscape:highlight-color="#ffffff" />
  </g>
</svg>
