<?xml version="1.0" encoding="UTF-8" standalone="no"?>
<!-- Created with Inkscape (http://www.inkscape.org/) -->

<svg
   version="1.1"
   id="svg1"
   width="444.9379"
   height="128.87651"
   viewBox="0 0 444.93789 128.87651"
   sodipodi:docname="logo-fanelli.svg"
   inkscape:version="1.4 (86a8ad7, 2024-10-11)"
   xml:space="preserve"
   xmlns:inkscape="http://www.inkscape.org/namespaces/inkscape"
   xmlns:sodipodi="http://sodipodi.sourceforge.net/DTD/sodipodi-0.dtd"
   xmlns="http://www.w3.org/2000/svg"
   xmlns:svg="http://www.w3.org/2000/svg"><defs
     id="defs1" /><sodipodi:namedview
     id="namedview1"
     pagecolor="#505050"
     bordercolor="#eeeeee"
     borderopacity="1"
     inkscape:showpageshadow="0"
     inkscape:pageopacity="0"
     inkscape:pagecheckerboard="0"
     inkscape:deskcolor="#505050"
     inkscape:zoom="3.4748092"
     inkscape:cx="233.6819"
     inkscape:cy="81.011642"
     inkscape:window-width="3440"
     inkscape:window-height="1369"
     inkscape:window-x="2552"
     inkscape:window-y="142"
     inkscape:window-maximized="1"
     inkscape:current-layer="g1"
     inkscape:lockguides="false" /><g
     inkscape:groupmode="layer"
     inkscape:label="Image"
     id="g1"
     transform="translate(163.78367,146.93342)"><g
       id="g2"
       style="fill:#000000;fill-opacity:1"><path
         style="fill:#000000;fill-opacity:1;stroke-width:1.69143"
         d="m 32.47378,-20.52779 c -4.578278,-4.578279 1.566904,-14.708452 9.024308,-14.876336 2.527741,-0.0569 4.00753,0.903971 4.00753,2.602223 0,2.70189 -3.420703,5.20554 -8.642255,6.325364 -2.266392,0.486053 -2.724173,0.783842 -2.724173,1.772092 0,3.592534 4.065188,4.772924 7.772717,2.256928 2.18613,-1.483548 2.645821,-1.09365 0.752104,0.637913 -3.547288,3.243548 -7.705449,3.766596 -10.190231,1.281816 z m 5.336289,-7.377339 c 2.454608,-1.025348 4.989257,-3.36579 4.989257,-4.606975 0,-1.680282 -1.414435,-2.348086 -3.310171,-1.562847 -1.8691,0.774206 -4.808707,4.447634 -4.808707,6.009114 0,1.219923 0.528922,1.247084 3.129621,0.160703 z m 10.618185,8.545246 c -3.199801,-2.136564 -2.015197,-8.612084 2.37938,-13.006662 2.793803,-2.793802 5.474294,-3.731795 7.613977,-2.66438 l 1.555193,0.775831 0.999523,-4.013868 c 0.85343,-3.427186 0.887421,-4.083151 0.232554,-4.48788 -0.421834,-0.260708 -0.961274,-0.353928 -1.198756,-0.207155 -0.237482,0.146765 -0.431787,0.0275 -0.431787,-0.26506 0,-0.464428 5.373798,-1.711188 5.871503,-1.362231 0.103566,0.07261 -1.311928,5.289278 -3.145528,11.592597 -1.833599,6.303321 -3.196092,11.598307 -3.027761,11.766639 0.168332,0.168331 0.913049,-0.264187 1.654932,-0.96115 2.171639,-2.040147 2.159801,-0.842738 -0.01319,1.330214 -1.298676,1.298675 -2.381734,1.922443 -3.14832,1.813216 -1.007182,-0.143519 -1.162638,-0.50285 -1.125711,-2.602172 l 0.04284,-2.435663 -2.536498,2.570978 c -2.449827,2.483128 -4.229181,3.153764 -5.722352,2.156746 z m 6.07986,-3.76126 c 2.146154,-2.343052 4.528965,-6.8739 4.528965,-8.611695 0,-1.345255 -1.307877,-2.90931 -2.432796,-2.90931 -2.412638,0 -6.768597,6.616982 -6.768597,10.281933 0,3.711332 1.937342,4.225091 4.672428,1.239072 z m 11.59137,3.394985 c -0.512382,-0.617383 -0.29999,-2.00828 1.016242,-6.655083 0.915204,-3.231017 1.664006,-6.175783 1.664006,-6.543925 0,-0.368142 -0.548024,-0.874557 -1.217831,-1.125368 -1.018196,-0.381266 -0.729833,-0.539242 1.75909,-0.963697 1.637307,-0.279223 3.033214,-0.476707 3.102017,-0.438856 0.06881,0.03786 -0.758784,3.163195 -1.83908,6.945203 -1.080298,3.782008 -1.805437,7.035117 -1.611423,7.229133 0.194016,0.194014 0.959749,-0.217488 1.701632,-0.914451 0.741883,-0.696962 1.509049,-1.107035 1.704814,-0.91127 0.532737,0.532737 -3.525095,4.158821 -4.654,4.158821 -0.537737,0 -1.269197,-0.351228 -1.625467,-0.780507 z m 11.537446,0.147459 c -2.597744,-1.257849 -3.10988,-5.808333 -1.087102,-9.659231 2.205635,-4.199016 8.009188,-7.251606 11.362675,-5.976614 2.581629,0.981532 2.377686,4.902464 -0.254999,4.902464 -1.132507,0 -1.388299,-1.576474 -0.413893,-2.55088 0.839079,-0.839078 0.117216,-1.779188 -1.366137,-1.779188 -5.007277,0 -9.836035,10.213524 -6.215011,13.145652 1.64169,1.32936 4.134965,0.958648 6.697372,-0.995796 2.099995,-1.601744 2.620432,-1.084854 0.687372,0.682686 -2.861776,2.616733 -6.722984,3.532113 -9.410277,2.230904 z m 14.777756,0.272213 c -0.656017,-0.656017 -0.379207,-2.39149 1.30192,-8.162493 1.336005,-4.586256 1.522142,-5.797614 0.947202,-6.164241 -0.393556,-0.250961 -1.020013,-0.344714 -1.392129,-0.208339 -0.372115,0.13638 -0.676573,0.03061 -0.676573,-0.235029 0,-0.596746 5.616516,-1.566387 5.856186,-1.011019 0.14662,0.339726 -2.766951,11.2626 -3.547735,13.300352 -0.441951,1.15344 1.372335,0.743167 2.249105,-0.508604 0.45657,-0.651846 1.01758,-0.997723 1.24669,-0.768616 0.22911,0.229108 -0.49242,1.24957 -1.60338,2.267693 -1.902237,1.743273 -3.563299,2.308283 -4.381286,1.490296 z m 23.074864,-0.699766 c -6.78509,-4.137108 -3.60801,-17.038346 5.47949,-22.250704 2.27791,-1.306546 3.36678,-1.577294 6.36039,-1.581504 3.06594,-0.0042 3.85471,0.199175 5.21769,1.346051 2.27034,1.91036 3.52346,5.315551 3.08237,8.375899 -0.50035,3.471494 -2.69715,8.048612 -5.03927,10.499548 -4.14241,4.334861 -11.16076,6.013014 -15.10067,3.61071 z m 9.50538,-1.591801 c 3.27753,-2.333809 7.11204,-10.282205 7.11204,-14.742265 0,-2.202901 -1.31993,-5.137487 -2.62489,-5.835879 -1.68613,-0.902393 -4.50081,-0.691318 -6.42482,0.481804 -4.66002,2.841339 -8.75634,12.854815 -7.19454,17.587103 1.33538,4.046257 5.40377,5.16412 9.13221,2.509237 z m 12.56391,1.226265 c -1.46285,-1.859717 -1.41137,-4.153758 0.16942,-7.548604 2.52483,-5.42227 7.92867,-8.98059 10.79058,-7.10539 l 1.30571,0.855529 1.07596,-3.889442 c 1.09394,-3.954422 0.84469,-5.624787 -0.7481,-5.013576 -0.39884,0.153058 -0.72517,0.0652 -0.72517,-0.195206 0,-0.512611 5.30955,-1.399772 5.74878,-0.960551 0.14678,0.146782 -1.20881,5.326897 -3.01242,11.511359 -1.80361,6.184462 -3.15617,11.367595 -3.00569,11.518075 0.15049,0.150487 0.8806,-0.296642 1.62248,-0.993605 2.15925,-2.028513 2.23823,-0.776834 0.0867,1.37466 -1.33047,1.330479 -2.3444,1.896321 -3.1844,1.777131 -1.08051,-0.153312 -1.22575,-0.470413 -1.17848,-2.572805 l 0.0539,-2.397937 -1.19357,1.496874 c -1.56566,1.96352 -4.03284,3.561606 -5.50542,3.566063 -0.6482,0.002 -1.68335,-0.638198 -2.30035,-1.422575 z m 6.88189,-2.760946 c 2.2279,-2.36226 4.43241,-6.806089 4.43997,-8.950036 0.008,-2.255547 -2.21627,-3.130439 -4.20511,-1.654074 -4.58145,3.40092 -6.74337,12.626159 -2.95892,12.626159 0.44936,0 1.67519,-0.909923 2.72406,-2.022052 z m 12.60566,2.785825 c -1.50338,-1.265012 -1.6653,-1.703327 -1.6653,-4.507901 0,-2.535898 0.29392,-3.550382 1.59986,-5.521992 3.05423,-4.611058 9.24446,-6.502751 12.19835,-3.727729 3.719,3.493814 1.20086,11.118608 -4.65933,14.108255 -2.89409,1.476458 -5.4444,1.356808 -7.47358,-0.350633 z m 7.27776,-1.551536 c 3.31987,-3.520079 4.62669,-10.273497 2.30293,-11.901121 -1.68677,-1.181459 -2.28786,-1.071148 -4.43476,0.813849 -3.30034,2.897737 -5.1557,9.81683 -3.20917,11.967731 1.39884,1.545694 3.35734,1.222835 5.341,-0.880459 z m 18.42384,1.97532 c -0.17063,-0.537614 0.42186,-3.584757 1.31666,-6.771428 0.8948,-3.186673 1.62692,-5.91317 1.62692,-6.058883 0,-0.145717 -0.45824,-0.264933 -1.01829,-0.264933 -2.15661,0 -6.76243,6.294855 -8.21759,11.231114 -0.54782,1.858345 -0.92166,2.300349 -1.9456,2.300349 -1.59736,0 -1.58604,-0.215002 0.35631,-6.765732 2.07537,-6.999355 2.06218,-7.718058 -0.13531,-7.371086 -0.22327,0.03525 -0.40595,-0.138748 -0.40595,-0.38666 0,-0.247915 1.33962,-0.69357 2.97693,-0.990342 3.12208,-0.565898 3.2605,-0.481064 2.5149,1.541177 -0.2541,0.689188 -0.63603,1.983767 -0.84872,2.876843 -0.35399,1.486239 -0.15545,1.365379 2.3448,-1.426872 2.82636,-3.15655 4.99826,-4.231689 6.32469,-3.130857 1.08703,0.902152 0.95241,2.531354 -0.6895,8.344025 -1.50744,5.336655 -1.36651,6.874427 0.42722,4.66185 0.5772,-0.71198 1.19764,-1.14634 1.37872,-0.965245 0.55577,0.555761 -3.42518,4.154157 -4.59579,4.154157 -0.60509,0 -1.23977,-0.439865 -1.4104,-0.977477 z m 9.79952,0.616639 c -0.72399,-0.723979 -0.30745,-3.815685 1.20607,-8.951971 0.8514,-2.889355 1.41548,-5.385909 1.25349,-5.5479 -0.16204,-0.161988 -0.80196,-0.30428 -1.42216,-0.3162 -0.93857,-0.01803 -0.85539,-0.160686 0.49615,-0.850868 0.89308,-0.456059 2.56237,-1.846813 3.70952,-3.090566 l 2.08572,-2.261368 -0.35234,1.623776 c -0.19379,0.893076 -0.47896,2.050016 -0.63375,2.570978 -0.21662,0.72921 0.0384,0.947202 1.10823,0.947202 0.76429,0 1.38961,0.243566 1.38961,0.541259 0,0.297692 -0.59454,0.541258 -1.32119,0.541258 -1.66535,0 -1.65172,-0.02461 -3.60845,6.515971 -1.97299,6.594912 -1.92012,7.98994 0.21658,5.712825 0.81194,-0.865312 1.6557,-1.393865 1.87501,-1.17456 0.21929,0.219304 -0.51024,1.231745 -1.62121,2.249868 -1.90223,1.743273 -3.5633,2.308283 -4.38128,1.490296 z m 10.90967,-1.190965 c -1.54062,-1.376539 -1.73208,-1.863391 -1.69515,-4.310607 0.0841,-5.568572 4.92728,-10.555765 10.25115,-10.555765 7.81662,0 6.88819,11.440823 -1.26152,15.545692 -2.70655,1.363237 -5.27631,1.123921 -7.29448,-0.67932 z m 6.48056,-0.38028 c 1.6937,-1.186307 3.9013,-5.77342 4.2678,-8.867869 0.25758,-2.174745 0.1206,-2.783549 -0.84238,-3.746619 -1.50192,-1.501926 -2.33353,-1.45041 -4.37969,0.271306 -3.48757,2.934606 -5.52064,9.917192 -3.52845,12.118533 1.17,1.292833 2.83831,1.37644 4.48272,0.224649 z m 10.56932,1.066027 c -0.18279,-0.476331 0.44586,-3.646382 1.39701,-7.04456 0.95114,-3.398177 1.56797,-6.4396 1.37075,-6.758716 -0.19722,-0.319117 -0.81823,-0.460013 -1.38002,-0.313102 -0.56179,0.146918 -1.02144,0.07679 -1.02144,-0.155815 0,-0.469336 2.67561,-1.099503 4.66835,-1.099503 1.61705,0 1.60675,0.205988 -0.33828,6.765732 -2.20764,7.445476 -2.1446,8.493464 0.36893,6.132129 0.68782,-0.646173 1.37975,-1.045681 1.53765,-0.887793 0.15781,0.157879 -0.69433,1.173707 -1.89383,2.257378 -2.31811,2.094268 -4.16319,2.526928 -4.70912,1.104254 z m 10.86656,0.451824 c -4.23228,-2.825975 0.34864,-13.777094 6.63027,-15.850215 1.54179,-0.508838 2.09098,-0.457276 3.25533,0.305645 0.80964,0.530489 1.54323,0.702327 1.73852,0.407234 0.49241,-0.744056 2.77351,-1.221877 2.77351,-0.580968 0,0.440236 -1.38126,5.455805 -3.58572,13.0203 -0.39234,1.346341 1.23554,1.222002 1.97006,-0.15047 0.3231,-0.603723 0.858,-0.930474 1.18866,-0.726114 0.37781,0.233494 -0.1458,1.056207 -1.40929,2.21404 -2.59051,2.374031 -4.27596,2.259313 -4.65881,-0.317098 l -0.27063,-1.821252 -1.08123,1.200092 c -1.99239,2.211398 -5.06613,3.29006 -6.55067,2.29881 z m 6.02118,-3.458645 c 3.46394,-3.041372 5.33651,-8.348571 3.74659,-10.618492 -1.08909,-1.554906 -1.94939,-1.519871 -3.94665,0.16072 -3.27411,2.754973 -5.55306,9.727217 -3.76418,11.516103 1.01279,1.012793 1.86426,0.785476 3.96424,-1.058331 z m 11.59929,3.031215 c -0.57952,-0.698294 -0.40498,-1.919918 1.02474,-7.171675 0.94779,-3.481507 1.71944,-6.495748 1.71477,-6.698312 -0.005,-0.202565 -0.55653,-0.463539 -1.22634,-0.579945 -1.19503,-0.207686 -1.19146,-0.222771 0.19112,-0.805902 0.77491,-0.326841 2.29569,-1.630245 3.37953,-2.896457 2.13007,-2.488505 2.87659,-2.58613 1.99241,-0.260554 -0.82754,2.176551 -0.68101,3.016752 0.5261,3.016752 0.59538,0 1.08252,0.243566 1.08252,0.541259 0,0.297692 -0.59417,0.541258 -1.32039,0.541258 -1.19144,0 -1.45837,0.462516 -2.73315,4.736012 -0.77703,2.604807 -1.64424,5.442165 -1.92717,6.305242 -0.64425,1.965352 -0.64531,1.94895 0.12737,1.94895 0.35293,0 1.20445,-0.528688 1.89227,-1.174861 2.06678,-1.941648 2.09237,-0.636934 0.0281,1.427448 -2.05749,2.057494 -3.63734,2.413509 -4.75171,1.070785 z m 24.37383,0.02072 c -0.55721,-0.671399 -0.36073,-1.944175 1.07858,-6.987187 0.96794,-3.391434 1.5957,-6.431941 1.39499,-6.756679 -0.2007,-0.324738 -0.89856,-0.61925 -1.55079,-0.654473 -1.62543,-0.08777 1.42914,-0.866331 3.74463,-0.954438 l 1.68296,-0.06404 -1.91836,6.755864 c -1.05509,3.715726 -1.75058,6.923643 -1.54551,7.128706 0.20505,0.205061 0.97983,-0.197402 1.72171,-0.894366 2.15299,-2.022628 2.16925,-0.852182 0.0181,1.299021 -2.08968,2.089679 -3.53535,2.442045 -4.62626,1.127592 z M 0.03947145,-20.434953 c 1.84963695,-0.924209 1.95956015,-1.168081 4.69600075,-10.418385 1.5411167,-5.209613 2.8200347,-9.877968 2.8420407,-10.374121 0.022567,-0.508802 -0.608926,-1.146223 -1.448449,-1.462044 -1.2680521,-0.477031 -1.0077472,-0.543823 1.757882,-0.451049 l 3.2463431,0.108894 0.917913,8.118878 c 0.504852,4.465382 0.931637,8.545118 0.94841,9.066079 0.01678,0.520962 0.213172,0.937829 0.43644,0.926371 0.223269,-0.0115 3.328742,-4.14526 6.901046,-9.186227 l 6.495102,-9.165394 3.247551,0.05854 c 1.786153,0.03221 2.724963,0.160754 2.086244,0.2857 -2.045594,0.400127 -2.761159,1.871726 -5.607991,11.533109 -2.933637,9.955978 -2.967046,10.74137 -0.486467,11.435481 0.716057,0.200366 -1.133742,0.388201 -4.110663,0.417412 l -5.412584,0.05311 1.894403,-0.946362 c 1.827348,-0.912862 1.975455,-1.224171 4.184077,-8.79461 1.259321,-4.316536 2.233586,-8.014856 2.165034,-8.218489 -0.06855,-0.203632 -3.047434,3.749069 -6.61974,8.78378 -3.572306,5.034719 -6.68542,9.159279 -6.918033,9.165698 -0.640758,0.01768 -0.762388,-0.662779 -1.7668661,-9.884791 -0.511805,-4.698824 -1.025938,-8.447932 -1.14252,-8.33135 -0.43597,0.43597 -4.5009631,14.756615 -4.5082936,15.882358 -0.00514,0.7904 0.4776248,1.34996 1.4808244,1.71636 1.2228382,0.446619 0.7157402,0.551107 -2.841607,0.585523 l -4.3300678,0.0419 z M 259.64029,-25.506303 c 2.15982,-7.114155 2.21887,-7.941648 0.60962,-8.544231 -1.01819,-0.381266 -0.72983,-0.539242 1.75909,-0.963697 1.63731,-0.279223 3.0423,-0.467624 3.12222,-0.41867 0.0798,0.04895 -0.34321,1.647406 -0.94023,3.552117 -0.59703,1.904711 -1.08864,3.548457 -1.09248,3.652773 -0.003,0.10431 0.95879,-1.09565 2.13915,-2.666585 2.27654,-3.029775 5.02968,-5.142284 5.95579,-4.569916 0.30701,0.189746 0.55821,1.052748 0.55821,1.917782 0,1.959525 -1.81931,3.215052 -2.61039,1.801462 -0.27829,-0.497274 -0.86221,-0.761302 -1.30658,-0.590782 -1.29385,0.496496 -5.17327,6.718153 -6.1796,9.910592 -0.81979,2.600713 -1.0939,2.938548 -2.38428,2.938548 h -1.458 z M 71.053018,-39.621726 c -0.947942,-0.947942 -0.795704,-1.940454 0.395418,-2.577925 0.788756,-0.422129 1.253186,-0.350972 1.894405,0.290249 0.467212,0.467211 0.849476,1.026931 0.849476,1.24382 0,0.600222 -1.222924,1.693366 -1.894404,1.693366 -0.327462,0 -0.887664,-0.292279 -1.244895,-0.64951 z m 26.232994,0.288672 c -0.69801,-0.698014 -0.35088,-2.774718 0.51965,-3.108771 1.09417,-0.419873 2.367058,0.577225 2.367058,1.8542 0,1.240486 -2.022018,2.11926 -2.886708,1.254571 z m 128.593988,0.0086 c -1.00941,-0.416607 -0.81674,-2.240951 0.29981,-2.838505 1.34051,-0.717421 2.40334,0.07251 2.18321,1.622647 -0.18064,1.272117 -1.17131,1.757218 -2.48302,1.215858 z m 52.47501,-0.297274 c -0.94793,-0.947942 -0.7957,-1.940454 0.39542,-2.577925 1.48573,-0.795134 2.97764,0.696784 2.18251,2.182507 -0.63747,1.191122 -1.62998,1.343359 -2.57793,0.395418 z M 6.5742919,-60.42492 c -2.3960971,-3.046144 -0.9771254,-10.081764 2.978325,-14.767288 3.5909881,-4.253789 9.2663521,-6.212401 11.6777811,-4.030089 1.118029,1.011804 0.909441,1.370419 2.595358,-4.462099 1.558627,-5.392156 1.494394,-6.166119 -0.511736,-6.166119 -2.986732,0 -1.667098,-0.977401 2.20038,-1.629736 2.103283,-0.354764 3.92376,-0.545419 4.045504,-0.423677 0.12175,0.12175 -1.720909,6.882484 -4.094784,15.023868 -2.373874,8.141384 -4.316134,14.886322 -4.316134,14.988752 0,0.650897 1.525283,-0.03544 2.806344,-1.262766 0.831838,-0.796951 1.695609,-1.265826 1.919492,-1.041943 0.223881,0.223881 -0.750516,1.500769 -2.165327,2.837526 -1.979837,1.870611 -2.913883,2.391149 -4.054907,2.259774 -1.423992,-0.163951 -1.480366,-0.28867 -1.427874,-3.158964 l 0.05465,-2.988269 -3.123585,3.123584 c -2.764675,2.764674 -3.372817,3.123586 -5.2926361,3.123586 -1.698583,0 -2.412368,-0.30933 -3.290851,-1.42614 z m 8.8758121,-3.728593 c 4.568484,-4.700624 6.931478,-11.530186 4.803106,-13.88201 -1.505446,-1.663499 -3.394352,-1.225166 -5.874448,1.363203 -2.787512,2.909209 -4.6932751,6.746102 -5.0152851,10.097331 -0.5164,5.374269 2.1758691,6.445349 6.0866271,2.421476 z m 17.001158,4.341174 c -0.779514,-0.42362 -1.814671,-1.607619 -2.300349,-2.631107 -3.40215,-7.169498 4.058564,-17.664416 12.557426,-17.664416 2.970325,0 4.982945,1.212013 6.326273,3.809722 2.480336,4.796439 -1.45093,13.245729 -7.532805,16.189913 -2.677715,1.29626 -6.952561,1.436017 -9.050545,0.295888 z m 8.104688,-2.156978 c 4.501283,-4.066639 6.860297,-13.651833 3.942503,-16.019257 -0.702787,-0.570223 -1.859025,-1.036771 -2.569418,-1.036771 -3.300275,0 -8.102429,7.258635 -8.700318,13.150856 -0.237903,2.344553 -0.08834,3.065582 0.892895,4.304731 1.674707,2.114883 3.79703,1.983091 6.434338,-0.399559 z m 13.429384,2.609698 c -0.761545,-0.761545 -0.292885,-3.970476 1.491276,-10.210803 2.531014,-8.852537 2.511153,-8.548817 0.583547,-8.923902 l -1.623773,-0.315965 2.242344,-1.171453 c 1.233288,-0.6443 3.231041,-2.328132 4.43945,-3.741848 1.20841,-1.413718 2.321628,-2.445876 2.473818,-2.293685 0.152195,0.152196 -0.0797,1.460997 -0.515327,2.908456 -1.052663,3.497736 -1.042219,3.542216 0.831737,3.542216 0.893076,0 1.623775,0.243566 1.623775,0.541258 0,0.297693 -0.842168,0.541259 -1.871484,0.541259 -2.086756,0 -1.60884,-1.061569 -5.360805,11.907687 -1.558816,5.388292 -1.174658,6.428757 1.438476,3.896007 3.257654,-3.157442 3.598222,-1.862961 0.38183,1.451312 -1.683023,1.73424 -2.565852,2.2303 -3.969229,2.2303 -0.992638,0 -1.967174,-0.162378 -2.165635,-0.360839 z m 12.990204,0 c -0.750138,-0.750138 -0.294314,-3.513892 1.804194,-10.939199 1.190769,-4.213383 2.165034,-7.763293 2.165034,-7.888689 0,-0.125403 -0.79159,-0.309847 -1.75909,-0.40989 l -1.75909,-0.181898 1.910923,-0.857658 c 1.820442,-0.817047 3.509434,-2.356562 5.86093,-5.342235 1.499924,-1.904437 1.838701,-1.170012 0.89511,1.940479 -1.063255,3.50496 -1.070874,3.472106 0.805061,3.472106 0.893076,0 1.623775,0.243566 1.623775,0.541258 0,0.297693 -0.819215,0.541259 -1.820479,0.541259 h -1.820479 l -2.018576,6.865661 c -3.155461,10.732483 -3.143631,12.428174 0.06162,8.830835 0.795735,-0.893076 1.650096,-1.623775 1.898579,-1.623775 0.942363,0 0.380591,1.11178 -1.629437,3.22476 -1.655555,1.740349 -2.467381,2.187825 -3.969229,2.187825 -1.038401,0 -2.050379,-0.162378 -2.24884,-0.360839 z m 15.203407,-0.588957 c -5.851869,-3.628335 -2.8506,-14.826127 5.046283,-18.82778 3.126536,-1.584336 6.925311,-1.752806 9.201744,-0.408085 6.052398,3.575239 2.8242,15.540051 -5.173001,19.172924 -2.755402,1.251692 -7.10908,1.281888 -9.075026,0.06294 z m 8.172785,-2.020741 c 4.501284,-4.066639 6.860292,-13.651833 3.942503,-16.019257 -1.876357,-1.522428 -3.595712,-1.276481 -5.950854,0.851249 -4.547018,4.107957 -6.890514,13.630705 -3.942502,16.020282 1.87685,1.521324 3.596111,1.275094 5.950853,-0.852274 z m 31.83217,2.609698 c -0.73484,-0.734841 -0.30708,-3.17451 1.81961,-10.377853 1.94763,-6.59681 2.08943,-7.451998 1.32799,-8.008776 -0.46885,-0.342834 -1.32827,-0.498908 -1.90982,-0.34683 -0.58155,0.152077 -1.05736,0.02654 -1.05736,-0.278976 0,-0.56802 7.43631,-2.057533 7.90954,-1.584304 0.14369,0.14367 -0.84649,4.120257 -2.20038,8.836841 -1.35389,4.716586 -2.46161,8.764347 -2.46161,8.995026 0,0.86417 1.34458,0.370874 2.80634,-1.029583 0.83184,-0.796951 1.69561,-1.265826 1.91949,-1.041943 0.22389,0.223881 -0.73366,1.484848 -2.12788,2.802147 -1.79499,1.69596 -2.99179,2.39509 -4.10001,2.39509 -0.86079,0 -1.72745,-0.162378 -1.92591,-0.360839 z m 54.19226,-0.21185 c -2.29374,-1.337181 -2.22547,-7.290481 0.13667,-11.920674 1.50684,-2.953646 4.99311,-6.680297 7.2523,-7.752354 2.59277,-1.230343 5.54009,-1.129136 6.38212,0.219152 0.78474,1.256571 1.49815,1.41302 1.49815,0.328539 0,-0.414688 0.38527,-0.901821 0.85617,-1.082517 1.20472,-0.462295 2.93264,-0.408748 2.93264,0.09088 0,0.230679 -1.1029,4.261675 -2.4509,8.957769 -1.34801,4.696092 -2.29482,8.790932 -2.10403,9.099644 0.20477,0.331306 1.07311,-0.142587 2.11927,-1.156559 2.43979,-2.364726 2.84893,-1.205801 0.44726,1.266848 -1.97488,2.033232 -3.64123,2.777121 -5.41108,2.415596 -0.81605,-0.166691 -0.97276,-0.674471 -0.89182,-2.889539 l 0.0983,-2.68731 -1.45135,1.682389 c -3.07087,3.559718 -6.83594,4.930841 -9.4136,3.428137 z m 8.21169,-4.073249 c 5.62349,-5.080481 7.4252,-15.380627 2.69039,-15.380627 -1.54587,0 -5.27333,3.623205 -6.77389,6.584423 -0.72288,1.426521 -1.57856,3.825752 -1.9015,5.331623 -0.49208,2.294459 -0.4457,2.953886 0.28632,4.071086 1.24709,1.903317 3.14409,1.701423 5.69868,-0.606505 z m 26.36245,4.285099 c -0.73021,-0.730203 -0.31564,-3.348583 1.56383,-9.876883 1.05856,-3.676938 1.79691,-7.018279 1.64076,-7.425204 -1.31092,-3.416187 -8.77384,5.575893 -11.63227,14.015752 -0.86084,2.541684 -1.13744,2.85285 -2.6712,3.004894 -0.941,0.09328 -1.71092,0.02064 -1.71092,-0.161447 0,-0.182083 1.08988,-4.127847 2.42191,-8.768364 1.33206,-4.640517 2.29195,-8.647599 2.1331,-8.904626 -0.15882,-0.257035 -0.88336,-0.467331 -1.61002,-0.467331 -0.72666,0 -1.32121,-0.218562 -1.32121,-0.485695 0,-0.510115 6.98387,-1.912256 7.40869,-1.48743 0.13515,0.135111 -0.27601,1.997281 -0.91359,4.138159 -0.63757,2.140879 -1.05637,3.995371 -0.93064,4.121092 0.12567,0.125724 0.90586,-0.748745 1.73366,-1.943259 2.61621,-3.775176 5.97858,-6.507901 8.0074,-6.507901 3.71938,0 3.8556,1.35362 1.09757,10.905655 -1.09984,3.809129 -1.828,7.0974 -1.61813,7.307267 0.20986,0.209868 1.1072,-0.313608 1.99405,-1.163279 0.88687,-0.849671 1.79568,-1.361681 2.01955,-1.137798 0.67142,0.671409 -4.51626,5.197237 -5.95727,5.197237 -0.71194,0 -1.45682,-0.162378 -1.65527,-0.360839 z m 13.86839,-0.598398 c -1.85252,-1.447747 -2.99953,-4.74281 -2.56328,-7.363656 0.77265,-4.641906 4.48056,-9.694359 8.56591,-11.672045 2.77444,-1.343084 7.15452,-1.477098 8.87566,-0.271563 1.53663,1.076301 1.58548,3.595047 0.10994,5.667292 -1.45692,2.04603 -6.87945,4.692745 -10.55539,5.152022 -2.92516,0.365476 -2.96557,0.39507 -2.96557,2.17238 0,1.124403 0.49114,2.37283 1.30629,3.320501 1.9314,2.245394 5.3006,2.140635 8.7223,-0.271201 1.3966,-0.984414 2.67341,-1.655715 2.83735,-1.49178 0.51471,0.514729 -1.66147,2.532816 -4.47643,4.151211 -3.2575,1.872819 -7.8732,2.15699 -9.85676,0.606839 z m 7.96236,-11.154044 c 3.9799,-1.979976 6.02388,-6.099237 3.73727,-7.531764 -1.26822,-0.794524 -3.44946,-0.05989 -5.70671,1.922007 -1.86951,1.641446 -3.94598,5.198768 -3.97252,6.805559 -0.0152,0.96042 2.71078,0.41169 5.94196,-1.195802 z m 11.18602,11.752442 c -0.80998,-0.809975 -0.18454,-3.758852 3.4756,-16.38721 3.52324,-12.155952 3.76199,-13.291094 2.92432,-13.903616 -0.50168,-0.366836 -1.25382,-0.535863 -1.67142,-0.375613 -0.4176,0.160246 -0.75929,0.04814 -0.75929,-0.24913 0,-0.595362 1.13558,-0.933847 5.00664,-1.492344 1.41404,-0.204011 2.57098,-0.214288 2.57098,-0.02283 0,0.191448 -1.82674,6.730798 -4.05944,14.531886 -2.23269,7.801087 -4.05943,14.491959 -4.05943,14.868602 0,1.214012 1.48959,0.729919 2.89559,-0.941022 0.80619,-0.958094 1.51213,-1.392721 1.71884,-1.058245 0.19294,0.312174 -0.73434,1.652714 -2.06061,2.978979 -1.76993,1.769935 -2.83827,2.411389 -4.01617,2.411389 -0.88262,0 -1.76716,-0.162378 -1.96561,-0.360838 z m 12.85529,-0.977694 c -0.21916,-0.873198 1.00033,-5.958166 3.50786,-14.626893 2.11411,-7.308598 3.84382,-13.647899 3.84382,-14.087335 0,-0.7418 -0.94541,-1.050463 -2.57098,-0.839375 -1.19647,0.155375 -0.71999,-0.914404 0.54126,-1.215225 3.45443,-0.823911 6.35979,-1.005133 6.35979,-0.396689 0,0.349596 -1.82675,6.986836 -4.05944,14.749421 -2.23269,7.762584 -4.05944,14.324063 -4.05944,14.581064 0,0.908423 1.3128,0.44917 2.80636,-0.981729 0.83183,-0.796951 1.69559,-1.265826 1.91949,-1.041943 0.22387,0.223881 -0.73368,1.484848 -2.12789,2.802147 -3.04024,2.8725 -5.5951,3.310649 -6.16083,1.056557 z m 13.66637,0.977694 c -0.76693,-0.766926 -0.27651,-3.940199 1.53356,-9.923073 2.52619,-8.349808 2.49657,-8.983688 -0.40595,-8.68844 -0.52096,0.05299 -0.9472,-0.140524 -0.9472,-0.430027 0,-0.503289 7.43238,-2.032376 7.84979,-1.614964 0.11079,0.110805 -0.87938,3.96499 -2.20039,8.564854 -1.32101,4.599863 -2.40185,8.67452 -2.40185,9.054793 0,1.117445 1.1824,0.798248 2.80634,-0.757598 2.57553,-2.467501 2.37263,-0.881223 -0.21873,1.710135 -1.79979,1.799774 -2.86874,2.445159 -4.04995,2.445159 -0.88263,0 -1.76716,-0.162378 -1.96562,-0.360839 z M 102.5988,-60.592352 c 1.76773,-5.569646 4.59658,-15.651315 4.60264,-16.403273 0.007,-0.872323 -0.86469,-1.208182 -2.56334,-0.987604 -1.19647,0.155375 -0.72,-0.914404 0.54126,-1.215225 3.15941,-0.753547 6.35979,-0.998424 6.35979,-0.486619 0,0.448088 -1.57097,5.994191 -2.44826,8.643291 -0.40943,1.236338 0.0836,0.70334 1.80099,-1.947093 2.34645,-3.62119 6.2487,-7.118987 7.94216,-7.118987 1.21997,0 1.36524,0.218863 1.36524,2.056783 0,1.13123 -0.29228,2.349061 -0.64951,2.706292 -0.90088,0.900886 -2.41963,0.812615 -2.79377,-0.162378 -0.60431,-1.574799 -1.99871,-0.775303 -4.48404,2.570978 -2.64167,3.556784 -5.21503,8.673318 -5.85284,11.637058 -0.33917,1.576033 -0.57503,1.75909 -2.26644,1.75909 -1.6235,0 -1.8411,-0.147357 -1.55388,-1.052313 z m 42.41087,0.363788 c 0.99379,-0.317906 2.13328,-1.084633 2.53219,-1.703834 1.11478,-1.730417 7.73864,-25.208937 7.43722,-26.361542 -0.14631,-0.559465 -1.02908,-1.238382 -1.96172,-1.508705 -1.14805,-0.332759 2.28117,-0.507263 10.61792,-0.540312 6.77251,-0.02684 12.31364,0.09387 12.31364,0.268289 0,1.113791 -1.92874,7.260514 -2.27822,7.260514 -0.23545,0 -0.42807,-0.834803 -0.42807,-1.85512 0,-1.35944 -0.38107,-2.15486 -1.42615,-2.976921 -1.21979,-0.959484 -2.18452,-1.121803 -6.6675,-1.121803 h -5.24135 l -1.4153,5.006641 c -0.77842,2.753653 -1.57938,5.432883 -1.77992,5.953844 -0.32515,0.844661 0.0316,0.947202 3.29527,0.947202 3.58152,0 3.70517,-0.0476 5.77399,-2.222375 2.34896,-2.469263 2.84478,-2.508772 2.08004,-0.165743 -0.28296,0.866927 -1.02508,3.342085 -1.64915,5.500353 -0.62406,2.158268 -1.38433,3.924124 -1.68948,3.924124 -0.31291,0 -0.40134,-0.483523 -0.20282,-1.109018 0.20842,-0.656674 -0.009,-1.659954 -0.53304,-2.45975 -0.8169,-1.246741 -1.16025,-1.338459 -4.45985,-1.19133 l -3.57482,0.159401 -1.54938,5.412585 c -1.74793,6.106231 -1.78822,8.015299 -0.17523,8.302102 0.59538,0.105866 1.3139,0.412403 1.59671,0.681201 0.30729,0.292061 -2.08852,0.466487 -5.95384,0.433465 -5.40486,-0.04618 -6.17103,-0.150267 -4.66114,-0.633268 z m -16.56,-25.376872 c -1.55005,-1.550051 -0.16818,-3.944092 2.08377,-3.610054 1.64337,0.243764 2.55737,1.787804 1.7868,3.01847 -0.72814,1.162892 -2.95838,1.503767 -3.87057,0.591584 z m 148.28157,-0.02326 c -1.45589,-1.455881 -0.32234,-3.680558 1.87536,-3.680558 1.60391,0 2.59195,1.777491 1.80519,3.247551 -0.64237,1.200302 -2.67422,1.439342 -3.68055,0.433007 z"
         id="path1"
         inkscape:highlight-color="#ffffff" /><path
         style="fill:#000000;fill-opacity:1"
         d="m -125.95071,-20.306908 c -7.64666,-5.32839 -13.36599,-15.32716 -18.08139,-31.61062 -2.20432,-7.61207 -4.38778,-12.5199 -8.23055,-18.5 -9.29243,-14.460833 -9.67062,-15.376429 -10.94999,-26.50929 -2.77793,-24.173182 4.42295,-34.585822 25.04729,-36.218972 11.44691,-0.90642 17.50692,-2.80661 25.61934,-8.03324 15.78314,-10.16868 29.324163,-6.85305 40.383623,9.88827 1.49703,2.26615 1.49703,2.26615 9.49703,-1.20615 34.36132,-14.9141 60.3669534,2.44759 53.3854134,35.640785 -4.2740894,20.320864 -24.1270134,36.648527 -33.3485934,27.426947 -8.72251,-8.722507 -4.00407,-40.598492 6.01318,-40.622762 4.80648,-0.0117 5.43435,3.27265 2.44728,12.801407 -7.35835,23.473208 -0.67655,34.337685 10.708734,17.412182 16.1308494,-23.980329 7.7038,-54.218549 -15.110104,-54.218549 -8.84146,0 -29.59591,6.2561 -29.59591,8.92122 0,0.35645 0.93903,3.31981 2.08674,6.58524 1.44277,4.10495 2.34541,10.11191 2.92497,19.465338 0.71403,11.523647 1.31147,14.787692 4.03203,22.028198 5.54074,14.746186 5.45614,33.653966 -0.17578,39.285886 -5.62215,5.62214 -8.4096,4.16408 -27.670669,-14.47403 -13.826614,-13.37942 -17.923944,-13.70286 -18.384524,-1.45126 -1.82041,48.4229539 78.678843,32.5994 92.814677,-18.244364 2.422799,-8.714355 9.3725594,-11.771288 9.3725594,-4.122634 0,44.464228 -77.8115934,73.1168209 -101.0356064,37.204378 -3.22764,-4.99105 -3.2921,-4.93528 -4.97291,4.30202 -2.22443,12.22486 -4.93046,16.5 -10.44402,16.5 -1.70714,0 -4.55692,-1.0125 -6.33282,-2.25 z m 10.25492,-5 c 0.79046,-1.7875 2.83842,-10.675 4.55102,-19.75 1.7126,-9.075 3.74862,-17.48148 4.5245,-18.68106 1.98598,-3.07053 -20.69698,-18.318936 -27.25055,-18.318936 -0.71199,0 -1.29453,-0.45 -1.29453,-1 0,-1.323126 -0.30685,-1.376364 9.19838,1.595891 17.12156,5.353858 26.452607,11.290875 43.462033,27.653355 8.43368,8.11292 15.71548,14.75075 16.18179,14.75075 3.51769,0 6.85518,-12.30419 5.69621,-21 -1.71159,-12.842194 -5.43157,-22.638712 -8.19396,-21.578682 -5.51371,2.115807 -6.95008,1.801382 -3.84446,-0.84156 1.65,-1.40418 3.03734,-3.571562 3.08298,-4.816404 0.0456,-1.244843 0.4151,-5.41335 0.82102,-9.26335 3.2835,-31.143056 -20.042689,-55.091676 -40.608753,-41.692356 -8.53158,5.55854 -16.2951,8.07847 -27.91588,9.06109 -6.59802,0.55791 -10.71906,1.43757 -13.01406,2.77792 -20.39699,11.91248 -6.52185,63.221882 17.1347,63.363082 4.86174,0.029 2.02461,1.75086 -4.29971,2.60948 -4.75804,0.64597 -4.79388,0.67867 -4.12768,3.76621 4.88083,22.62025 21.08511,42.24574 25.89695,31.36457 z"
         id="path1-8"
         inkscape:label="path1" /></g><path
       style="fill:#ffffff;fill-opacity:0;stroke-width:0.287786"
       d="m -120.86994,-22.559561 c -1.90079,-0.614468 -3.51842,-1.751057 -5.80813,-4.080937 -5.23564,-5.327496 -10.33611,-14.729425 -13.30613,-24.527819 -1.15387,-3.806707 -1.91289,-7.299998 -1.70426,-7.843656 0.19844,-0.517151 1.36756,-0.853866 4.99031,-1.437256 3.45147,-0.555806 6.0435,-1.420216 6.0435,-2.015437 0,-0.482605 -0.5679,-0.615735 -3.52295,-0.825873 -4.70978,-0.334922 -8.41354,-2.256239 -12.75003,-6.614049 -3.28458,-3.300731 -5.25219,-6.114189 -7.46589,-10.675375 -5.19687,-10.707848 -6.95723,-23.354727 -4.56658,-32.807557 1.13003,-4.46825 3.14059,-8.07235 5.99028,-10.73809 3.25948,-3.04908 6.03342,-3.914 15.83999,-4.93896 11.88131,-1.24179 18.29462,-3.23521 26.48152,-8.2311 5.74273,-3.50438 8.76507,-4.52727 13.376783,-4.52727 3.429555,0 5.983676,0.61789 9.353032,2.26268 12.536581,6.11987 20.50752,23.24254 19.130929,41.095871 -0.704629,9.138484 -1.030851,11.83646 -1.550002,12.819089 -0.284237,0.537989 -1.351786,1.867216 -2.372334,2.95384 -2.581232,2.748349 -2.090526,3.162643 2.156774,1.820923 1.257482,-0.397239 2.498952,-0.640666 2.758817,-0.540945 0.661797,0.253956 1.984808,2.255678 2.836391,4.291473 2.573572,6.152384 4.814026,17.91069 4.374603,22.958673 -0.584354,6.712867 -2.673836,13.211243 -4.668086,14.517925 -1.173144,0.768673 -1.159284,0.779997 -14.896882,-12.170682 -13.541451,-12.765769 -19.415321,-17.524208 -26.979725,-21.856348 -5.07003,-2.903613 -9.36735,-4.738496 -17.26229,-7.370707 -6.95924,-2.320242 -10.20537,-3.224482 -10.63107,-2.961383 -0.13082,0.08085 -0.23785,0.458561 -0.23785,0.839356 0,0.764401 0.7324,1.288177 1.80128,1.288177 1.95537,0 8.37037,2.959751 13.97207,6.446432 5.56899,3.466328 11.22654,8.097057 12.2781,10.049679 0.52966,0.983516 0.52849,1.030745 -0.0737,2.971657 -1.06352,3.42767 -1.99421,7.456953 -3.94543,17.081001 -2.25594,11.127025 -3.65412,17.197894 -4.45198,19.330344 -1.02005,2.726326 -3.10923,4.109308 -5.19103,3.436324 z"
       id="path2" /></g></svg>
