<?xml version="1.0" encoding="UTF-8" standalone="no"?>
<!-- Created with Inkscape (http://www.inkscape.org/) -->

<svg
   version="1.1"
   id="svg1"
   width="187"
   height="180"
   viewBox="0 0 187 180"
   sodipodi:docname="logo.svg"
   inkscape:version="1.4 (86a8ad7, 2024-10-11)"
   xmlns:inkscape="http://www.inkscape.org/namespaces/inkscape"
   xmlns:sodipodi="http://sodipodi.sourceforge.net/DTD/sodipodi-0.dtd"
   xmlns="http://www.w3.org/2000/svg"
   xmlns:svg="http://www.w3.org/2000/svg">
  <defs
     id="defs1" />
  <sodipodi:namedview
     id="namedview1"
     pagecolor="#505050"
     bordercolor="#eeeeee"
     borderopacity="1"
     inkscape:showpageshadow="0"
     inkscape:pageopacity="0"
     inkscape:pagecheckerboard="0"
     inkscape:deskcolor="#505050"
     inkscape:zoom="6.4833333"
     inkscape:cx="93.470437"
     inkscape:cy="90"
     inkscape:window-width="3440"
     inkscape:window-height="1369"
     inkscape:window-x="2552"
     inkscape:window-y="142"
     inkscape:window-maximized="1"
     inkscape:current-layer="g1" />
  <g
     inkscape:groupmode="layer"
     inkscape:label="Image"
     id="g1">
    <path
       style="fill:#000000"
       d="m 59.51284,151.20758 c -7.646653,-5.32839 -13.365984,-15.32716 -18.081381,-31.61062 -2.20432,-7.61207 -4.387788,-12.5199 -8.230555,-18.5 C 23.908479,86.636127 23.530281,85.720531 22.250915,74.58767 19.472981,50.414489 26.673863,40.001844 47.298201,38.368701 58.745115,37.462275 64.805119,35.56209 72.917549,30.335455 c 15.783138,-10.168678 29.324161,-6.853043 40.383621,9.888274 1.49703,2.266146 1.49703,2.266146 9.49703,-1.206154 34.36132,-14.914098 60.36695,2.447595 53.38541,35.640788 -4.27409,20.320864 -24.12701,36.648527 -33.34859,27.426947 -8.72251,-8.722507 -4.00407,-40.598487 6.01318,-40.622759 4.80648,-0.01165 5.43435,3.272651 2.44728,12.801404 -7.35835,23.473208 -0.67655,34.337685 10.70873,17.412182 16.13085,-23.980333 7.7038,-54.218553 -15.1101,-54.218553 -8.84146,0 -29.59591,6.256105 -29.59591,8.921222 0,0.356453 0.93903,3.319811 2.08674,6.58524 1.44277,4.104958 2.34541,10.111909 2.92497,19.465341 0.71403,11.523646 1.31147,14.787691 4.03203,22.028197 5.54074,14.746186 5.45614,33.653966 -0.17578,39.285886 -5.62215,5.62214 -8.4096,4.16408 -27.670669,-14.47403 -13.826609,-13.37942 -17.923946,-13.70286 -18.384531,-1.45126 -1.820405,48.42295 78.67885,32.5994 92.81468,-18.244364 2.4228,-8.714355 9.37256,-11.771288 9.37256,-4.122634 0,44.464228 -77.81159,73.116818 -101.03561,37.204378 -3.227632,-4.99105 -3.292098,-4.93528 -4.972908,4.30202 -2.224424,12.22486 -4.930461,16.5 -10.444015,16.5 -1.707148,0 -4.55692,-1.0125 -6.332827,-2.25 z m 10.254924,-5 c 0.790464,-1.7875 2.838423,-10.675 4.55102,-19.75 1.712598,-9.075 3.748623,-17.48148 4.524501,-18.68106 1.985976,-3.07053 -20.696981,-18.318936 -27.250549,-18.318936 -0.711994,0 -1.294535,-0.45 -1.294535,-1 0,-1.323126 -0.306849,-1.376364 9.198378,1.595891 17.121561,5.353858 26.452615,11.290875 43.462041,27.653355 8.43368,8.11292 15.71548,14.75075 16.18179,14.75075 3.51769,0 6.85518,-12.30419 5.69621,-21 -1.71159,-12.842194 -5.43157,-22.638712 -8.19396,-21.578682 -5.51371,2.115807 -6.95008,1.801382 -3.84446,-0.84156 1.65,-1.40418 3.03734,-3.571562 3.08298,-4.816404 0.0456,-1.244843 0.4151,-5.41335 0.82102,-9.26335 3.2835,-31.143051 -20.042689,-55.091679 -40.608754,-41.69236 -8.531587,5.558548 -16.295104,8.078475 -27.91588,9.061096 -6.598026,0.557912 -10.719058,1.437568 -13.014061,2.777922 -20.396986,11.912481 -6.521854,63.221878 17.134696,63.363078 4.861746,0.029 2.024612,1.75086 -4.299711,2.60948 -4.75804,0.64597 -4.793876,0.67867 -4.127671,3.76621 4.880829,22.62025 21.085106,42.24574 25.896945,31.36457 z"
       id="path1" />
  </g>
</svg>
