<?xml version="1.0" encoding="UTF-8" standalone="no"?>
<!-- Created with Inkscape (http://www.inkscape.org/) -->

<svg
   width="210mm"
   height="297mm"
   viewBox="0 0 210 297"
   version="1.1"
   id="svg1"
   xml:space="preserve"
   inkscape:version="1.4 (86a8ad7, 2024-10-11)"
   sodipodi:docname="igiene-e-prevenzione.svg"
   xmlns:inkscape="http://www.inkscape.org/namespaces/inkscape"
   xmlns:sodipodi="http://sodipodi.sourceforge.net/DTD/sodipodi-0.dtd"
   xmlns="http://www.w3.org/2000/svg"
   xmlns:svg="http://www.w3.org/2000/svg"><sodipodi:namedview
     id="namedview1"
     pagecolor="#505050"
     bordercolor="#eeeeee"
     borderopacity="1"
     inkscape:showpageshadow="0"
     inkscape:pageopacity="0"
     inkscape:pagecheckerboard="0"
     inkscape:deskcolor="#505050"
     inkscape:document-units="mm"
     inkscape:zoom="1.0396254"
     inkscape:cx="210.65279"
     inkscape:cy="614.16351"
     inkscape:window-width="3440"
     inkscape:window-height="1369"
     inkscape:window-x="2552"
     inkscape:window-y="142"
     inkscape:window-maximized="1"
     inkscape:current-layer="layer1" /><defs
     id="defs1" /><g
     inkscape:label="Livello 1"
     inkscape:groupmode="layer"
     id="layer1"><path
       style="fill:#000000"
       d="m 84.042733,227.32131 c -5.106188,-0.70844 -9.837622,-5.42395 -12.754409,-12.7115 -1.230472,-3.07431 -1.754103,-3.92551 -2.163191,-3.51642 -0.09549,0.0955 -0.88338,1.80875 -1.750867,3.80724 -3.629227,8.36094 -8.327405,12.42445 -14.37337,12.43169 -2.233885,0.003 -3.033438,-0.17113 -4.942859,-1.07443 -5.57764,-2.63865 -10.255739,-9.99016 -14.350346,-22.55121 -3.553897,-10.90231 -6.638937,-26.11148 -6.643725,-32.7534 -0.0078,-10.88593 3.919315,-19.36786 11.231923,-24.25883 3.223644,-2.1561 5.44528,-2.86072 9.019741,-2.86072 3.540671,0 5.416163,0.58262 12.223978,3.79734 6.692295,3.16018 8.040899,3.66457 9.798076,3.66457 1.83859,0 2.913035,-0.40054 9.602235,-3.5796 7.125904,-3.38661 9.356109,-4.01458 13.546098,-3.81426 2.711153,0.12962 3.43288,0.31685 5.876099,1.52436 3.970854,1.9625 7.951874,6.00143 9.988144,10.13345 2.51971,5.11302 3.04363,7.68804 3.07257,15.10149 0.024,6.152 -0.0322,6.6805 -1.47461,13.85783 -6.09009,30.30435 -14.603388,44.37046 -25.905487,42.8024 z M 55.7304,220.9089 c 2.654844,-1.28519 4.637364,-4.05706 6.86788,-9.60237 1.95831,-4.86858 5.056088,-7.32494 8.008749,-6.35047 2.082261,0.68721 3.827272,2.53217 5.109788,5.40246 2.528423,5.65865 3.31138,7.05394 4.842022,8.62886 5.695785,5.86053 11.52194,2.01975 16.852285,-11.10954 2.911266,-7.1708 5.396286,-16.35185 7.332376,-27.08988 1.58718,-8.8029 1.48246,-14.37099 -0.37288,-19.8259 -2.13096,-6.26527 -7.117251,-10.95453 -12.071286,-11.35219 -2.852688,-0.22899 -4.34525,0.2493 -11.938099,3.82549 -6.480543,3.05231 -9.898942,4.09014 -12.204918,3.70543 -2.250589,-0.37547 -6.051714,-1.82816 -10.180815,-3.89084 -7.90982,-3.95133 -10.965025,-4.51427 -14.746156,-2.71703 -7.391112,3.51312 -11.238906,12.56786 -10.122119,23.81967 1.14316,11.51751 5.994288,29.51516 10.2108,37.88199 4.026243,7.98928 8.037192,10.79231 12.412373,8.67432 z m -3.548057,-35.23517 c -0.470096,-0.63515 -1.466443,-2.30514 -2.214105,-3.7111 -1.298048,-2.44093 -1.487677,-2.62531 -4.202646,-4.08628 -4.075094,-2.19288 -4.490556,-2.57765 -4.490556,-4.15883 0,-1.65641 0.633445,-2.26799 4.489851,-4.33489 2.862678,-1.53429 2.90679,-1.5792 4.523226,-4.60432 1.896826,-3.54987 2.671489,-4.36256 4.158426,-4.36256 1.407457,0 2.146129,0.77982 4.173149,4.40558 1.619916,2.89757 1.746386,3.02404 4.625427,4.62543 3.676881,2.04516 4.443342,2.78452 4.401785,4.24613 -0.04323,1.52042 -0.620702,2.07028 -4.292366,4.08712 -3.107084,1.70672 -3.160135,1.75887 -4.667802,4.58795 -2.044542,3.83651 -2.647322,4.46059 -4.308375,4.46059 -1.101042,0 -1.494392,-0.20685 -2.196014,-1.15482 z m 3.129192,-9.15166 c 0.303734,-0.58736 1.209513,-1.48284 2.01284,-1.98995 l 1.460596,-0.92204 -1.374647,-0.77109 c -0.756055,-0.42409 -1.721635,-1.38967 -2.145733,-2.14573 l -0.771087,-1.37465 -0.922636,1.46155 c -0.507449,0.80385 -1.495862,1.75564 -2.196473,2.11507 l -1.273838,0.65352 1.422077,0.94108 c 0.782142,0.5176 1.709041,1.42688 2.059775,2.02063 0.795871,1.3473 1.037576,1.34892 1.729126,0.0116 z m 69.343665,21.58714 c -0.44029,-0.44029 -1.50745,-2.12728 -2.37147,-3.74887 l -1.57094,-2.94833 -3.25523,-1.76006 c -1.79038,-0.96803 -3.45021,-1.99498 -3.68851,-2.28212 -0.6035,-0.72717 -0.54198,-3.0011 0.0985,-3.6416 0.29249,-0.29249 1.93655,-1.28501 3.65348,-2.2056 l 3.12168,-1.6738 1.84001,-3.31869 c 1.98975,-3.58878 2.63933,-4.27008 4.07127,-4.27008 1.41783,0 2.00192,0.61529 4.01145,4.22575 l 1.85148,3.32649 3.19796,1.74648 c 3.62315,1.97869 4.08629,2.4427 4.08629,4.09403 0,1.51395 -0.61807,2.10165 -4.34914,4.13546 l -3.05433,1.66492 -1.81388,3.36473 c -0.99763,1.8506 -2.11955,3.52832 -2.49316,3.72827 -1.11262,0.59546 -2.48252,0.41599 -3.33549,-0.43698 z m 2.69867,-9.6462 c 0.33709,-0.7069 1.17735,-1.54608 2.02516,-2.02258 l 1.44903,-0.8144 -1.54631,-0.96245 c -0.88326,-0.54976 -1.7419,-1.43466 -2.00246,-2.06371 -0.25089,-0.60569 -0.57148,-1.10126 -0.71243,-1.10126 -0.14094,0 -0.56126,0.57449 -0.93404,1.27663 -0.38814,0.73107 -1.24721,1.56932 -2.01027,1.96153 -0.73286,0.3767 -1.33248,0.75138 -1.33248,0.83261 0,0.0812 0.61019,0.49066 1.35597,0.90981 0.74579,0.41915 1.6504,1.30882 2.01027,1.97705 0.35986,0.66822 0.75939,1.21494 0.88785,1.21494 0.12846,0 0.49283,-0.54368 0.80971,-1.20817 z m 36.5097,-2.36723 c -1.23759,-0.55507 -8.08272,-7.19748 -30.28649,-29.38954 l -28.68751,-28.67238 -7.220503,7.18927 c -7.548463,7.51582 -7.832446,7.70992 -9.774734,6.68097 -1.639839,-0.86873 -31.625656,-31.18997 -31.881081,-32.2377 -0.126583,-0.51923 -0.03963,-1.31872 0.193222,-1.77665 0.232856,-0.45792 3.452512,-3.88025 7.154794,-7.60518 l 6.73142,-6.772607 -0.995153,-1.92019 c -0.852306,-1.64457 -0.993667,-2.33008 -0.984796,-4.7756 0.0087,-2.38743 0.165065,-3.15181 0.954335,-4.66403 1.103973,-2.11517 2.987327,-3.87768 5.179971,-4.84759 2.178107,-0.96348 5.846061,-0.93478 8.124044,0.0636 1.427886,0.62579 9.579731,8.60671 47.849221,46.845967 34.51675,34.48948 46.36575,46.53888 47.07215,47.86831 0.77845,1.46503 0.94561,2.24849 0.95299,4.46674 0.008,2.30276 -0.14544,2.99198 -1.06335,4.7868 -1.18924,2.32539 -3.58817,4.41567 -5.84298,5.09122 -2.1405,0.64131 -5.65411,0.48557 -7.47555,-0.33137 z m 6.36081,-5.46733 c 1.83174,-0.94723 2.73788,-3.12307 2.16227,-5.19208 -0.26759,-0.96184 -10.0914,-10.97221 -46.14269,-47.01894 L 80.441237,82.620493 78.713423,82.471363 c -2.167242,-0.18705 -3.845081,0.76455 -4.620598,2.62063 -1.233588,2.95239 -4.277158,-0.35638 45.643805,49.620947 25.14926,25.17766 46.04572,45.9143 46.43658,46.08143 1.11004,0.47464 2.9589,0.39892 4.05117,-0.16592 z M 99.200356,122.34312 c -0.866778,-0.88318 -1.745267,-1.60578 -1.952198,-1.60578 -0.206932,0 -2.119047,1.74823 -4.249145,3.88495 -2.130098,2.13672 -4.247401,3.97894 -4.705117,4.09382 -0.967584,0.24285 -2.772379,-0.58647 -3.092658,-1.4211 -0.121399,-0.31636 -0.220724,-1.06697 -0.220724,-1.66803 0,-0.91699 0.657114,-1.75814 4.083945,-5.2277 l 4.083945,-4.13488 -1.771495,-1.74486 -1.771495,-1.74485 -4.210856,4.15899 c -3.520245,3.47688 -4.388398,4.15899 -5.293383,4.15899 -1.486904,0 -2.562986,-0.98635 -2.818767,-2.58372 -0.211686,-1.322 -0.157847,-1.39752 3.99139,-5.5985 l 4.20597,-4.25842 -1.567261,-1.59692 c -0.861994,-0.87831 -1.736569,-1.59692 -1.943501,-1.59692 -0.206931,0 -2.119046,1.74823 -4.249144,3.88495 -2.130099,2.13672 -4.247401,3.97894 -4.705117,4.09382 -0.967585,0.24285 -2.772379,-0.58647 -3.092659,-1.4211 -0.121398,-0.31636 -0.220723,-1.06697 -0.220723,-1.66803 0,-0.91699 0.657114,-1.75814 4.083945,-5.22771 l 4.083945,-4.13487 -1.778941,-1.752187 -1.77894,-1.75219 -5.681838,5.673507 -5.681837,5.67351 13.235643,13.23918 13.235644,13.23917 5.678666,-5.67866 5.67867,-5.67867 z M 40.14088,139.59243 c -0.481066,-0.37841 -1.406722,-1.69757 -2.057014,-2.93147 -1.887837,-3.58208 -2.338855,-4.05559 -5.508942,-5.7836 -3.195716,-1.74199 -4.09859,-2.6469 -4.080436,-4.08966 0.01698,-1.34917 0.591479,-1.88628 4.080834,-3.81524 3.15751,-1.74552 3.211765,-1.79867 5.005201,-4.90342 1.93909,-3.35691 2.95944,-4.43828 4.187808,-4.43828 1.342133,0 2.295451,1.01262 4.115144,4.37115 l 1.77087,3.26842 3.06452,1.5886 c 3.195738,1.65661 4.414006,2.7787 4.414006,4.06552 0,1.33338 -1.018604,2.29016 -4.371157,4.10583 l -3.268419,1.77011 -1.704217,3.19837 c -2.285686,4.28964 -3.65546,5.16115 -5.648198,3.59367 z m 3.452332,-10.85165 c 0.590988,-0.59099 1.376691,-1.24315 1.746006,-1.44925 0.614,-0.34265 0.559393,-0.44087 -0.637899,-1.14729 -0.72016,-0.4249 -1.644144,-1.33993 -2.053297,-2.03339 -0.790889,-1.34046 -1.44961,-1.25811 -1.925308,0.24068 -0.123483,0.38906 -0.920379,1.14868 -1.770881,1.68805 l -1.546367,0.98068 1.211202,0.57758 c 0.666161,0.31767 1.651587,1.24305 2.189835,2.0564 0.882013,1.33281 1.014845,1.41376 1.345409,0.81994 0.201727,-0.36238 0.850312,-1.14241 1.4413,-1.7334 z"
       id="path1-2" /></g></svg>
