<?xml version="1.0" encoding="UTF-8" standalone="no"?>
<!-- Created with Inkscape (http://www.inkscape.org/) -->

<svg
   width="210mm"
   height="297mm"
   viewBox="0 0 210 297"
   version="1.1"
   id="svg1"
   xml:space="preserve"
   inkscape:version="1.4 (86a8ad7, 2024-10-11)"
   sodipodi:docname="laser.svg"
   xmlns:inkscape="http://www.inkscape.org/namespaces/inkscape"
   xmlns:sodipodi="http://sodipodi.sourceforge.net/DTD/sodipodi-0.dtd"
   xmlns="http://www.w3.org/2000/svg"
   xmlns:svg="http://www.w3.org/2000/svg"><sodipodi:namedview
     id="namedview1"
     pagecolor="#505050"
     bordercolor="#eeeeee"
     borderopacity="1"
     inkscape:showpageshadow="0"
     inkscape:pageopacity="0"
     inkscape:pagecheckerboard="0"
     inkscape:deskcolor="#505050"
     inkscape:document-units="mm"
     inkscape:zoom="1.0396254"
     inkscape:cx="397.25847"
     inkscape:cy="561.25984"
     inkscape:window-width="3440"
     inkscape:window-height="1369"
     inkscape:window-x="2552"
     inkscape:window-y="142"
     inkscape:window-maximized="1"
     inkscape:current-layer="layer1" /><defs
     id="defs1" /><g
     inkscape:label="Livello 1"
     inkscape:groupmode="layer"
     id="layer1"><path
       style="display:inline;fill:#000000"
       d="m 89.654952,215.85556 c -4.326414,-1.18663 -10.125106,-8.16441 -13.210868,-15.89713 -2.090531,-5.23874 -2.80074,-9.08694 -3.151648,-17.07694 -0.124728,-2.83997 -0.375648,-5.75889 -0.557601,-6.4865 -0.438931,-1.75522 -1.84468,-5.10678 -4.438984,-10.58333 -3.622568,-7.6472 -4.658769,-11.58465 -4.630346,-17.59479 0.01418,-2.99745 0.136706,-4.27363 0.560285,-5.83549 2.12853,-7.8485 7.665456,-12.78601 16.332835,-14.56468 2.201691,-0.45182 8.197018,-0.39273 11.41425,0.11249 2.484167,0.39011 6.756609,1.6791 10.083145,3.04207 l 1.38906,0.56914 v -3.96489 -3.96489 l -0.99219,-0.006 c -1.41796,-0.008 -3.048146,-0.83493 -3.933314,-1.99448 l -0.763035,-0.99956 -0.08157,-5.24695 -0.08157,-5.24695 -1.109057,-0.001 c -2.658413,-0.004 -4.625232,-1.35729 -5.181492,-3.5664 -0.161255,-0.6404 -0.293191,-2.95153 -0.293191,-5.13583 v -3.971465 l -0.949545,-0.45059 c -1.326093,-0.62927 -1.763301,-1.73858 -3.013359,-7.645676 -1.180435,-5.578097 -1.251053,-6.360682 -0.651242,-7.217032 0.984512,-1.405588 0.645265,-1.380277 18.500125,-1.380277 17.79418,0 17.8079,9.9e-4 18.75547,1.353839 0.23731,0.338793 0.43146,0.984198 0.43146,1.434235 0,1.143508 -2.31666,11.400801 -2.7752,12.287501 -0.20707,0.40044 -0.79846,0.9283 -1.31418,1.17303 l -0.93771,0.44497 v 3.971465 c 0,2.1843 -0.13127,4.4928 -0.29172,5.13 -0.53382,2.12002 -2.65905,3.5737 -5.22461,3.5737 h -0.78409 l -0.0959,4.96094 c -0.10231,5.29258 -0.22957,5.86482 -1.58578,7.13112 -0.84431,0.78833 -2.38408,1.40169 -3.51876,1.40169 h -0.93454 v 3.95375 3.95374 l 1.91822,-0.79457 c 7.9741,-3.30304 16.54864,-4.16461 23.2342,-2.33458 3.64551,0.99788 6.18703,2.46704 8.88076,5.13363 2.08793,2.0669 2.57808,2.73201 3.61448,4.9047 1.72286,3.61176 2.13858,5.5078 2.1464,9.78958 0.011,6.02407 -1.07471,10.07348 -4.78676,17.85329 -4.3742,9.16759 -4.51255,9.64471 -4.83825,16.68614 -0.31643,6.84092 -0.84482,10.33779 -2.16429,14.32315 -3.82107,11.54129 -11.78145,20.3182 -17.12337,18.87977 -1.58497,-0.42679 -3.55287,-2.3225 -4.51675,-4.35106 -1.51641,-3.1914 -1.60196,-3.9637 -1.60414,-14.48157 -10e-4,-5.40397 -0.12315,-10.37271 -0.27847,-11.33889 -0.84309,-5.24446 -4.44847,-8.30074 -7.99626,-6.77842 -1.94002,0.83244 -3.631966,3.6008 -4.142796,6.77842 -0.15489,0.96349 -0.27735,5.90112 -0.27847,11.22789 -0.002,10.40611 -0.11222,11.4045 -1.607098,14.58269 -1.669109,3.54862 -4.366185,5.09556 -7.422539,4.25728 z m 2.68048,-3.21412 c 0.934521,-0.48326 2.001852,-2.23862 2.673677,-4.3972 0.449653,-1.44474 0.498474,-2.54174 0.498474,-11.20066 0,-10.6569 0.223443,-12.93463 1.553317,-15.83423 2.125994,-4.63544 6.53518,-6.7847 10.69604,-5.21382 1.92145,0.72542 4.0139,2.73241 5.01514,4.81032 1.54553,3.20746 1.59478,3.64769 1.77099,15.82977 0.15454,10.68303 0.19103,11.31496 0.73056,12.64948 0.78658,1.94559 1.75578,3.12706 2.86575,3.49338 0.83906,0.27691 1.09611,0.23534 2.35587,-0.381 2.85833,-1.39845 6.78197,-6.34316 9.40842,-11.85681 2.43838,-5.11882 3.28352,-9.19709 3.70911,-17.8984 0.35893,-7.33831 0.63469,-8.33004 4.64316,-16.69832 2.73534,-5.71043 4.11526,-9.52028 4.73226,-13.06538 2.17535,-12.49899 -4.48551,-21.35616 -16.75717,-22.28255 -1.28416,-0.0969 -3.10767,-0.0935 -4.05224,0.008 l -1.7174,0.18391 -0.43788,2.03391 c -1.04401,4.84936 -4.19681,9.07474 -8.22749,11.02648 -3.02204,1.46333 -7.51051,1.89422 -10.82629,1.03931 -3.995173,-1.03007 -7.503902,-3.94555 -9.393902,-7.80558 -1.013158,-2.06923 -1.889078,-4.77371 -1.889078,-5.83271 0,-0.94375 -6.267415,-0.98857 -10.040656,-0.0718 -6.190255,1.50401 -10.786587,5.93566 -12.321773,11.8803 -0.651871,2.52421 -0.766558,6.23281 -0.28908,9.34791 0.583859,3.80915 1.896104,7.53055 4.77398,13.53854 4.008472,8.36828 4.284233,9.36001 4.643157,16.69832 0.145115,2.96692 0.438959,6.54255 0.652986,7.94585 1.093093,7.16704 5.137283,15.29687 9.887054,19.87544 2.553659,2.46162 3.806657,2.97236 5.343014,2.17788 z M 74.6055,153.77312 c -0.6482,-0.6482 -0.687242,-2.07434 -0.122385,-4.47063 1.108863,-4.70415 4.857828,-8.88142 9.413924,-10.48944 0.637727,-0.22508 2.031968,-0.53064 3.098314,-0.67903 2.415038,-0.33605 3.220563,0.0327 3.220563,1.47438 0,0.49738 -0.148828,1.00027 -0.330729,1.11753 -0.181901,0.11726 -1.235307,0.34537 -2.340903,0.50691 -3.558964,0.52001 -6.512575,2.27959 -8.326119,4.96018 -1.078129,1.59358 -1.966831,4.24545 -1.966831,5.86898 0,0.92026 -0.136125,1.25062 -0.69714,1.69192 -0.871486,0.68551 -1.278377,0.68952 -1.948694,0.0192 z m 58.90547,-0.0192 c -0.56102,-0.4413 -0.69714,-0.77166 -0.69714,-1.69192 0,-2.7595 -2.00025,-6.6593 -4.32157,-8.42559 -1.55435,-1.1827 -3.79879,-2.08613 -5.97138,-2.40357 -1.1056,-0.16154 -2.15901,-0.38965 -2.34091,-0.50691 -0.1819,-0.11726 -0.33073,-0.62015 -0.33073,-1.11753 0,-1.45156 0.80124,-1.811 3.27118,-1.46746 3.56879,0.49637 6.40582,1.95667 8.91761,4.59012 3.01124,3.15711 4.97364,9.49005 3.42163,11.04206 -0.67032,0.67032 -1.07721,0.66631 -1.94869,-0.0192 z M 108.79696,141.582 c 4.10322,-1.38227 7.41971,-5.09478 8.0451,-9.00577 l 0.17383,-1.08708 -0.89843,0.18642 c -1.42573,0.29584 -5.3254,1.62929 -7.50178,2.56515 l -1.9956,0.85813 v 2.04609 c 0,1.81444 -0.0666,2.09272 -0.58804,2.45797 -0.79144,0.55435 -1.4221,0.5184 -2.0578,-0.11729 -0.43351,-0.43351 -0.52916,-0.88194 -0.52916,-2.48077 v -1.95161 l -2.57969,-1.06637 c -2.557886,-1.05735 -6.781121,-2.43875 -7.455797,-2.43875 -0.527359,0 -0.148669,1.93096 0.752386,3.83646 1.368215,2.89342 3.6668,4.97502 6.766611,6.12782 2.17392,0.80847 5.58549,0.83865 7.86837,0.0696 z m 0.18516,-21.84352 c 0.50554,-0.64268 0.54837,-1.04568 0.54837,-5.15937 v -4.46224 h -4.36562 -4.36562 v 4.7475 c 0,5.89081 -0.25269,5.57125 4.40529,5.57125 3.17343,0 3.23869,-0.012 3.77758,-0.69714 z m 6.53805,-13.4633 c 0.26807,-0.36661 0.36032,-1.5637 0.36032,-4.67554 V 97.416875 H 105.03258 94.184666 v 4.233335 c 0,3.67897 0.06063,4.29396 0.463021,4.69635 0.425442,0.42544 1.276603,0.46133 10.487583,0.44221 9.45907,-0.0196 10.0449,-0.0486 10.3849,-0.51359 z m 3.45994,-13.540075 c 0.624,-2.40575 1.29853,-2.19739 -7.11368,-2.19739 -6.5644,0 -7.51137,-0.0522 -7.9375,-0.43788 -0.57891,-0.523913 -0.6237,-1.38624 -0.10862,-2.09124 0.35323,-0.483469 0.84475,-0.521349 8.38075,-0.645882 l 8.00552,-0.132292 0.33929,-1.455208 c 0.18661,-0.800365 0.34433,-1.544505 0.3505,-1.653646 0.006,-0.109141 -7.13254,-0.198437 -15.86379,-0.198437 -8.731247,0 -15.874997,0.04258 -15.874997,0.09462 0,0.168927 2.117546,9.554435 2.217213,9.827255 0.06306,0.17262 4.820095,0.24666 13.686104,0.21301 l 13.58945,-0.0516 z M 93.595381,126.1381 c -0.657001,-0.50166 -2.042933,-1.84111 -3.079849,-2.97656 -2.007445,-2.19821 -2.315765,-3.04973 -1.403261,-3.87554 1.021251,-0.92421 1.647818,-0.58642 4.756302,2.5642 3.117306,3.15957 3.479586,3.85577 2.478072,4.76212 -0.725685,0.65674 -1.428818,0.53554 -2.751264,-0.47422 z m 20.221359,0.59461 c -0.17462,-0.17463 -0.3175,-0.68259 -0.3175,-1.1288 0,-0.68144 0.47709,-1.28703 2.98071,-3.78354 3.1464,-3.13748 3.70629,-3.429 4.69221,-2.44308 0.99018,0.99018 0.69741,1.54414 -2.47963,4.69187 -2.45727,2.4346 -3.15082,2.98105 -3.78355,2.98105 -0.4261,0 -0.91761,-0.14288 -1.09224,-0.3175 z"
       id="path1-9" /><path
       style="display:none;fill:#000000"
       d="m 39.532542,196.05657 c -2.77135,-1.12593 -4.919668,-3.91853 -6.48191,-8.42582 -1.021795,-2.94804 -2.636618,-10.83751 -3.306546,-16.15465 -0.747436,-5.93233 -1.677021,-9.58724 -3.38712,-13.31737 L 25.9122,157.1886 h -4.639354 c -4.172835,0 -4.716561,-0.0719 -5.407159,-0.71532 -1.030516,-0.96008 -1.29311,-2.19795 -0.719867,-3.39349 0.676022,-1.40989 1.87422,-1.87729 4.827737,-1.88322 l 2.591161,-0.005 -0.957489,-1.63383 c -4.074869,-6.95324 -6.210354,-13.66382 -6.742328,-21.1872 -0.398585,-5.63693 0.901279,-11.76779 3.449586,-16.27011 0.624922,-1.10411 2.337726,-3.21585 3.806232,-4.69276 2.168667,-2.18109 3.299296,-2.99029 6.0214,-4.30959 4.654123,-2.25567 7.287315,-2.83255 12.876389,-2.82095 3.575558,0.007 5.207989,0.17779 7.408333,0.77315 2.895241,0.78338 7.236989,2.675 8.966553,3.90655 l 0.973112,0.69292 1.333577,-0.90619 c 5.447787,-3.70186 14.003917,-5.421425 20.949058,-4.21022 10.595967,1.84789 17.360817,7.82153 20.413879,18.02629 0.50589,1.6909 0.63327,3.37623 0.63327,8.37856 v 6.2619 h 3.35139 3.35139 l 4.8e-4,-6.2619 c 3.8e-4,-5.0144 0.12984,-6.71872 0.64982,-8.55495 2.495,-8.81078 8.70627,-14.88918 17.71461,-17.33568 3.6329,-0.98663 10.75625,-1.079445 14.38306,-0.18742 3.02275,0.74346 6.9929,2.38932 9.03065,3.74374 l 1.56196,1.03818 0.96771,-0.68907 c 1.72463,-1.22805 6.06951,-3.1203 8.96115,-3.90271 2.20035,-0.59536 3.83278,-0.76572 7.40834,-0.77315 5.57777,-0.0116 8.22573,0.56619 12.82628,2.79861 2.64804,1.28497 3.84022,2.13772 6.02494,4.30959 4.28599,4.26077 6.37876,8.74755 7.15744,15.34518 0.9454,8.01017 -1.52237,18.39791 -6.22062,26.18481 l -1.26696,2.09986 2.96946,0.18365 c 2.19709,0.13587 3.15533,0.35185 3.68405,0.83033 1.39498,1.26244 1.26353,3.52759 -0.27319,4.70744 -0.37262,0.28609 -2.10779,0.43351 -5.1906,0.44098 l -4.63086,0.0112 -0.71397,1.67569 c -1.40589,3.29967 -2.21602,6.63032 -3.07861,12.65679 -1.95932,13.6889 -3.80787,19.59281 -7.12393,22.75239 -2.56322,2.44227 -6.64732,3.11488 -8.87804,1.46211 -3.50043,-2.59351 -6.31517,-10.05642 -8.35148,-22.14282 -1.3983,-8.29956 -2.35571,-10.77482 -4.15744,-10.7485 -2.03422,0.0297 -2.83538,1.80019 -4.10141,9.06367 -2.15398,12.35787 -4.17038,18.65678 -7.16543,22.38373 -2.0597,2.56302 -5.0705,3.10669 -8.29796,1.49838 -4.6661,-2.32522 -7.09409,-8.76358 -9.24225,-24.50794 -0.74591,-5.46696 -1.96729,-10.30026 -3.22714,-12.77059 l -0.67468,-1.32291 H 105.0211 90.897737 l -0.866682,1.95972 c -1.367732,3.09268 -2.221682,6.61951 -2.984926,12.32778 -1.413586,10.57215 -3.302341,17.65467 -5.597655,20.99027 -3.116985,4.52968 -8.246942,5.59987 -11.377919,2.37361 -3.188132,-3.28515 -5.373374,-9.75429 -7.696289,-22.7839 -1.329093,-7.4551 -2.098022,-9.18138 -4.103165,-9.21182 -1.743671,-0.0265 -2.627821,2.07775 -3.854591,9.17366 -3.502846,20.26126 -7.659119,26.97394 -14.883968,24.03865 z m 4.443333,-7.56072 c 1.425008,-2.98584 2.936333,-8.52458 4.066518,-14.90309 0.515686,-2.91041 1.174649,-6.41331 1.464361,-7.78421 0.902692,-4.27148 2.576084,-6.69159 5.622865,-8.13196 4.22922,-1.99937 8.586095,-0.18664 10.999809,4.5766 0.656156,1.29486 1.252133,3.74431 2.112716,8.6832 1.684522,9.66749 2.797656,13.81793 4.757176,17.73762 1.175375,2.35115 1.89642,2.57026 3.232577,0.98233 1.628252,-1.93507 3.645793,-9.54291 4.68093,-17.65108 1.354379,-10.60876 2.734282,-14.59322 8.421618,-24.31731 1.2972,-2.21793 2.809897,-5.02803 3.36155,-6.24467 l 1.003005,-2.21209 -1.469413,-0.1777 c -0.808177,-0.0977 -4.882537,-0.26949 -9.054135,-0.38166 -4.171597,-0.11218 -8.418159,-0.2999 -9.436805,-0.41717 l -1.852084,-0.21321 v 4.08585 c 0,3.81054 -0.05737,4.15253 -0.851399,5.07565 l -0.8514,0.98981 H 58.51957 46.855376 l -0.978156,-0.97757 c -0.968609,-0.96803 -0.979329,-1.02895 -1.098285,-6.24079 l -0.120129,-5.26322 -0.938205,-0.19175 c -0.516012,-0.10547 -3.497306,-0.58575 -6.625096,-1.0673 -7.822934,-1.20439 -8.648864,-1.41911 -9.570747,-2.48806 -0.884547,-1.02566 -0.986683,-1.8355 -0.39521,-3.13364 0.791405,-1.73695 1.655588,-1.77858 9.870628,-0.47549 l 7.54611,1.19699 0.204782,-3.34636 c 0.18867,-3.08306 0.280429,-3.41142 1.1662,-4.17333 l 0.961418,-0.82698 h 11.573888 11.573888 l 0.930051,0.93005 c 0.907695,0.9077 0.93005,1.03825 0.93005,5.43134 v 4.50129 l 2.734028,0.22848 c 5.517138,0.46107 20.377087,0.8474 20.694625,0.53803 0.606108,-0.59052 0.671221,-9.13004 0.09044,-11.8611 -1.444829,-6.79415 -5.797897,-11.62464 -12.392831,-13.75202 -2.356498,-0.76016 -3.521901,-0.91772 -6.892928,-0.93192 -6.07465,-0.0256 -10.330874,1.32079 -14.763895,4.67026 -2.447188,1.84903 -3.478493,1.85854 -5.841019,0.0539 -4.324878,-3.30367 -8.67627,-4.72392 -14.496475,-4.73151 -6.081082,-0.008 -10.479225,1.51209 -14.290715,4.93895 -5.67424,5.10163 -7.355996,14.27436 -4.543922,24.78371 0.956966,3.5764 2.429482,6.8441 5.253823,11.65891 5.58254,9.51685 7.073339,13.7049 8.288042,23.28333 1.155157,9.10888 3.036883,16.31448 4.827921,18.48732 1.526254,1.85161 2.175652,1.67354 3.422218,-0.9384 z m 92.943165,0.70733 c 1.77736,-3.11069 3.51443,-9.63246 5.0035,-18.78542 1.01758,-6.25485 2.04696,-9.05782 4.06902,-11.07988 3.88522,-3.88522 9.77967,-3.07142 12.87489,1.77753 1.09382,1.71357 1.71011,4.01499 2.82169,10.53707 1.22201,7.17005 2.6971,12.84171 4.16769,16.02461 1.29762,2.80852 1.64682,3.18068 2.67749,2.85356 2.05443,-0.65205 4.45843,-8.7187 5.8363,-19.58372 1.2147,-9.57843 2.7055,-13.76648 8.28804,-23.28333 3.88647,-6.62549 5.4542,-10.8373 6.36861,-17.10973 0.80016,-5.48877 -0.39333,-12.23905 -2.83733,-16.04768 -2.25806,-3.51888 -6.49028,-6.46383 -10.97831,-7.63915 -3.02427,-0.79199 -9.24942,-0.79036 -12.28009,0.003 -2.77565,0.72679 -5.96158,2.30545 -8.35017,4.1376 -2.35732,1.80816 -3.34635,1.79545 -5.81273,-0.0747 -4.3422,-3.29251 -8.78237,-4.68842 -14.79218,-4.65037 -3.35313,0.0212 -4.54895,0.18422 -6.89293,0.93953 -6.59354,2.12467 -10.94785,6.9562 -12.39283,13.75105 -0.58081,2.73119 -0.51563,11.27594 0.0904,11.85508 0.31473,0.30075 14.62781,-0.0645 20.51823,-0.52356 l 2.91042,-0.22683 v -4.50634 c 0,-4.39855 0.0222,-4.52858 0.93005,-5.43639 l 0.93005,-0.93005 h 11.57389 11.57389 l 0.97148,0.83563 c 0.90858,0.78153 0.98098,1.05282 1.11818,4.18981 0.12564,2.8727 0.22955,3.33728 0.72389,3.23658 0.31745,-0.0647 3.79218,-0.62737 7.72162,-1.25043 7.7783,-1.23335 8.39149,-1.19156 9.22076,0.62849 0.58461,1.28308 0.47979,2.09627 -0.402,3.11873 -0.92189,1.06895 -1.74782,1.28367 -9.57075,2.48806 -3.12779,0.48155 -6.12346,0.96499 -6.65703,1.07431 l -0.97014,0.19877 v 4.68183 c 0,2.575 -0.16159,5.14535 -0.35908,5.71188 -0.70256,2.01536 -0.9761,2.06376 -12.34092,2.18343 -5.72382,0.0603 -10.94062,0.0101 -11.59289,-0.11157 -0.65227,-0.12164 -1.56508,-0.6003 -2.02847,-1.0637 -0.79203,-0.79203 -0.84253,-1.08954 -0.84253,-4.96408 v -4.12155 l -1.85208,0.21321 c -1.01865,0.11727 -5.26521,0.30499 -9.43681,0.41717 -4.1716,0.11217 -8.24736,0.28413 -9.05726,0.38213 l -1.47253,0.17817 1.10083,2.36365 c 0.60545,1.30001 2.11945,4.1099 3.36445,6.2442 5.51237,9.44993 7.08195,13.91136 8.19132,23.28334 0.98784,8.3453 3.22334,16.69519 4.97052,18.56555 1.28777,1.37857 1.89467,1.27699 2.90181,-0.48569 z m -21.28893,-38.27639 c -5e-4,-0.14552 -0.53493,-1.15016 -1.18763,-2.23254 -1.34376,-2.22838 -3.58045,-7.06884 -3.94026,-8.52718 l -0.23936,-0.97014 h -5.21518 -5.215184 l -0.242121,0.97014 c -0.389015,1.55872 -2.280383,5.71653 -3.759083,8.26363 -0.751823,1.29503 -1.366951,2.44597 -1.366951,2.55764 0,0.11167 4.7625,0.20303 10.583339,0.20303 5.82083,0 10.58292,-0.11906 10.58243,-0.26458 z M 65.889341,140.07887 c 0,-1.26118 -0.03969,-2.29336 -0.08819,-2.29373 -0.04851,-3.8e-4 -3.34257,-0.31757 -7.320139,-0.70488 -3.97757,-0.3873 -7.351007,-0.7045 -7.496528,-0.70487 -0.327054,-8.4e-4 -0.354796,5.43596 -0.0294,5.76135 0.129352,0.12936 3.542477,0.23519 7.584722,0.23519 h 7.349537 z m 93.412189,-0.79375 c 0.0564,-1.60073 -0.023,-2.91011 -0.17639,-2.90973 -0.15337,3.7e-4 -3.53323,0.31757 -7.51079,0.70487 -3.97757,0.38731 -7.27164,0.7045 -7.32014,0.70488 -0.0485,3.7e-4 -0.0882,1.03571 -0.0882,2.30075 v 2.30007 l 7.49653,-0.0952 7.49653,-0.0952 z m -93.412189,-9.78958 v -2.29306 h -7.584722 -7.584722 v 1.5875 c 0,1.40414 0.09168,1.59022 0.79375,1.61105 0.436562,0.0129 3.571875,0.311 6.967361,0.66233 3.395486,0.35133 6.451423,0.65823 6.790972,0.68201 0.529077,0.037 0.617361,-0.28469 0.617361,-2.24983 z m 87.097349,1.40198 c 2.9861,-0.28602 5.64517,-0.52004 5.90902,-0.52004 0.3334,0 0.47975,-0.48426 0.47975,-1.5875 v -1.5875 h -7.58473 -7.58472 v 2.30521 2.30521 l 1.6757,-0.19767 c 0.92163,-0.10872 4.11887,-0.43169 7.10498,-0.71771 z"
       id="path1-4" /><path
       style="display:none;fill:#000000"
       d="m 49.743593,211.16246 c -5.821708,-1.25487 -10.719978,-6.17642 -12.030674,-12.08784 -0.375401,-1.69312 -0.416509,-4.44361 -0.348987,-23.35043 l 0.07654,-21.43125 0.722017,-1.9784 c 1.430584,-3.91995 4.243419,-7.14835 7.744649,-8.88884 2.584325,-1.28468 4.353566,-1.69369 7.342187,-1.69733 1.418828,-0.002 2.579688,-0.0798 2.579688,-0.17355 0,-0.0937 -1.125913,-2.44521 -2.502029,-5.22552 -2.45061,-4.95122 -4.762264,-11.0615 -5.960941,-15.75625 -2.628952,-10.29659 0.319737,-20.4284 8.089602,-27.796195 3.559852,-3.375639 7.438389,-5.533537 12.225163,-6.8017 2.228198,-0.590318 3.110647,-0.680618 6.669037,-0.682436 3.8279,-0.002 4.312506,0.05616 7.276041,0.872623 3.941365,1.085853 6.712806,1.182933 9.525,0.333646 3.383612,-1.021856 4.972082,-1.249545 8.598952,-1.232563 5.282142,0.02473 9.362212,1.136051 13.857502,3.774467 5.29233,3.106219 9.62901,8.172261 11.93947,13.947488 2.21013,5.52446 2.52739,10.99948 1.03347,17.83477 l -0.14457,0.66146 2.91157,-0.0891 c 3.35689,-0.10272 5.81123,0.31716 8.95126,1.53136 5.45449,2.10917 10.28658,6.93337 12.473,12.45263 0.68125,1.71972 0.92903,2.65355 1.52576,5.75041 0.11198,0.58119 0.19684,0.59531 3.5772,0.59531 3.99199,0 5.84319,0.38241 8.43937,1.74334 3.45591,1.81161 6.20711,5.01105 7.60666,8.84597 l 0.72202,1.9784 0.075,21.33939 c 0.0642,18.26809 0.0172,21.61918 -0.32704,23.28333 -1.24776,6.03251 -6.18594,11.00235 -12.18341,12.26153 -2.7103,0.56904 -107.820303,0.55502 -110.463534,-0.0147 z m 109.590617,-4.38264 c 4.10952,-0.87195 7.44543,-4.11938 8.53713,-8.31071 0.60978,-2.34112 0.60755,-41.56472 -0.002,-43.92214 -1.14223,-4.41396 -4.83206,-7.63742 -9.51379,-8.31132 -1.01865,-0.14663 -3.476,-0.26896 -5.46079,-0.27184 -4.64828,-0.007 -4.68742,-0.0327 -5.01933,-3.32387 -0.47499,-4.70985 -2.09342,-8.30134 -5.11696,-11.3551 -3.51236,-3.54748 -7.23129,-5.18109 -12.18417,-5.35213 -1.82362,-0.063 -3.45191,0.0282 -4.36052,0.24429 l -1.45011,0.3448 -0.97445,2.70184 c -1.15193,3.19392 -3.094,7.3287 -5.25055,11.17868 -0.85588,1.52797 -1.6809,3.3139 -1.83338,3.96875 -0.15247,0.65484 -0.39662,4.5839 -0.54255,8.73125 -0.73106,20.77675 -3.46604,33.06594 -8.47327,38.07317 -1.72729,1.72729 -3.13635,2.24963 -5.63592,2.08921 -4.469652,-0.28684 -8.070222,-3.75738 -10.43795,-10.06099 -1.870529,-4.97991 -2.448031,-9.44653 -2.448371,-18.93666 -2.35e-4,-6.55691 -0.291147,-8.87499 -1.327693,-10.57945 -0.656998,-1.08035 -1.1871,-1.07731 -1.749657,0.01 -1.06154,2.0518 -1.205394,3.31345 -1.425429,12.50156 -0.271424,11.33404 -0.766039,14.11196 -3.509664,19.71146 -1.481962,3.02455 -4.368234,6.00918 -6.615932,6.84138 -6.374545,2.36015 -10.927655,-2.06722 -13.806842,-13.42554 C 59.024409,172.59 57.843327,161.1317 57.606195,149.00125 l -0.05689,-2.91042 -1.719791,-0.0818 c -5.64579,-0.26862 -10.068457,1.71484 -12.358067,5.54227 -1.689046,2.82349 -1.664849,2.46062 -1.664849,24.96663 0,22.20498 -0.01281,21.99439 1.507524,24.78774 0.831052,1.52692 2.997396,3.64241 4.531338,4.42497 2.695218,1.375 -0.06782,1.31054 56.98509,1.32925 38.37021,0.0126 53.49105,-0.0651 54.50416,-0.28008 z m -19.64512,-61.30761 c -0.46316,-0.37504 -0.64993,-0.89596 -0.81608,-2.27608 -0.55765,-4.63208 -3.68353,-7.77764 -8.29763,-8.34987 -1.97831,-0.24534 -2.12946,-0.32149 -2.65491,-1.3376 -0.84329,-1.63074 0.36733,-3.16051 2.50113,-3.16051 3.04246,0 6.59066,1.586 9.04981,4.04515 2.33769,2.33769 3.93468,6.07543 3.93468,9.20907 0,2.00002 -2.19352,3.10348 -3.717,1.86984 z m -65.667374,42.3771 c 2.90349,-2.33403 5.019605,-7.08636 5.866413,-13.17469 0.155401,-1.11728 0.282546,-4.99076 0.282546,-8.60772 0,-8.42478 0.383191,-11.38075 1.855306,-14.31198 1.136873,-2.2637 2.785375,-3.4151 4.889526,-3.4151 2.327672,0 4.057292,1.30471 5.261257,3.96875 1.207744,2.67239 1.487664,4.93743 1.487664,12.03781 0,9.28978 0.57624,13.61566 2.39601,17.98695 2.25843,5.42497 6.018752,7.91098 8.573392,5.66798 2.857,-2.50848 5.21811,-11.65464 6.48207,-25.10941 0.14354,-1.52797 0.39341,-6.23094 0.55526,-10.45104 0.18509,-4.82572 0.43725,-8.26199 0.67957,-9.26042 0.21739,-0.89576 1.18262,-3.02861 2.21515,-4.89479 2.85134,-5.15349 4.37891,-8.60064 6.11144,-13.79127 1.90573,-5.70952 2.35585,-7.87813 2.35585,-11.35012 0,-10.83835 -7.41628,-20.141782 -18.25624,-22.901728 -2.83041,-0.720646 -8.097532,-0.658365 -10.847922,0.128269 -5.593975,1.599923 -7.657732,1.64511 -12.900252,0.282457 -6.860072,-1.783093 -12.412697,-1.128042 -18.240163,2.151817 -2.610879,1.469475 -7.159887,5.923819 -8.618257,8.438915 -1.409005,2.42996 -2.498132,5.39752 -2.966345,8.08245 -0.745456,4.27477 -0.457186,7.03598 1.352177,12.95192 1.927693,6.30283 4.1878,11.5195 7.221689,16.66875 1.944201,3.29978 2.166568,4.40639 2.419084,12.03854 0.649614,19.63419 3.274888,33.41938 7.040844,36.97114 0.913556,0.86159 1.068985,0.91402 2.385783,0.80482 1.059609,-0.0879 1.653721,-0.31388 2.398148,-0.9123 z M 57.512302,120.44116 c -0.642832,-0.27973 -0.924968,-0.65068 -1.249845,-1.64329 -2.576741,-7.87283 0.829267,-16.99669 8.061162,-21.593862 3.498734,-2.22408 9.258792,-3.651032 11.033424,-2.733334 0.883741,0.457001 1.109466,0.888042 1.109466,2.118627 0,1.32521 -0.839438,1.913463 -3.042709,2.132253 -6.016507,0.59746 -10.897171,4.510056 -12.882896,10.327636 -0.663027,1.94248 -0.766951,5.34047 -0.239387,7.82721 0.47782,2.25227 0.269089,3.07819 -0.901551,3.56731 -1.065866,0.44535 -0.857708,0.44563 -1.887664,-0.003 z m 100.234378,15.98508 c -1.24575,-1.16059 -0.83594,-3.10759 0.7721,-3.66815 1.17554,-0.4098 7.5961,-0.37537 8.42723,0.0452 1.42999,0.72359 1.68631,2.48115 0.53043,3.63703 -0.47749,0.47749 -0.89374,0.52243 -4.83817,0.52243 -3.96965,0 -4.36191,-0.043 -4.89159,-0.53649 z m -8.51176,-12.23738 c -0.87008,-0.44027 -1.4524,-1.5245 -1.24908,-2.32571 0.19489,-0.768 3.87932,-5.94734 4.83353,-6.79469 0.89256,-0.79259 2.07725,-0.7705 2.90187,0.0541 1.1428,1.1428 0.90684,2.05507 -1.34018,5.18136 -2.95573,4.11234 -3.65437,4.63976 -5.14614,3.88492 z m -14.53975,-7.76037 c -1.44759,-0.60866 -1.50039,-1.32483 -0.41705,-5.6558 1.08636,-4.34304 1.5023,-5.03079 3.04255,-5.03079 1.22358,0 2.11667,0.87531 2.11667,2.07452 0,1.34606 -1.60691,7.4038 -2.14566,8.0887 -0.61343,0.77985 -1.54158,0.96694 -2.59651,0.52337 z"
       id="path1-3" /><path
       style="display:none;fill:#000000"
       d="m 67.906398,215.81222 c -8.409556,-2.75287 -13.982415,-22.05031 -15.444364,-53.48002 -0.163592,-3.51699 -0.449461,-6.75544 -0.677313,-7.67292 -0.216838,-0.87312 -1.15199,-2.95672 -2.078116,-4.6302 -3.929656,-7.10081 -6.103485,-12.15242 -8.481809,-19.71032 -2.57841,-8.19373 -2.639385,-8.52969 -2.641323,-14.55322 -0.0016,-4.89168 0.05283,-5.50715 0.71977,-8.14228 1.68758,-6.66778 4.731409,-12.070052 9.487385,-16.838462 9.015172,-9.038739 21.465436,-12.106152 33.856837,-8.34142 3.437258,1.0443 6.377738,1.12575 9.50732,0.26335 5.619536,-1.548556 7.289883,-1.80076 11.509375,-1.737791 4.24502,0.06335 4.77626,0.06177 9.26042,-0.02758 2.8497,-0.05678 3.09532,-0.01199 11.77396,2.147481 6.8725,1.71005 9.27957,2.20547 10.71562,2.20547 1.42537,0 3.89419,-0.50187 10.71562,-2.17835 4.98846,-1.225989 9.7311,-2.242819 10.84792,-2.325806 5.29448,-0.393415 10.74364,2.791286 13.05279,7.628556 1.25395,2.62683 1.61533,4.67194 1.41219,7.99193 -0.52896,8.645242 -3.80317,16.292242 -9.57096,22.353202 l -2.19828,2.31001 0.22811,1.1823 c 0.12546,0.65027 0.23329,2.40771 0.23963,3.90544 0.0479,11.3143 -7.76061,21.18308 -18.90802,23.89697 -3.32777,0.81016 -8.36769,0.796 -11.37525,-0.032 -1.16417,-0.32049 -2.35479,-0.63705 -2.64583,-0.70345 -0.42256,-0.0964 -0.70405,0.19882 -1.3972,1.46542 -1.68026,3.0704 -1.93188,4.20008 -2.18814,9.82384 -1.284,28.17794 -5.55476,46.84738 -12.12187,52.99014 -2.10758,1.9714 -3.23294,2.43856 -5.85633,2.43113 -1.87649,-0.005 -2.50351,-0.12436 -3.78592,-0.71882 -3.863345,-1.79087 -6.649577,-6.54707 -8.098424,-13.82433 -0.862812,-4.33372 -1.115785,-7.93471 -1.301108,-18.52083 l -0.176011,-10.05417 -0.758015,-1.54373 c -0.878675,-1.78947 -1.920267,-2.55533 -3.475319,-2.55533 -1.869598,0 -3.374598,1.34498 -4.142658,3.70219 -0.191472,0.58763 -0.371494,4.89023 -0.492627,11.77396 -0.139173,7.9089 -0.311297,11.67227 -0.635313,13.89062 -1.376741,9.42575 -4.255769,15.08577 -8.684504,17.07326 -1.9344,0.86811 -4.52714,1.10079 -6.192243,0.55572 z m 4.941623,-5.03504 c 1.480972,-0.98006 3.016414,-3.46959 3.963581,-6.42645 1.633574,-5.09968 2.111876,-9.92721 2.11839,-21.38103 0.0053,-9.38449 0.185278,-10.94754 1.589512,-13.80723 1.635199,-3.33005 4.473128,-5.01855 8.049174,-4.78905 3.123304,0.20044 5.444024,1.81575 6.973515,4.85382 1.182143,2.34812 1.320337,3.7001 1.458792,14.27163 0.09591,7.32289 0.253266,10.95261 0.579256,13.36145 0.90317,6.67382 2.495829,11.11296 4.723919,13.16674 2.9081,2.68059 5.79596,1.96772 8.2246,-2.03025 4.30272,-7.08306 7.74038,-25.81259 8.59989,-46.85524 0.27517,-6.73668 0.52244,-8.01595 2.19908,-11.37708 0.61701,-1.23693 1.15681,-2.32409 1.19955,-2.41592 0.0427,-0.0918 -0.67164,-0.70311 -1.5875,-1.3584 -1.9341,-1.38382 -4.58705,-4.02313 -5.92793,-5.89744 -1.29184,-1.80576 -2.87293,-5.15455 -3.55337,-7.52615 -0.66207,-2.30753 -0.99068,-8.04428 -0.58617,-10.23295 l 0.25309,-1.3694 -1.81235,-1.79846 c -5.89136,-5.84622 -9.488702,-14.17333 -9.927162,-22.979402 -0.21152,-4.24838 0.680432,-7.48446 2.736382,-9.92782 l 0.73637,-0.87514 -2.24307,0.17517 c -1.233692,0.0963 -3.79089,0.59149 -5.68266,1.10033 -5.719224,1.53835 -8.472448,1.51511 -14.298066,-0.1207 -3.858951,-1.08357 -7.31812,-1.42544 -10.819433,-1.06929 -7.11357,0.7236 -13.047243,3.62742 -18.113583,8.86444 -5.866328,6.063962 -8.759541,13.097362 -8.759541,21.294452 0,3.99121 0.471495,6.62693 2.140232,11.96419 2.63888,8.44016 4.925223,13.77613 9.226237,21.5326 1.843179,3.324 2.284501,5.28215 2.499639,11.09093 0.592136,15.98782 2.886644,32.19899 5.833679,41.21613 1.623198,4.96655 3.611194,8.42181 5.518921,9.59224 1.42909,0.87677 3.12415,0.78754 4.687026,-0.24672 z M 49.352116,124.62803 c -1.212143,-1.12928 -2.036562,-5.62488 -1.843579,-10.05312 0.168982,-3.87752 0.906476,-6.78882 2.580447,-10.18646 4.11816,-8.358572 12.154553,-13.855252 20.976163,-14.347142 2.443947,-0.13627 2.62739,-0.10985 3.241145,0.46674 0.842369,0.79137 0.866251,2.09605 0.05526,3.01909 -0.523911,0.5963 -0.910185,0.70947 -3.220569,0.94355 -7.510259,0.76091 -13.723672,5.13894 -17.079567,12.034432 -1.622114,3.33302 -1.976214,4.99231 -1.976214,9.26042 0,2.75203 0.121776,4.14002 0.473758,5.39984 0.260567,0.93262 0.404624,1.97112 0.320128,2.30778 -0.388279,1.54702 -2.399258,2.2055 -3.526977,1.15487 z m 91.648084,20.7755 c 6.95878,-2.0143 12.35858,-7.71255 14.16265,-14.94543 0.46516,-1.86491 0.53775,-2.77471 0.43279,-5.42396 -0.14676,-3.70406 -0.97566,-6.54713 -2.79709,-9.59386 -1.05595,-1.7663 -3.60142,-4.83412 -4.01102,-4.83412 -0.11569,0 -0.28216,0.35906 -0.36993,0.79791 -0.0878,0.43885 -0.46824,1.45036 -0.84549,2.2478 l -0.68591,1.44989 0.91389,1.12564 c 6.15022,7.57528 3.42701,19.48215 -5.42203,23.70711 -2.63222,1.25675 -4.27597,1.62895 -7.17536,1.62476 -5.87767,-0.009 -11.36922,-3.46899 -13.89325,-8.75479 -1.23788,-2.59238 -1.6395,-4.29598 -1.63409,-6.93166 0.007,-3.50843 1.31344,-7.31852 3.30612,-9.6434 l 0.96307,-1.12362 -0.67715,-1.38993 c -0.37243,-0.76445 -0.75344,-1.77687 -0.8467,-2.24981 -0.0933,-0.47295 -0.26271,-0.8599 -0.37655,-0.8599 -0.28238,0 -2.51898,2.51084 -3.47718,3.90354 -3.06567,4.45579 -4.17044,10.6992 -2.86028,16.16433 1.70757,7.12287 7.37644,12.91461 14.54809,14.86343 2.8915,0.78573 7.77873,0.72481 10.74542,-0.13393 z m -1.10661,-9.21724 c 2.11943,-0.97752 3.72903,-2.34872 4.91982,-4.1911 0.92741,-1.43488 1.47996,-2.7928 1.23579,-3.03698 -0.0585,-0.0585 -1.08948,0.12847 -2.29109,0.41547 -5.25445,1.25499 -11.3276,1.25788 -16.63307,0.008 -1.21204,-0.28555 -2.26674,-0.51919 -2.34379,-0.51919 -0.27428,0 0.22876,1.47357 0.8919,2.61266 1.45463,2.49863 3.42441,4.10258 6.29797,5.1283 2.05929,0.73507 5.85805,0.53508 7.92247,-0.41708 z m 1.89126,-11.01457 c 3.2575,-0.68034 4.45345,-1.11817 4.55956,-1.66921 0.11296,-0.58661 -1.44425,-3.99866 -2.0928,-4.58559 -0.45619,-0.41285 -0.56263,-0.39055 -1.75117,0.36675 -4.14383,2.64037 -9.90803,2.64004 -14.22087,-8.1e-4 l -1.31376,-0.80444 -0.74039,0.88686 c -1.02723,1.23046 -2.27267,4.73463 -1.68276,4.73463 0.0598,0 1.24711,0.303 2.63848,0.67332 4.7313,1.25929 9.81767,1.39808 14.60371,0.39849 z m -3.24896,-8.90899 c 2.28519,-0.79696 4.49341,-3.03177 5.38048,-5.44526 0.62583,-1.70271 0.56374,-4.53376 -0.1392,-6.34654 -0.77629,-2.00194 -2.63291,-3.95007 -4.65884,-4.888492 -2.22229,-1.02937 -5.14766,-1.04761 -7.3078,-0.0456 -2.07327,0.961742 -3.52359,2.367682 -4.51058,4.372532 -1.62998,3.31096 -0.97741,7.46102 1.58593,10.08577 2.57106,2.63267 6.17492,3.4795 9.65001,2.26755 z m 22.37385,-3.27532 c 3.84742,-5.09657 5.90485,-11.12401 5.96069,-17.462502 0.027,-3.06387 -0.0229,-3.41822 -0.67734,-4.81449 -1.39785,-2.98212 -4.42476,-5.1101 -7.69984,-5.41314 -1.45961,-0.13506 -2.75098,0.11384 -11.30513,2.1789 -8.00732,1.93304 -10.01893,2.33137 -11.77396,2.33137 -1.75503,0 -3.76664,-0.39833 -11.77396,-2.33137 -8.62691,-2.08263 -9.83649,-2.31479 -11.33684,-2.17594 -3.31169,0.30648 -6.27292,2.40006 -7.65233,5.41018 -1.7586,3.83756 -0.5732,11.942272 2.65394,18.145232 1.52913,2.93918 4.95662,7.46792 5.31183,7.01851 0.0472,-0.0597 0.52768,-0.91072 1.0677,-1.89106 1.50828,-2.7381 3.93819,-5.60912 6.35511,-7.50876 1.96726,-1.54622 2.23742,-1.86789 2.63913,-3.14223 0.85181,-2.70227 2.97407,-5.325882 5.71487,-7.064952 3.06016,-1.9417 7.74806,-2.44598 11.28088,-1.21348 4.15936,1.45108 7.46749,4.77328 8.59963,8.636182 0.26944,0.91936 0.6366,1.3733 1.80884,2.2364 2.99716,2.20674 5.75434,5.4428 7.29162,8.55805 l 0.79375,1.60852 0.6217,-0.56052 c 0.34193,-0.30829 1.2958,-1.45349 2.11971,-2.5449 z m -48.14132,-10.15236 c -2.23009,-0.79715 -4.03883,-3.080942 -4.37342,-5.522042 -0.56434,-4.11728 3.37665,-8.07461 7.48102,-7.51204 6.5434,0.89687 8.08369,9.60466 2.23903,12.657952 -1.58877,0.82998 -3.6678,0.97624 -5.34663,0.37613 z m 3.87235,-4.784572 c 1.23505,-1.23505 0.61051,-3.31796 -1.12549,-3.75367 -1.40756,-0.35328 -2.97934,1.22903 -2.62466,2.64223 0.44356,1.76728 2.4883,2.37329 3.75015,1.11144 z m 36.23589,4.516772 c -3.95322,-1.86889 -5.09279,-6.771102 -2.39594,-10.306852 0.845,-1.10785 2.90164,-2.24425 4.4443,-2.45569 3.05935,-0.41933 6.34258,1.76413 7.22693,4.80616 1.62115,5.576592 -4.03896,10.431862 -9.27529,7.956382 z m 4.31253,-4.403832 c 1.21069,-1.12793 0.97735,-2.83516 -0.50091,-3.66488 -1.36319,-0.76514 -3.15016,0.37751 -3.15016,2.01433 0,1.85284 2.31203,2.89805 3.65107,1.65055 z"
       id="path1-8" /><path
       style="display:none;fill:#000000"
       d="m 77.938828,215.75596 c -4.182705,-0.96719 -5.636856,-1.90304 -10.633621,-6.84347 l -4.019037,-3.97373 -1.669504,0.47263 c -2.428548,0.68751 -6.026992,0.81357 -8.256827,0.28925 -5.346778,-1.25723 -9.377449,-5.47053 -10.904753,-11.39887 -0.740873,-2.87575 -0.672705,-11.90589 0.111478,-14.76744 0.740569,-2.7024 1.964725,-4.95886 3.717825,-6.85299 l 1.418475,-1.53258 -1.587304,-1.69684 c -1.714793,-1.83312 -2.795963,-3.81626 -3.259887,-5.97946 -0.181883,-0.84809 -0.252297,-3.33996 -0.185582,-6.56761 0.09909,-4.79408 0.161856,-5.35282 0.802205,-7.14161 0.950647,-2.65558 2.147487,-4.55409 4.115525,-6.52831 l 1.663574,-1.66879 -1.490574,-1.40973 c -2.634919,-2.49199 -3.820949,-5.30363 -3.820949,-9.05804 0,-4.45194 1.57261,-8.13299 4.875689,-11.41264 2.690323,-2.67125 4.38209,-3.58962 8.807281,-4.78101 0.22594,-0.0608 0.129748,-0.50542 -0.323601,-1.49567 -1.495119,-3.26577 -1.249809,-7.84142 0.573681,-10.70061 0.873072,-1.36896 7.259982,-9.595434 8.112714,-10.449349 2.249333,-2.252451 5.631766,-3.537939 8.777912,-3.336032 l 1.935041,0.124184 0.159978,-0.79989 c 0.225072,-1.125358 1.602669,-3.18192 2.683794,-4.006534 1.319892,-1.006731 3.900379,-2.155966 6.333967,-2.82087 3.101211,-0.847311 9.121942,-0.844098 12.295477,0.0066 2.300325,0.616598 5.844655,2.190484 6.376785,2.83166 0.24687,0.297464 0.44598,0.247783 1.14561,-0.285849 1.1792,-0.899421 3.48936,-1.881672 6.05344,-2.573857 3.06191,-0.826573 9.11968,-0.814276 12.22868,0.02482 2.80451,0.756921 5.58907,2.113339 6.81695,3.320681 0.98959,0.973034 2.31118,3.231624 2.31118,3.949792 0,0.298152 0.34071,0.347854 1.65911,0.242025 3.12015,-0.250455 6.6397,0.970286 8.80989,3.055675 1.14314,1.098473 7.56425,9.336444 8.49351,10.896764 1.60177,2.68954 1.97373,6.72074 0.89108,9.65729 -0.3219,0.87313 -0.64063,1.76657 -0.70827,1.98542 -0.0926,0.29948 0.31877,0.51378 1.66279,0.86629 5.35885,1.40552 10.19136,6.38522 11.60105,11.9544 0.55795,2.20422 0.51377,5.54832 -0.0993,7.51814 -0.69209,2.22369 -1.58336,3.64187 -3.32247,5.28664 l -1.49058,1.40973 1.66358,1.66879 c 1.96857,1.97476 3.16544,3.87362 4.11485,6.52831 0.63782,1.78343 0.70295,2.35786 0.80413,7.0919 0.15524,7.26321 -0.41411,9.35491 -3.42141,12.56972 l -1.56198,1.66977 1.42817,1.48638 c 1.71317,1.78299 3.09879,4.32301 3.91714,7.1806 0.53614,1.87214 0.60202,2.67493 0.59614,7.26412 -0.005,3.9974 -0.11013,5.57485 -0.46623,7.00415 -1.47927,5.93734 -5.74861,10.39297 -11.18283,11.67076 -2.22821,0.52393 -5.82788,0.39838 -8.25174,-0.28782 l -1.66442,-0.4712 -4.18339,4.13232 c -3.76517,3.71922 -4.40552,4.23887 -6.40537,5.19808 -2.96188,1.42063 -5.52304,1.94967 -8.57199,1.77066 -5.96008,-0.34993 -10.51663,-3.05788 -14.12069,-8.39187 -1.72327,-2.55044 -1.85445,-3.00396 -1.2224,-4.22621 0.48207,-0.93223 1.13908,-1.31762 2.24622,-1.31762 1.25877,0 1.67844,0.33856 3.43398,2.77036 2.31345,3.20462 4.41562,4.76497 7.54623,5.60123 2.6247,0.70111 6.10026,0.30265 8.67317,-0.99436 0.61403,-0.30953 2.6861,-2.11231 4.60461,-4.00617 l 3.4882,-3.4434 -1.19474,-1.2206 c -1.59408,-1.62858 -3.09253,-4.21871 -3.84402,-6.64456 -0.55697,-1.79793 -0.61455,-2.48157 -0.61287,-7.27604 0.002,-5.07248 0.0311,-5.37205 0.70888,-7.23228 0.95308,-2.616 2.16146,-4.56579 3.98389,-6.42826 0.8358,-0.85415 1.4057,-1.553 1.26646,-1.553 -0.67067,0 -3.70727,-3.29159 -4.57606,-4.96031 -1.34846,-2.59005 -1.51731,-3.81468 -1.51731,-11.00442 0,-8.15152 0.38831,-9.85561 2.94672,-12.93144 l 1.0374,-1.24721 -1.53227,-1.55624 c -2.63889,-2.68018 -3.76324,-5.85308 -3.76818,-10.63371 -0.003,-3.37184 0.38664,-5.61031 1.33258,-7.64628 0.43267,-0.93124 0.75484,-1.70515 0.71594,-1.7198 -2.43097,-0.91543 -3.95857,-2.48942 -8.00507,-8.24813 -4.0107,-5.70777 -4.85162,-7.39497 -5.08739,-10.20726 l -0.15609,-1.86183 -0.81907,0.16382 c -0.45049,0.0901 -2.00986,0.23611 -3.46526,0.32447 -4.90966,0.29809 -10.42547,-0.87783 -13.18505,-2.81092 l -1.40869,-0.98679 -0.6408,0.5273 c -1.09895,0.90428 -4.257351,2.27019 -6.329351,2.73724 -2.285159,0.5151 -8.975009,0.62581 -10.74631,0.17785 l -1.08902,-0.27541 -0.14507,1.91817 c -0.213805,2.82699 -1.011865,4.4606 -4.90879,10.04819 -3.531982,5.06432 -5.242306,6.9732 -7.102432,7.92698 -0.556326,0.28526 -1.051795,0.54383 -1.101043,0.57461 -0.04925,0.0308 0.293167,0.85786 0.760922,1.83795 0.685665,1.43668 0.90545,2.33854 1.134234,4.65416 0.610489,6.17904 -0.542515,10.4086 -3.697524,13.56361 l -1.494087,1.49408 0.683048,0.71702 c 1.226566,1.28755 2.531109,3.77232 2.951939,5.62257 0.486357,2.13835 0.587204,13.01854 0.142406,15.36395 -0.570865,3.01016 -2.829789,6.47223 -5.164437,7.91512 l -0.860634,0.5319 1.415549,1.4499 c 1.750286,1.79275 3.328089,4.43712 4.102209,6.87523 0.802206,2.52657 1.031942,9.58918 0.408807,12.56771 -0.561243,2.68269 -2.236455,5.98997 -3.997568,7.89219 l -1.432728,1.54751 3.494744,3.44988 c 1.922109,1.89743 3.997129,3.70312 4.611154,4.01265 2.659589,1.34071 6.182924,1.71112 8.823589,0.92764 3.292695,-0.97695 5.300834,-2.53541 7.728688,-5.99803 0.730107,-1.04128 1.560307,-1.90912 1.978372,-2.06807 1.748634,-0.66483 3.503982,0.54193 3.503982,2.4089 0,0.78751 -0.333297,1.45736 -1.63726,3.29053 -2.768487,3.89207 -5.612168,6.04975 -9.607531,7.28986 -2.366965,0.73467 -6.510561,0.93443 -8.73125,0.42092 z m -17.065624,-15.7252 c 2.903982,-1.12919 5.512067,-3.73443 6.662292,-6.65503 0.797861,-2.0259 1.014366,-8.59706 0.366567,-11.12566 -0.850144,-3.31844 -3.048349,-6.04483 -6.078863,-7.53949 -4.203796,-2.07334 -8.290728,-1.68963 -11.223627,1.05376 -2.66074,2.48881 -3.642993,6.11079 -3.412762,12.58431 0.197421,5.55097 1.296534,8.50846 3.964593,10.6679 2.264979,1.8332 6.483701,2.27331 9.7218,1.01421 z m 96.367156,-0.12521 c 2.84846,-1.39362 4.92831,-4.55165 5.52025,-8.3819 0.45473,-2.94248 0.17422,-8.94194 -0.52035,-11.12902 -1.58476,-4.9901 -5.80275,-7.65254 -10.84697,-6.84672 -4.45518,0.71171 -8.28157,4.19603 -9.4141,8.57247 -0.26654,1.03 -0.40808,2.77725 -0.40808,5.03764 0,5.13446 0.67284,7.26603 3.14863,9.97494 1.36645,1.49512 3.6923,2.92575 5.48148,3.37167 0.56495,0.1408 2.04884,0.22557 3.29753,0.18837 1.84535,-0.055 2.54576,-0.20238 3.74161,-0.78745 z M 64.195209,167.34769 c 0.735696,-0.34258 1.773488,-1.13208 2.306205,-1.75444 1.683844,-1.96719 1.82494,-2.80179 1.730852,-10.23816 -0.08086,-6.39081 -0.100185,-6.59526 -0.742265,-7.85253 -1.485355,-2.90849 -3.77266,-3.9791 -8.178958,-3.82828 -2.647906,0.0906 -2.976545,0.16405 -4.826542,1.07837 -2.459524,1.21556 -4.421035,3.2106 -5.596537,5.69218 l -0.847051,1.78819 v 5.42396 c 0,6.04914 0.124761,6.56518 2.027336,8.38555 1.7707,1.6942 2.717385,1.92121 8.02683,1.9248 4.449816,0.003 4.850323,-0.0377 6.10013,-0.61964 z m 93.515481,0.0781 c 1.45748,-0.65897 2.76858,-1.88002 3.52892,-3.28651 0.53342,-0.98674 0.57213,-1.42525 0.57213,-6.48229 v -5.42396 l -0.84706,-1.78819 c -1.16766,-2.46504 -3.13918,-4.47769 -5.55641,-5.67235 -1.77229,-0.87591 -2.1911,-0.97224 -4.71519,-1.0845 -1.72045,-0.0765 -3.19659,-0.004 -3.89553,0.19219 -1.70249,0.47711 -3.39822,1.84898 -4.3004,3.47908 l -0.79375,1.43419 -0.083,6.56165 c -0.0941,7.43637 0.047,8.27097 1.73085,10.23816 0.53272,0.62236 1.57051,1.41186 2.30621,1.75444 1.24981,0.58198 1.65031,0.62266 6.10013,0.61964 4.21875,-0.003 4.89844,-0.0647 5.95312,-0.54155 z M 64.490705,137.94675 c 1.674128,-0.49716 3.548238,-2.11813 4.363985,-3.77452 0.5578,-1.13262 0.617472,-1.61176 0.617472,-4.95796 0,-3.53119 -0.03498,-3.77541 -0.749203,-5.22989 -0.82964,-1.68953 -2.509491,-3.17472 -4.145101,-3.66476 -0.569027,-0.17049 -2.240633,-0.25109 -3.99517,-0.19265 -2.706638,0.0901 -3.193577,0.18427 -4.736567,0.91549 -3.846506,1.82286 -6.378906,5.40208 -6.575413,9.29349 -0.134672,2.66689 0.306874,4.06726 1.788778,5.67312 1.792686,1.94263 3.08791,2.31381 8.11205,2.32469 2.790319,0.006 4.386727,-0.11011 5.319169,-0.38701 z m 91.359005,-0.0231 c 1.04384,-0.30998 1.76448,-0.77384 2.77465,-1.78593 1.67255,-1.67575 2.12135,-3.02351 1.94127,-5.82965 -0.24868,-3.87496 -2.78774,-7.4911 -6.48665,-9.23833 -1.65603,-0.78224 -2.03914,-0.85387 -5.04083,-0.9425 -3.07842,-0.0909 -3.32377,-0.0591 -4.6842,0.60647 -2.78033,1.36029 -3.87425,3.4018 -4.05062,7.55946 -0.14857,3.50212 0.23584,5.46073 1.36324,6.9459 0.95059,1.25225 3.01476,2.48515 4.72497,2.82215 2.06262,0.40644 7.91282,0.32135 9.45817,-0.13757 z M 70.290231,115.19891 c 0.721044,-0.21413 1.730394,-0.77967 2.243001,-1.25677 0.935868,-0.87104 6.611016,-8.79206 7.540629,-10.52474 0.726379,-1.35388 0.683954,-4.27226 -0.08324,-5.72626 -1.904241,-3.608923 -6.663861,-4.665293 -9.709359,-2.154935 -1.227626,1.011915 -7.720319,9.432865 -8.266181,10.721155 -0.655597,1.54726 -0.532157,3.78998 0.302501,5.49596 1.506748,3.07968 4.642037,4.43468 7.972653,3.44559 z m 73.235139,0.0148 c 2.43245,-0.73206 4.08133,-2.63125 4.67081,-5.37988 0.51773,-2.41412 -0.0101,-3.55601 -4.10294,-8.8753 -1.96101,-2.54867 -3.99226,-4.98574 -4.51389,-5.415717 -2.31982,-1.912189 -5.75658,-1.842887 -8.10041,0.163347 -2.13581,1.82817 -2.91629,4.96833 -1.82971,7.36155 0.77164,1.69957 7.06161,10.49669 8.00259,11.19238 1.68386,1.24493 3.7766,1.58471 5.87355,0.95362 z M 96.734801,94.545802 c 2.111422,-0.542176 4.222179,-1.59162 4.877899,-2.425235 0.69353,-0.881677 0.70109,-2.444208 0.016,-3.3151 -0.5585,-0.710024 -2.50731,-1.647692 -4.639919,-2.232497 -4.823182,-1.322617 -12.324319,-0.186132 -14.40383,2.1823 -1.980437,2.255593 -0.184075,4.352875 4.861713,5.67613 2.391561,0.627185 7.066876,0.684772 9.288091,0.114402 z m 26.168779,-0.2708 c 3.28416,-0.889621 5.17016,-2.370483 5.17279,-4.061589 0.002,-1.588302 -3.14599,-3.332956 -7.25914,-4.022505 -5.08235,-0.85203 -11.745,0.832014 -12.93613,3.269722 -0.47003,0.961929 -0.47003,1.022374 0,1.982045 0.72041,1.470896 2.99627,2.583753 6.65776,3.255537 1.75081,0.321225 6.5044,0.08072 8.36472,-0.42321 z M 103.83016,200.25712 c -1.474,-0.59483 -1.9228,-2.96044 -0.7787,-4.10453 0.83423,-0.83424 1.82538,-1.06427 2.81658,-0.6537 1.07233,0.44417 1.57183,1.22401 1.57183,2.45398 0,1.8788 -1.80646,3.03195 -3.60971,2.30425 z m -19.16481,-22.47145 -0.773397,-0.7734 v -16.94014 c 0,-17.96622 0.09795,-19.81956 1.357686,-25.68803 1.150395,-5.35912 4.194966,-13.19649 6.340636,-16.32213 2.008836,-2.92632 4.957448,-5.1009 8.576095,-6.32483 1.69843,-0.57446 2.63436,-0.72065 4.75996,-0.74351 3.15868,-0.034 4.84396,0.33836 7.67291,1.69523 4.68567,2.24743 7.23967,5.68316 10.31755,13.87958 1.26722,3.37461 2.62169,8.72558 3.22457,12.739 0.41447,2.75909 0.47167,5.2135 0.47594,20.42145 l 0.005,17.28546 -0.89742,0.80216 c -0.77278,0.69074 -1.04461,0.78242 -1.95706,0.66003 -0.58279,-0.0782 -1.31005,-0.3924 -1.61611,-0.69828 -0.55126,-0.55094 -0.55794,-0.72196 -0.71116,-18.21008 -0.14456,-16.50063 -0.19177,-17.86132 -0.72262,-20.82891 -1.50291,-8.40159 -4.66746,-16.47586 -7.56367,-19.29849 -4.50074,-4.38641 -11.71341,-4.29408 -15.967891,0.2044 -2.815224,2.97669 -5.775788,10.44617 -7.377959,18.61454 -0.395961,2.01874 -0.477437,4.77565 -0.607133,20.54368 l -0.149799,18.21204 -0.86407,0.77181 c -1.180857,1.05477 -2.466128,1.05419 -3.521908,-0.002 z"
       id="path1-7" /></g></svg>
