<?xml version="1.0" encoding="UTF-8" standalone="no"?>
<!-- Created with Inkscape (http://www.inkscape.org/) -->

<svg
   width="210mm"
   height="297mm"
   viewBox="0 0 210 297"
   version="1.1"
   id="svg1"
   xml:space="preserve"
   inkscape:version="1.4 (86a8ad7, 2024-10-11)"
   sodipodi:docname="laser.svg"
   xmlns:inkscape="http://www.inkscape.org/namespaces/inkscape"
   xmlns:sodipodi="http://sodipodi.sourceforge.net/DTD/sodipodi-0.dtd"
   xmlns="http://www.w3.org/2000/svg"
   xmlns:svg="http://www.w3.org/2000/svg"><sodipodi:namedview
     id="namedview1"
     pagecolor="#505050"
     bordercolor="#eeeeee"
     borderopacity="1"
     inkscape:showpageshadow="0"
     inkscape:pageopacity="0"
     inkscape:pagecheckerboard="0"
     inkscape:deskcolor="#505050"
     inkscape:document-units="mm"
     inkscape:zoom="1.0396254"
     inkscape:cx="210.65279"
     inkscape:cy="614.16351"
     inkscape:window-width="3440"
     inkscape:window-height="1369"
     inkscape:window-x="2552"
     inkscape:window-y="142"
     inkscape:window-maximized="1"
     inkscape:current-layer="layer1" /><defs
     id="defs1" /><g
     inkscape:label="Livello 1"
     inkscape:groupmode="layer"
     id="layer1"><path
       style="fill:#000000"
       d="m 91.094698,225.7563 c -4.326414,-1.18663 -10.125106,-8.16441 -13.210868,-15.89713 -2.090531,-5.23874 -2.80074,-9.08694 -3.151648,-17.07694 -0.124728,-2.83997 -0.375648,-5.75889 -0.557601,-6.4865 -0.438931,-1.75522 -1.84468,-5.10678 -4.438984,-10.58333 -3.622568,-7.6472 -4.658769,-11.58465 -4.630346,-17.59479 0.01418,-2.99745 0.136706,-4.27363 0.560285,-5.83549 2.12853,-7.8485 7.665456,-12.78601 16.332835,-14.56468 2.201691,-0.45182 8.197018,-0.39273 11.41425,0.11249 2.484167,0.39011 6.756609,1.6791 10.083149,3.04207 l 1.38906,0.56914 v -3.96489 l 0,-3.96489 -0.99219,-0.006 c -1.41796,-0.008 -3.04815,-0.83493 -3.933318,-1.99448 l -0.763035,-0.99956 -0.08157,-5.24695 -0.08157,-5.24695 -1.109057,-0.001 c -2.658413,-0.004 -4.625232,-1.35729 -5.181492,-3.5664 -0.161255,-0.6404 -0.293191,-2.95153 -0.293191,-5.13583 v -3.97147 l -0.949545,-0.45059 c -1.326093,-0.62927 -1.763301,-1.73858 -3.013359,-7.645676 -1.180435,-5.578097 -1.251053,-6.360682 -0.651242,-7.217032 0.984512,-1.405588 0.645265,-1.380277 18.500134,-1.380277 17.79418,0 17.8079,9.9e-4 18.75547,1.353839 0.2373,0.338793 0.43146,0.984198 0.43146,1.434235 0,1.143508 -2.31666,11.400801 -2.7752,12.287501 -0.20707,0.40044 -0.79846,0.9283 -1.31419,1.17303 l -0.9377,0.44497 v 3.97147 c 0,2.1843 -0.13127,4.4928 -0.29172,5.13 -0.53383,2.12002 -2.65906,3.5737 -5.22461,3.5737 l -0.7841,0 -0.0959,4.96094 c -0.10231,5.29258 -0.22956,5.86482 -1.58578,7.13112 -0.84431,0.78833 -2.38408,1.40169 -3.51876,1.40169 h -0.93454 v 3.95375 3.95374 l 1.91823,-0.79457 c 7.97409,-3.30304 16.54863,-4.16461 23.2342,-2.33458 3.64551,0.99788 6.18703,2.46704 8.88076,5.13363 2.08793,2.0669 2.57808,2.73201 3.61448,4.9047 1.72286,3.61176 2.13858,5.5078 2.1464,9.78958 0.011,6.02407 -1.07471,10.07348 -4.78676,17.85329 -4.3742,9.16759 -4.51255,9.64471 -4.83826,16.68614 -0.31643,6.84092 -0.84482,10.33779 -2.16429,14.32315 -3.82107,11.54129 -11.78145,20.3182 -17.12337,18.87977 -1.58497,-0.42679 -3.55287,-2.3225 -4.51675,-4.35106 -1.51641,-3.1914 -1.60196,-3.9637 -1.60414,-14.48157 -0.001,-5.40397 -0.12315,-10.37271 -0.27847,-11.33889 -0.84309,-5.24446 -4.44847,-8.30074 -7.99626,-6.77842 -1.94002,0.83244 -3.63197,3.6008 -4.1428,6.77842 -0.15489,0.96349 -0.27735,5.90112 -0.27847,11.22789 -0.002,10.40611 -0.11222,11.4045 -1.607093,14.58269 -1.669109,3.54862 -4.366185,5.09556 -7.422539,4.25728 z m 2.68048,-3.21412 c 0.934521,-0.48326 2.001852,-2.23862 2.673677,-4.3972 0.449653,-1.44474 0.498474,-2.54174 0.498474,-11.20066 0,-10.6569 0.223443,-12.93463 1.553317,-15.83423 2.125994,-4.63544 6.535184,-6.7847 10.696044,-5.21382 1.92145,0.72542 4.0139,2.73241 5.01514,4.81032 1.54553,3.20746 1.59478,3.64769 1.77099,15.82977 0.15454,10.68303 0.19103,11.31496 0.73056,12.64948 0.78658,1.94559 1.75578,3.12706 2.86575,3.49338 0.83906,0.27691 1.09611,0.23534 2.35587,-0.381 2.85833,-1.39845 6.78197,-6.34316 9.40842,-11.85681 2.43838,-5.11882 3.28352,-9.19709 3.70911,-17.8984 0.35893,-7.33831 0.63469,-8.33004 4.64316,-16.69832 2.73534,-5.71043 4.11526,-9.52028 4.73226,-13.06538 2.17535,-12.49899 -4.48551,-21.35616 -16.75717,-22.28255 -1.28416,-0.0969 -3.10767,-0.0935 -4.05224,0.008 l -1.7174,0.18391 -0.43788,2.03391 c -1.04401,4.84936 -4.19681,9.07474 -8.22749,11.02648 -3.02204,1.46333 -7.51051,1.89422 -10.82629,1.03931 -3.995177,-1.03007 -7.503906,-3.94555 -9.393906,-7.80558 -1.013158,-2.06923 -1.889078,-4.77371 -1.889078,-5.83271 0,-0.94375 -6.267415,-0.98857 -10.040656,-0.0718 -6.190255,1.50401 -10.786587,5.93566 -12.321773,11.8803 -0.651871,2.52421 -0.766558,6.23281 -0.28908,9.34791 0.583859,3.80915 1.896104,7.53055 4.77398,13.53854 4.008472,8.36828 4.284233,9.36001 4.643157,16.69832 0.145115,2.96692 0.438959,6.54255 0.652986,7.94585 1.093093,7.16704 5.137283,15.29687 9.887054,19.87544 2.553659,2.46162 3.806657,2.97236 5.343014,2.17788 z M 76.045246,163.67386 c -0.6482,-0.6482 -0.687242,-2.07434 -0.122385,-4.47063 1.108863,-4.70415 4.857828,-8.88142 9.413924,-10.48944 0.637727,-0.22508 2.031968,-0.53064 3.098314,-0.67903 2.415038,-0.33605 3.220563,0.0327 3.220563,1.47438 0,0.49738 -0.148828,1.00027 -0.330729,1.11753 -0.181901,0.11726 -1.235307,0.34537 -2.340903,0.50691 -3.558964,0.52001 -6.512575,2.27959 -8.326119,4.96018 -1.078129,1.59358 -1.966831,4.24545 -1.966831,5.86898 0,0.92026 -0.136125,1.25062 -0.69714,1.69192 -0.871486,0.68551 -1.278377,0.68952 -1.948694,0.0192 z m 58.905474,-0.0192 c -0.56102,-0.4413 -0.69714,-0.77166 -0.69714,-1.69192 0,-2.7595 -2.00025,-6.6593 -4.32157,-8.42559 -1.55435,-1.1827 -3.79879,-2.08613 -5.97138,-2.40357 -1.1056,-0.16154 -2.15901,-0.38965 -2.34091,-0.50691 -0.1819,-0.11726 -0.33073,-0.62015 -0.33073,-1.11753 0,-1.45156 0.80124,-1.811 3.27118,-1.46746 3.56879,0.49637 6.40582,1.95667 8.91761,4.59012 3.01124,3.15711 4.97364,9.49005 3.42163,11.04206 -0.67032,0.67032 -1.07721,0.66631 -1.94869,-0.0192 z m -24.71401,-12.17192 c 4.10322,-1.38227 7.41971,-5.09478 8.0451,-9.00577 l 0.17383,-1.08708 -0.89843,0.18642 c -1.42573,0.29584 -5.3254,1.62929 -7.50178,2.56515 l -1.9956,0.85813 v 2.04609 c 0,1.81444 -0.0666,2.09272 -0.58804,2.45797 -0.79144,0.55435 -1.4221,0.5184 -2.0578,-0.11729 -0.43351,-0.43351 -0.52916,-0.88194 -0.52916,-2.48077 v -1.95161 l -2.57969,-1.06637 c -2.55789,-1.05735 -6.781125,-2.43875 -7.455801,-2.43875 -0.527359,0 -0.148669,1.93096 0.752386,3.83646 1.368215,2.89342 3.6668,4.97502 6.766615,6.12782 2.17392,0.80847 5.58549,0.83865 7.86837,0.0696 z m 0.18516,-21.84352 c 0.50554,-0.64268 0.54837,-1.04568 0.54837,-5.15937 v -4.46224 h -4.36562 -4.36562 v 4.7475 c 0,5.89081 -0.25269,5.57125 4.40529,5.57125 3.17343,0 3.23869,-0.012 3.77758,-0.69714 z m 6.53805,-13.4633 c 0.26807,-0.36661 0.36032,-1.5637 0.36032,-4.67554 v -4.18277 H 106.47233 95.624412 v 4.23334 c 0,3.67897 0.06063,4.29396 0.463021,4.69635 0.425442,0.42544 1.276603,0.46133 10.487587,0.44221 9.45907,-0.0196 10.0449,-0.0486 10.3849,-0.51359 z m 3.45994,-13.54008 c 0.624,-2.40575 1.29853,-2.19739 -7.11368,-2.19739 -6.5644,0 -7.51137,-0.0522 -7.9375,-0.43788 -0.57891,-0.523913 -0.6237,-1.38624 -0.10862,-2.09124 0.35323,-0.483469 0.84475,-0.521349 8.38075,-0.645882 l 8.00552,-0.132292 0.33929,-1.455208 c 0.18661,-0.800365 0.34433,-1.544505 0.3505,-1.653646 0.006,-0.109141 -7.13254,-0.198437 -15.86379,-0.198437 -8.731251,0 -15.875001,0.04258 -15.875001,0.09462 0,0.168927 2.117546,9.554436 2.217213,9.827256 0.06306,0.17262 4.820095,0.24666 13.686108,0.21301 l 13.58945,-0.0516 z m -25.384733,33.403 c -0.657001,-0.50166 -2.042933,-1.84111 -3.079849,-2.97656 -2.007445,-2.19821 -2.315765,-3.04973 -1.403261,-3.87554 1.021251,-0.92421 1.647818,-0.58642 4.756302,2.5642 3.117306,3.15957 3.479586,3.85577 2.478072,4.76212 -0.725685,0.65674 -1.428818,0.53554 -2.751264,-0.47422 z m 20.221363,0.59461 c -0.17462,-0.17463 -0.3175,-0.68259 -0.3175,-1.1288 0,-0.68144 0.47709,-1.28703 2.98071,-3.78354 3.1464,-3.13748 3.70629,-3.429 4.69221,-2.44308 0.99018,0.99018 0.69741,1.54414 -2.47963,4.69187 -2.45727,2.4346 -3.15082,2.98105 -3.78355,2.98105 -0.4261,0 -0.91761,-0.14288 -1.09224,-0.3175 z"
       id="path1" /></g></svg>
