<?xml version="1.0" encoding="UTF-8" standalone="no"?>
<!-- Created with Inkscape (http://www.inkscape.org/) -->

<svg
   width="210mm"
   height="297mm"
   viewBox="0 0 210 297"
   version="1.1"
   id="svg1"
   xml:space="preserve"
   inkscape:version="1.4 (86a8ad7, 2024-10-11)"
   sodipodi:docname="apparecchio.svg"
   xmlns:inkscape="http://www.inkscape.org/namespaces/inkscape"
   xmlns:sodipodi="http://sodipodi.sourceforge.net/DTD/sodipodi-0.dtd"
   xmlns="http://www.w3.org/2000/svg"
   xmlns:svg="http://www.w3.org/2000/svg"><sodipodi:namedview
     id="namedview1"
     pagecolor="#505050"
     bordercolor="#eeeeee"
     borderopacity="1"
     inkscape:showpageshadow="0"
     inkscape:pageopacity="0"
     inkscape:pagecheckerboard="0"
     inkscape:deskcolor="#505050"
     inkscape:document-units="mm"
     inkscape:zoom="1.0396254"
     inkscape:cx="210.65279"
     inkscape:cy="691.1143"
     inkscape:window-width="3440"
     inkscape:window-height="1369"
     inkscape:window-x="2552"
     inkscape:window-y="142"
     inkscape:window-maximized="1"
     inkscape:current-layer="layer1" /><defs
     id="defs1" /><g
     inkscape:label="Livello 1"
     inkscape:groupmode="layer"
     id="layer1"><path
       style="fill:#000000"
       d="m 36.885216,211.68159 c -2.77135,-1.12593 -4.919668,-3.91853 -6.48191,-8.42582 -1.021795,-2.94804 -2.636618,-10.83751 -3.306546,-16.15465 -0.747436,-5.93233 -1.677021,-9.58724 -3.38712,-13.31737 l -0.444766,-0.97013 H 18.62552 c -4.172835,0 -4.716561,-0.0719 -5.407159,-0.71532 -1.030516,-0.96008 -1.29311,-2.19795 -0.719867,-3.39349 0.676022,-1.40989 1.87422,-1.87729 4.827737,-1.88322 l 2.591161,-0.005 -0.957489,-1.63383 c -4.074869,-6.95324 -6.210354,-13.66382 -6.742328,-21.1872 -0.398585,-5.63693 0.901279,-11.76779 3.449586,-16.27011 0.624922,-1.10411 2.337726,-3.21585 3.806232,-4.69276 2.168667,-2.18109 3.299296,-2.99029 6.0214,-4.30959 4.654123,-2.25567 7.287315,-2.83255 12.876389,-2.82095 3.575558,0.007 5.207989,0.17779 7.408333,0.77315 2.895241,0.78338 7.236989,2.675 8.966553,3.90655 l 0.973112,0.69292 1.333577,-0.90619 c 5.447787,-3.70186 14.003917,-5.42143 20.949058,-4.21022 10.595967,1.84789 17.360817,7.82153 20.41388,18.02629 0.505886,1.6909 0.633265,3.37623 0.633265,8.37856 v 6.2619 h 3.35139 3.35139 l 4.8e-4,-6.2619 c 3.8e-4,-5.0144 0.12984,-6.71872 0.64982,-8.55495 2.495,-8.81078 8.70627,-14.88918 17.71461,-17.33568 3.6329,-0.98663 10.75625,-1.07945 14.38306,-0.18742 3.02275,0.74346 6.9929,2.38932 9.03065,3.74374 l 1.56196,1.03818 0.96771,-0.68907 c 1.72463,-1.22805 6.06951,-3.1203 8.96115,-3.90271 2.20035,-0.59536 3.83278,-0.76572 7.40834,-0.77315 5.57777,-0.0116 8.22573,0.56619 12.82628,2.79861 2.64804,1.28497 3.84022,2.13772 6.02494,4.30959 4.28599,4.26077 6.37876,8.74755 7.15744,15.34518 0.9454,8.01017 -1.52237,18.39791 -6.22062,26.18481 l -1.26696,2.09986 2.96946,0.18365 c 2.19709,0.13587 3.15533,0.35185 3.68405,0.83033 1.39498,1.26244 1.26353,3.52759 -0.27319,4.70744 -0.37262,0.28609 -2.10779,0.43351 -5.1906,0.44098 l -4.63086,0.0112 -0.71397,1.67569 c -1.40589,3.29967 -2.21602,6.63032 -3.07861,12.65679 -1.95932,13.6889 -3.80787,19.59281 -7.12393,22.75239 -2.56322,2.44227 -6.64732,3.11488 -8.87804,1.46211 -3.50043,-2.59351 -6.31517,-10.05642 -8.35148,-22.14282 -1.3983,-8.29956 -2.35571,-10.77482 -4.15744,-10.7485 -2.03422,0.0297 -2.83538,1.80019 -4.10141,9.06367 -2.15398,12.35787 -4.17038,18.65678 -7.16543,22.38373 -2.0597,2.56302 -5.0705,3.10669 -8.29796,1.49838 -4.6661,-2.32522 -7.09409,-8.76358 -9.24225,-24.50794 -0.74591,-5.46696 -1.96729,-10.30026 -3.22714,-12.77059 l -0.67468,-1.32291 H 102.37377 88.250411 l -0.866682,1.95972 c -1.367732,3.09268 -2.221682,6.61951 -2.984926,12.32778 -1.413586,10.57215 -3.302341,17.65467 -5.597655,20.99027 -3.116985,4.52968 -8.246942,5.59987 -11.377919,2.37361 -3.188132,-3.28515 -5.373374,-9.75429 -7.696289,-22.7839 -1.329093,-7.4551 -2.098022,-9.18138 -4.103165,-9.21182 -1.743671,-0.0265 -2.627821,2.07775 -3.854591,9.17366 -3.502846,20.26126 -7.659119,26.97394 -14.883968,24.03865 z m 4.443333,-7.56072 c 1.425008,-2.98584 2.936333,-8.52458 4.066518,-14.90309 0.515686,-2.91041 1.174649,-6.41331 1.464361,-7.78421 0.902692,-4.27148 2.576084,-6.69159 5.622865,-8.13196 4.22922,-1.99937 8.586095,-0.18664 10.999809,4.5766 0.656156,1.29486 1.252133,3.74431 2.112716,8.6832 1.684522,9.66749 2.797656,13.81793 4.757176,17.73762 1.175375,2.35115 1.89642,2.57026 3.232577,0.98233 1.628252,-1.93507 3.645793,-9.54291 4.68093,-17.65108 1.354379,-10.60876 2.734282,-14.59322 8.421618,-24.31731 1.2972,-2.21793 2.809897,-5.02803 3.36155,-6.24467 l 1.003005,-2.21209 -1.469413,-0.1777 c -0.808177,-0.0977 -4.882537,-0.26949 -9.054135,-0.38166 -4.171597,-0.11218 -8.418159,-0.2999 -9.436805,-0.41717 l -1.852084,-0.21321 v 4.08585 c 0,3.81054 -0.05737,4.15253 -0.851399,5.07565 l -0.8514,0.98981 H 55.872244 44.20805 l -0.978156,-0.97757 c -0.968609,-0.96803 -0.979329,-1.02895 -1.098285,-6.24079 l -0.120129,-5.26322 -0.938205,-0.19175 c -0.516012,-0.10547 -3.497306,-0.58575 -6.625096,-1.0673 -7.822934,-1.20439 -8.648864,-1.41911 -9.570747,-2.48806 -0.884547,-1.02566 -0.986683,-1.8355 -0.39521,-3.13364 0.791405,-1.73695 1.655588,-1.77858 9.870628,-0.47549 l 7.54611,1.19699 0.204782,-3.34636 c 0.18867,-3.08306 0.280429,-3.41142 1.1662,-4.17333 l 0.961418,-0.82698 11.573888,0 h 11.573888 l 0.930051,0.93005 c 0.907695,0.9077 0.93005,1.03825 0.93005,5.43134 v 4.50129 l 2.734028,0.22848 c 5.517138,0.46107 20.377087,0.8474 20.694625,0.53803 0.606108,-0.59052 0.671221,-9.13004 0.09044,-11.8611 -1.444829,-6.79415 -5.797897,-11.62464 -12.392831,-13.75202 -2.356498,-0.76016 -3.521901,-0.91772 -6.892928,-0.93192 -6.07465,-0.0256 -10.330874,1.32079 -14.763895,4.67026 -2.447188,1.84903 -3.478493,1.85854 -5.841019,0.0539 -4.324878,-3.30367 -8.67627,-4.72392 -14.496475,-4.73151 -6.081082,-0.008 -10.479225,1.51209 -14.290715,4.93895 -5.67424,5.10163 -7.355996,14.27436 -4.543922,24.78371 0.956966,3.5764 2.429482,6.8441 5.253823,11.65891 5.58254,9.51685 7.073339,13.7049 8.288042,23.28333 1.155157,9.10888 3.036883,16.31448 4.827921,18.48732 1.526254,1.85161 2.175652,1.67354 3.422218,-0.9384 z m 92.943161,0.70733 c 1.77736,-3.11069 3.51443,-9.63246 5.0035,-18.78542 1.01758,-6.25485 2.04696,-9.05782 4.06902,-11.07988 3.88522,-3.88522 9.77967,-3.07142 12.87489,1.77753 1.09382,1.71357 1.71011,4.01499 2.82169,10.53707 1.22201,7.17005 2.6971,12.84171 4.16769,16.02461 1.29762,2.80852 1.64682,3.18068 2.67749,2.85356 2.05443,-0.65205 4.45843,-8.7187 5.8363,-19.58372 1.2147,-9.57843 2.7055,-13.76648 8.28804,-23.28333 3.88647,-6.62549 5.4542,-10.8373 6.36861,-17.10973 0.80016,-5.48877 -0.39333,-12.23905 -2.83733,-16.04768 -2.25806,-3.51888 -6.49028,-6.46383 -10.97831,-7.63915 -3.02427,-0.79199 -9.24942,-0.79036 -12.28009,0.003 -2.77565,0.72679 -5.96158,2.30545 -8.35017,4.1376 -2.35732,1.80816 -3.34635,1.79545 -5.81273,-0.0747 -4.3422,-3.29251 -8.78237,-4.68842 -14.79218,-4.65037 -3.35313,0.0212 -4.54895,0.18422 -6.89293,0.93953 -6.59354,2.12467 -10.94785,6.9562 -12.39283,13.75105 -0.58081,2.73119 -0.51563,11.27594 0.0904,11.85508 0.31473,0.30075 14.62781,-0.0645 20.51823,-0.52356 l 2.91042,-0.22683 v -4.50634 c 0,-4.39855 0.0222,-4.52858 0.93005,-5.43639 l 0.93005,-0.93005 h 11.57389 11.57389 l 0.97148,0.83563 c 0.90858,0.78153 0.98098,1.05282 1.11818,4.18981 0.12564,2.8727 0.22955,3.33728 0.72389,3.23658 0.31745,-0.0647 3.79218,-0.62737 7.72162,-1.25043 7.7783,-1.23335 8.39149,-1.19156 9.22076,0.62849 0.58461,1.28308 0.47979,2.09627 -0.402,3.11873 -0.92189,1.06895 -1.74782,1.28367 -9.57075,2.48806 -3.12779,0.48155 -6.12346,0.96499 -6.65703,1.07431 l -0.97014,0.19877 v 4.68183 c 0,2.575 -0.16159,5.14535 -0.35908,5.71188 -0.70256,2.01536 -0.9761,2.06376 -12.34092,2.18343 -5.72382,0.0603 -10.94062,0.0101 -11.59289,-0.11157 -0.65227,-0.12164 -1.56508,-0.6003 -2.02847,-1.0637 -0.79203,-0.79203 -0.84253,-1.08954 -0.84253,-4.96408 v -4.12155 l -1.85208,0.21321 c -1.01865,0.11727 -5.26521,0.30499 -9.43681,0.41717 -4.1716,0.11217 -8.24736,0.28413 -9.05726,0.38213 l -1.47253,0.17817 1.10083,2.36365 c 0.60545,1.30001 2.11945,4.1099 3.36445,6.2442 5.51237,9.44993 7.08195,13.91136 8.19132,23.28334 0.98784,8.3453 3.22334,16.69519 4.97052,18.56555 1.28777,1.37857 1.89467,1.27699 2.90181,-0.48569 z m -21.28893,-38.27639 c -5e-4,-0.14552 -0.53493,-1.15016 -1.18763,-2.23254 -1.34376,-2.22838 -3.58045,-7.06884 -3.94026,-8.52718 l -0.23936,-0.97014 h -5.21518 -5.21518 l -0.242121,0.97014 c -0.389015,1.55872 -2.280383,5.71653 -3.759083,8.26363 -0.751823,1.29503 -1.366951,2.44597 -1.366951,2.55764 0,0.11167 4.7625,0.20303 10.583335,0.20303 5.82083,0 10.58292,-0.11906 10.58243,-0.26458 z M 63.242015,155.70389 c 0,-1.26118 -0.03969,-2.29336 -0.08819,-2.29373 -0.04851,-3.8e-4 -3.34257,-0.31757 -7.320139,-0.70488 -3.97757,-0.3873 -7.351007,-0.7045 -7.496528,-0.70487 -0.327054,-8.4e-4 -0.354796,5.43596 -0.0294,5.76135 0.129352,0.12936 3.542477,0.23519 7.584722,0.23519 h 7.349537 z m 93.412185,-0.79375 c 0.0564,-1.60073 -0.023,-2.91011 -0.17639,-2.90973 -0.15337,3.7e-4 -3.53323,0.31757 -7.51079,0.70487 -3.97757,0.38731 -7.27164,0.7045 -7.32014,0.70488 -0.0485,3.7e-4 -0.0882,1.03571 -0.0882,2.30075 v 2.30007 l 7.49653,-0.0952 7.49653,-0.0952 z m -93.412185,-9.78958 v -2.29306 h -7.584722 -7.584722 v 1.5875 c 0,1.40414 0.09168,1.59022 0.79375,1.61105 0.436562,0.0129 3.571875,0.311 6.967361,0.66233 3.395486,0.35133 6.451423,0.65823 6.790972,0.68201 0.529077,0.037 0.617361,-0.28469 0.617361,-2.24983 z m 87.097345,1.40198 c 2.9861,-0.28602 5.64517,-0.52004 5.90902,-0.52004 0.3334,0 0.47975,-0.48426 0.47975,-1.5875 v -1.5875 h -7.58473 -7.58472 v 2.30521 2.30521 l 1.6757,-0.19767 c 0.92163,-0.10872 4.11887,-0.43169 7.10498,-0.71771 z"
       id="path1" /></g></svg>
