<?xml version="1.0" encoding="UTF-8" standalone="no"?>
<!-- Created with Inkscape (http://www.inkscape.org/) -->

<svg
   width="210mm"
   height="297mm"
   viewBox="0 0 210 297"
   version="1.1"
   id="svg1"
   xml:space="preserve"
   inkscape:version="1.4 (86a8ad7, 2024-10-11)"
   sodipodi:docname="conservativa.svg"
   xmlns:inkscape="http://www.inkscape.org/namespaces/inkscape"
   xmlns:sodipodi="http://sodipodi.sourceforge.net/DTD/sodipodi-0.dtd"
   xmlns="http://www.w3.org/2000/svg"
   xmlns:svg="http://www.w3.org/2000/svg"><sodipodi:namedview
     id="namedview1"
     pagecolor="#505050"
     bordercolor="#eeeeee"
     borderopacity="1"
     inkscape:showpageshadow="0"
     inkscape:pageopacity="0"
     inkscape:pagecheckerboard="0"
     inkscape:deskcolor="#505050"
     inkscape:document-units="mm"
     inkscape:zoom="1.0396254"
     inkscape:cx="210.65279"
     inkscape:cy="614.16351"
     inkscape:window-width="3440"
     inkscape:window-height="1369"
     inkscape:window-x="2552"
     inkscape:window-y="142"
     inkscape:window-maximized="1"
     inkscape:current-layer="layer1" /><defs
     id="defs1" /><g
     inkscape:label="Livello 1"
     inkscape:groupmode="layer"
     id="layer1"><path
       style="fill:#000000"
       d="m 56.518885,213.23231 c -5.821708,-1.25487 -10.719978,-6.17642 -12.030674,-12.08784 -0.375401,-1.69312 -0.416509,-4.44361 -0.348987,-23.35043 l 0.07654,-21.43125 0.722017,-1.9784 c 1.430584,-3.91995 4.243419,-7.14835 7.744649,-8.88884 2.584325,-1.28468 4.353566,-1.69369 7.342187,-1.69733 1.418828,-0.002 2.579688,-0.0798 2.579688,-0.17355 0,-0.0937 -1.125913,-2.44521 -2.502029,-5.22552 -2.45061,-4.95122 -4.762264,-11.0615 -5.960941,-15.75625 -2.628952,-10.29659 0.319737,-20.4284 8.089602,-27.796199 3.559852,-3.375639 7.438389,-5.533537 12.225163,-6.8017 2.228198,-0.590318 3.110647,-0.680618 6.669037,-0.682436 3.8279,-0.002 4.312506,0.05616 7.276041,0.872623 3.941365,1.085853 6.712806,1.182933 9.525,0.333646 3.383615,-1.021856 4.972085,-1.249545 8.598955,-1.232563 5.28214,0.02473 9.36221,1.136051 13.8575,3.774467 5.29233,3.106219 9.62901,8.172261 11.93947,13.947492 2.21013,5.52446 2.52739,10.99948 1.03347,17.83477 l -0.14457,0.66146 2.91157,-0.0891 c 3.35689,-0.10272 5.81123,0.31716 8.95126,1.53136 5.45449,2.10917 10.28658,6.93337 12.473,12.45263 0.68125,1.71972 0.92903,2.65355 1.52576,5.75041 0.11198,0.58119 0.19684,0.59531 3.5772,0.59531 3.99199,0 5.84319,0.38241 8.43937,1.74334 3.45591,1.81161 6.20711,5.01105 7.60666,8.84597 l 0.72202,1.9784 0.075,21.33939 c 0.0642,18.26809 0.0172,21.61918 -0.32704,23.28333 -1.24776,6.03251 -6.18594,11.00235 -12.18341,12.26153 -2.7103,0.56904 -107.820304,0.55502 -110.463535,-0.0147 z M 166.1095,208.84967 c 4.10952,-0.87195 7.44543,-4.11938 8.53713,-8.31071 0.60978,-2.34112 0.60755,-41.56472 -0.002,-43.92214 -1.14223,-4.41396 -4.83206,-7.63742 -9.51379,-8.31132 -1.01865,-0.14663 -3.476,-0.26896 -5.46079,-0.27184 -4.64828,-0.007 -4.68742,-0.0327 -5.01933,-3.32387 -0.47499,-4.70985 -2.09342,-8.30134 -5.11696,-11.3551 -3.51236,-3.54748 -7.23129,-5.18109 -12.18417,-5.35213 -1.82362,-0.063 -3.45191,0.0282 -4.36052,0.24429 l -1.45011,0.3448 -0.97445,2.70184 c -1.15193,3.19392 -3.094,7.3287 -5.25055,11.17868 -0.85588,1.52797 -1.6809,3.3139 -1.83338,3.96875 -0.15247,0.65484 -0.39662,4.5839 -0.54255,8.73125 -0.73106,20.77675 -3.46604,33.06594 -8.47327,38.07317 -1.72729,1.72729 -3.13635,2.24963 -5.63592,2.08921 -4.46965,-0.28684 -8.07022,-3.75738 -10.437948,-10.06099 -1.870529,-4.97991 -2.448031,-9.44653 -2.448371,-18.93666 -2.35e-4,-6.55691 -0.291147,-8.87499 -1.327693,-10.57945 -0.656998,-1.08035 -1.1871,-1.07731 -1.749657,0.01 -1.06154,2.0518 -1.205394,3.31345 -1.425429,12.50156 -0.271424,11.33404 -0.766039,14.11196 -3.509664,19.71146 -1.481962,3.02455 -4.368234,6.00918 -6.615932,6.84138 -6.374545,2.36015 -10.927655,-2.06722 -13.806842,-13.42554 -1.707603,-6.73646 -2.888685,-18.19476 -3.125817,-30.32521 l -0.05689,-2.91042 -1.719791,-0.0818 c -5.64579,-0.26862 -10.068457,1.71484 -12.358067,5.54227 -1.689046,2.82349 -1.664849,2.46062 -1.664849,24.96663 0,22.20498 -0.01281,21.99439 1.507524,24.78774 0.831052,1.52692 2.997396,3.64241 4.531338,4.42497 2.695218,1.375 -0.06782,1.31054 56.985092,1.32925 38.37021,0.0126 53.49105,-0.0651 54.50416,-0.28008 z m -19.64512,-61.30761 c -0.46316,-0.37504 -0.64993,-0.89596 -0.81608,-2.27608 -0.55765,-4.63208 -3.68353,-7.77764 -8.29763,-8.34987 -1.97831,-0.24534 -2.12946,-0.32149 -2.65491,-1.3376 -0.84329,-1.63074 0.36733,-3.16051 2.50113,-3.16051 3.04246,0 6.59066,1.586 9.04981,4.04515 2.33769,2.33769 3.93468,6.07543 3.93468,9.20907 0,2.00002 -2.19352,3.10348 -3.717,1.86984 z m -65.667372,42.3771 c 2.90349,-2.33403 5.019605,-7.08636 5.866413,-13.17469 0.155401,-1.11728 0.282546,-4.99076 0.282546,-8.60772 0,-8.42478 0.383191,-11.38075 1.855306,-14.31198 1.136873,-2.2637 2.785375,-3.4151 4.889526,-3.4151 2.327672,0 4.057292,1.30471 5.261257,3.96875 1.207744,2.67239 1.487664,4.93743 1.487664,12.03781 0,9.28978 0.57624,13.61566 2.39601,17.98695 2.25843,5.42497 6.01875,7.91098 8.57339,5.66798 2.857,-2.50848 5.21811,-11.65464 6.48207,-25.10941 0.14354,-1.52797 0.39341,-6.23094 0.55526,-10.45104 0.18509,-4.82572 0.43725,-8.26199 0.67957,-9.26042 0.21739,-0.89576 1.18262,-3.02861 2.21515,-4.89479 2.85134,-5.15349 4.37891,-8.60064 6.11144,-13.79127 1.90573,-5.70952 2.35585,-7.87813 2.35585,-11.35012 0,-10.83835 -7.41628,-20.141786 -18.25624,-22.901732 -2.83041,-0.720646 -8.09753,-0.658365 -10.84792,0.128269 -5.593975,1.599923 -7.657732,1.64511 -12.900252,0.282457 -6.860072,-1.783093 -12.412697,-1.128042 -18.240163,2.151817 -2.610879,1.469475 -7.159887,5.923819 -8.618257,8.438919 -1.409005,2.42996 -2.498132,5.39752 -2.966345,8.08245 -0.745456,4.27477 -0.457186,7.03598 1.352177,12.95192 1.927693,6.30283 4.1878,11.5195 7.221689,16.66875 1.944201,3.29978 2.166568,4.40639 2.419084,12.03854 0.649614,19.63419 3.274888,33.41938 7.040844,36.97114 0.913556,0.86159 1.068985,0.91402 2.385783,0.80482 1.059609,-0.0879 1.653721,-0.31388 2.398148,-0.9123 z M 64.287594,122.51101 c -0.642832,-0.27973 -0.924968,-0.65068 -1.249845,-1.64329 -2.576741,-7.87283 0.829267,-16.99669 8.061162,-21.593866 3.498734,-2.22408 9.258792,-3.651032 11.033424,-2.733334 0.883741,0.457001 1.109466,0.888042 1.109466,2.118627 0,1.32521 -0.839438,1.913463 -3.042709,2.132253 -6.016507,0.59746 -10.897171,4.51006 -12.882896,10.32764 -0.663027,1.94248 -0.766951,5.34047 -0.239387,7.82721 0.47782,2.25227 0.269089,3.07819 -0.901551,3.56731 -1.065866,0.44535 -0.857708,0.44563 -1.887664,-0.003 z m 100.234376,15.98508 c -1.24575,-1.16059 -0.83594,-3.10759 0.7721,-3.66815 1.17554,-0.4098 7.5961,-0.37537 8.42723,0.0452 1.42999,0.72359 1.68631,2.48115 0.53043,3.63703 -0.47749,0.47749 -0.89374,0.52243 -4.83817,0.52243 -3.96965,0 -4.36191,-0.043 -4.89159,-0.53649 z m -8.51176,-12.23738 c -0.87008,-0.44027 -1.4524,-1.5245 -1.24908,-2.32571 0.19489,-0.768 3.87932,-5.94734 4.83353,-6.79469 0.89256,-0.79259 2.07725,-0.7705 2.90187,0.0541 1.1428,1.1428 0.90684,2.05507 -1.34018,5.18136 -2.95573,4.11234 -3.65437,4.63976 -5.14614,3.88492 z m -14.53975,-7.76037 c -1.44759,-0.60866 -1.50039,-1.32483 -0.41705,-5.6558 1.08636,-4.34304 1.5023,-5.03079 3.04255,-5.03079 1.22358,0 2.11667,0.87531 2.11667,2.07452 0,1.34606 -1.60691,7.4038 -2.14566,8.0887 -0.61343,0.77985 -1.54158,0.96694 -2.59651,0.52337 z"
       id="path1" /></g></svg>
