<?xml version="1.0" encoding="UTF-8" standalone="no"?>
<!-- Created with Inkscape (http://www.inkscape.org/) -->

<svg
   width="210mm"
   height="297mm"
   viewBox="0 0 210 297"
   version="1.1"
   id="svg1"
   xml:space="preserve"
   inkscape:version="1.4 (86a8ad7, 2024-10-11)"
   sodipodi:docname="pedodonzia.svg"
   xmlns:inkscape="http://www.inkscape.org/namespaces/inkscape"
   xmlns:sodipodi="http://sodipodi.sourceforge.net/DTD/sodipodi-0.dtd"
   xmlns="http://www.w3.org/2000/svg"
   xmlns:svg="http://www.w3.org/2000/svg"><sodipodi:namedview
     id="namedview1"
     pagecolor="#505050"
     bordercolor="#eeeeee"
     borderopacity="1"
     inkscape:showpageshadow="0"
     inkscape:pageopacity="0"
     inkscape:pagecheckerboard="0"
     inkscape:deskcolor="#505050"
     inkscape:document-units="mm"
     inkscape:zoom="1.0396254"
     inkscape:cx="210.65279"
     inkscape:cy="691.1143"
     inkscape:window-width="3440"
     inkscape:window-height="1369"
     inkscape:window-x="2552"
     inkscape:window-y="142"
     inkscape:window-maximized="1"
     inkscape:current-layer="layer1" /><defs
     id="defs1" /><g
     inkscape:label="Livello 1"
     inkscape:groupmode="layer"
     id="layer1"><path
       style="fill:#000000"
       d="M 69.30978,233.14631 C 60.900224,230.39344 55.327365,211.096 53.865416,179.66629 c -0.163592,-3.51699 -0.449461,-6.75544 -0.677313,-7.67292 -0.216838,-0.87312 -1.15199,-2.95672 -2.078116,-4.6302 -3.929656,-7.10081 -6.103485,-12.15242 -8.481809,-19.71032 -2.57841,-8.19373 -2.639385,-8.52969 -2.641323,-14.55322 -0.0016,-4.89168 0.05283,-5.50715 0.71977,-8.14228 1.68758,-6.66778 4.731409,-12.07005 9.487385,-16.83846 9.015172,-9.038739 21.465436,-12.106152 33.856837,-8.34142 3.437258,1.0443 6.377738,1.12575 9.50732,0.26335 5.619536,-1.548556 7.289883,-1.80076 11.509373,-1.737791 4.24502,0.06335 4.77626,0.06177 9.26042,-0.02758 2.8497,-0.05678 3.09532,-0.01199 11.77396,2.147485 6.8725,1.71005 9.27957,2.20547 10.71562,2.20547 1.42537,0 3.89419,-0.50187 10.71562,-2.17835 4.98846,-1.225993 9.7311,-2.242823 10.84792,-2.32581 5.29448,-0.393415 10.74364,2.79129 13.05279,7.62856 1.25395,2.62683 1.61533,4.67194 1.41219,7.99193 -0.52896,8.64524 -3.80317,16.29224 -9.57096,22.3532 l -2.19828,2.31001 0.22811,1.1823 c 0.12546,0.65027 0.23329,2.40771 0.23963,3.90544 0.0479,11.3143 -7.76061,21.18308 -18.90802,23.89697 -3.32777,0.81016 -8.36769,0.796 -11.37525,-0.032 -1.16417,-0.32049 -2.35479,-0.63705 -2.64583,-0.70345 -0.42256,-0.0964 -0.70405,0.19882 -1.3972,1.46542 -1.68026,3.0704 -1.93188,4.20008 -2.18814,9.82384 -1.284,28.17794 -5.55476,46.84738 -12.12187,52.99014 -2.10758,1.9714 -3.23294,2.43856 -5.85633,2.43113 -1.87649,-0.005 -2.50351,-0.12436 -3.78592,-0.71882 -3.863343,-1.79087 -6.649575,-6.54707 -8.098422,-13.82433 -0.862812,-4.33372 -1.115785,-7.93471 -1.301108,-18.52083 l -0.176011,-10.05417 -0.758015,-1.54373 c -0.878675,-1.78947 -1.920267,-2.55533 -3.475319,-2.55533 -1.869598,0 -3.374598,1.34498 -4.142658,3.70219 -0.191472,0.58763 -0.371494,4.89023 -0.492627,11.77396 -0.139173,7.9089 -0.311297,11.67227 -0.635313,13.89062 -1.376741,9.42575 -4.255769,15.08577 -8.684504,17.07326 -1.9344,0.86811 -4.52714,1.10079 -6.192243,0.55572 z m 4.941623,-5.03504 c 1.480972,-0.98006 3.016414,-3.46959 3.963581,-6.42645 1.633574,-5.09968 2.111876,-9.92721 2.11839,-21.38103 0.0053,-9.38449 0.185278,-10.94754 1.589512,-13.80723 1.635199,-3.33005 4.473128,-5.01855 8.049174,-4.78905 3.123304,0.20044 5.444024,1.81575 6.973515,4.85382 1.182143,2.34812 1.320337,3.7001 1.458792,14.27163 0.09591,7.32289 0.253266,10.95261 0.579256,13.36145 0.90317,6.67382 2.495827,11.11296 4.723917,13.16674 2.9081,2.68059 5.79596,1.96772 8.2246,-2.03025 4.30272,-7.08306 7.74038,-25.81259 8.59989,-46.85524 0.27517,-6.73668 0.52244,-8.01595 2.19908,-11.37708 0.61701,-1.23693 1.15681,-2.32409 1.19955,-2.41592 0.0427,-0.0918 -0.67164,-0.70311 -1.5875,-1.3584 -1.9341,-1.38382 -4.58705,-4.02313 -5.92793,-5.89744 -1.29184,-1.80576 -2.87293,-5.15455 -3.55337,-7.52615 -0.66207,-2.30753 -0.99068,-8.04428 -0.58617,-10.23295 l 0.25309,-1.3694 -1.81235,-1.79846 c -5.89136,-5.84622 -9.4887,-14.17333 -9.92716,-22.9794 -0.21152,-4.24838 0.68043,-7.48446 2.73638,-9.92782 l 0.73637,-0.87514 -2.24307,0.17517 c -1.23369,0.0963 -3.790888,0.59149 -5.682658,1.10033 -5.719224,1.53835 -8.472448,1.51511 -14.298066,-0.1207 -3.858951,-1.08357 -7.31812,-1.42544 -10.819433,-1.06929 -7.11357,0.7236 -13.047243,3.62742 -18.113583,8.86444 -5.866328,6.06396 -8.759541,13.09736 -8.759541,21.29445 0,3.99121 0.471495,6.62693 2.140232,11.96419 2.63888,8.44016 4.925223,13.77613 9.226237,21.5326 1.843179,3.324 2.284501,5.28215 2.499639,11.09093 0.592136,15.98782 2.886644,32.19899 5.833679,41.21613 1.623198,4.96655 3.611194,8.42181 5.518921,9.59224 1.42909,0.87677 3.12415,0.78754 4.687026,-0.24672 z M 50.755498,141.96212 c -1.212143,-1.12928 -2.036562,-5.62488 -1.843579,-10.05312 0.168982,-3.87752 0.906476,-6.78882 2.580447,-10.18646 4.11816,-8.35857 12.154553,-13.85525 20.976163,-14.34714 2.443947,-0.13627 2.62739,-0.10985 3.241145,0.46674 0.842369,0.79137 0.866251,2.09605 0.05526,3.01909 -0.523911,0.5963 -0.910185,0.70947 -3.220569,0.94355 -7.510259,0.76091 -13.723672,5.13894 -17.079567,12.03443 -1.622114,3.33302 -1.976214,4.99231 -1.976214,9.26042 0,2.75203 0.121776,4.14002 0.473758,5.39984 0.260567,0.93262 0.404624,1.97112 0.320128,2.30778 -0.388279,1.54702 -2.399258,2.2055 -3.526977,1.15487 z m 91.648082,20.7755 c 6.95878,-2.0143 12.35858,-7.71255 14.16265,-14.94543 0.46516,-1.86491 0.53775,-2.77471 0.43279,-5.42396 -0.14676,-3.70406 -0.97566,-6.54713 -2.79709,-9.59386 -1.05595,-1.7663 -3.60142,-4.83412 -4.01102,-4.83412 -0.11569,0 -0.28216,0.35906 -0.36993,0.79791 -0.0878,0.43885 -0.46824,1.45036 -0.84549,2.2478 l -0.68591,1.44989 0.91389,1.12564 c 6.15022,7.57528 3.42701,19.48215 -5.42203,23.70711 -2.63222,1.25675 -4.27597,1.62895 -7.17536,1.62476 -5.87767,-0.009 -11.36922,-3.46899 -13.89325,-8.75479 -1.23788,-2.59238 -1.6395,-4.29598 -1.63409,-6.93166 0.007,-3.50843 1.31344,-7.31852 3.30612,-9.6434 l 0.96307,-1.12362 -0.67715,-1.38993 c -0.37243,-0.76445 -0.75344,-1.77687 -0.8467,-2.24981 -0.0933,-0.47295 -0.26271,-0.8599 -0.37655,-0.8599 -0.28238,0 -2.51898,2.51084 -3.47718,3.90354 -3.06567,4.45579 -4.17044,10.6992 -2.86028,16.16433 1.70757,7.12287 7.37644,12.91461 14.54809,14.86343 2.8915,0.78573 7.77873,0.72481 10.74542,-0.13393 z m -1.10661,-9.21724 c 2.11943,-0.97752 3.72903,-2.34872 4.91982,-4.1911 0.92741,-1.43488 1.47996,-2.7928 1.23579,-3.03698 -0.0585,-0.0585 -1.08948,0.12847 -2.29109,0.41547 -5.25445,1.25499 -11.3276,1.25788 -16.63307,0.008 -1.21204,-0.28555 -2.26674,-0.51919 -2.34379,-0.51919 -0.27428,0 0.22876,1.47357 0.8919,2.61266 1.45463,2.49863 3.42441,4.10258 6.29797,5.1283 2.05929,0.73507 5.85805,0.53508 7.92247,-0.41708 z m 1.89126,-11.01457 c 3.2575,-0.68034 4.45345,-1.11817 4.55956,-1.66921 0.11296,-0.58661 -1.44425,-3.99866 -2.0928,-4.58559 -0.45619,-0.41285 -0.56263,-0.39055 -1.75117,0.36675 -4.14383,2.64037 -9.90803,2.64004 -14.22087,-8.1e-4 l -1.31376,-0.80444 -0.74039,0.88686 c -1.02723,1.23046 -2.27267,4.73463 -1.68276,4.73463 0.0598,0 1.24711,0.303 2.63848,0.67332 4.7313,1.25929 9.81767,1.39808 14.60371,0.39849 z m -3.24896,-8.90899 c 2.28519,-0.79696 4.49341,-3.03177 5.38048,-5.44526 0.62583,-1.70271 0.56374,-4.53376 -0.1392,-6.34654 -0.77629,-2.00194 -2.63291,-3.95007 -4.65884,-4.88849 -2.22229,-1.02937 -5.14766,-1.04761 -7.3078,-0.0456 -2.07327,0.96174 -3.52359,2.36768 -4.51058,4.37253 -1.62998,3.31096 -0.97741,7.46102 1.58593,10.08577 2.57106,2.63267 6.17492,3.4795 9.65001,2.26755 z m 22.37385,-3.27532 c 3.84742,-5.09657 5.90485,-11.12401 5.96069,-17.4625 0.027,-3.06387 -0.0229,-3.41822 -0.67734,-4.81449 -1.39785,-2.98212 -4.42476,-5.1101 -7.69984,-5.41314 -1.45961,-0.13506 -2.75098,0.11384 -11.30513,2.1789 -8.00732,1.93304 -10.01893,2.33137 -11.77396,2.33137 -1.75503,0 -3.76664,-0.39833 -11.77396,-2.33137 -8.62691,-2.08263 -9.83649,-2.31479 -11.33684,-2.17594 -3.31169,0.30648 -6.27292,2.40006 -7.65233,5.41018 -1.7586,3.83756 -0.5732,11.94227 2.65394,18.14523 1.52913,2.93918 4.95662,7.46792 5.31183,7.01851 0.0472,-0.0597 0.52768,-0.91072 1.0677,-1.89106 1.50828,-2.7381 3.93819,-5.60912 6.35511,-7.50876 1.96726,-1.54622 2.23742,-1.86789 2.63913,-3.14223 0.85181,-2.70227 2.97407,-5.32588 5.71487,-7.06495 3.06016,-1.9417 7.74806,-2.44598 11.28088,-1.21348 4.15936,1.45108 7.46749,4.77328 8.59963,8.63618 0.26944,0.91936 0.6366,1.3733 1.80884,2.2364 2.99716,2.20674 5.75434,5.4428 7.29162,8.55805 l 0.79375,1.60852 0.6217,-0.56052 c 0.34193,-0.30829 1.2958,-1.45349 2.11971,-2.5449 z M 114.1718,120.16914 c -2.23009,-0.79715 -4.03883,-3.08094 -4.37342,-5.52204 -0.56434,-4.11728 3.37665,-8.07461 7.48102,-7.51204 6.5434,0.89687 8.08369,9.60466 2.23903,12.65795 -1.58877,0.82998 -3.6678,0.97624 -5.34663,0.37613 z m 3.87235,-4.78457 c 1.23505,-1.23505 0.61051,-3.31796 -1.12549,-3.75367 -1.40756,-0.35328 -2.97934,1.22903 -2.62466,2.64223 0.44356,1.76728 2.4883,2.37329 3.75015,1.11144 z m 36.23589,4.51677 c -3.95322,-1.86889 -5.09279,-6.7711 -2.39594,-10.30685 0.845,-1.10785 2.90164,-2.24425 4.4443,-2.45569 3.05935,-0.41933 6.34258,1.76413 7.22693,4.80616 1.62115,5.57659 -4.03896,10.43186 -9.27529,7.95638 z m 4.31253,-4.40383 c 1.21069,-1.12793 0.97735,-2.83516 -0.50091,-3.66488 -1.36319,-0.76514 -3.15016,0.37751 -3.15016,2.01433 0,1.85284 2.31203,2.89805 3.65107,1.65055 z"
       id="path1" /></g></svg>
